<svg width="64" height="64" xmlns="http://www.w3.org/2000/svg" fill="none">
  <path id="svg_1" d="m26.55,10.65l3.9,4.15l15.85,-14.8l17.7,0l0,4.2l-17.05,0l-23.75,22.6l5.45,4.4l2,-1.65l-3,-3.15l20.5,-19.45l0,0.05l15.85,0l0,50l-15.55,0l-14.65,-13.9l-0.3,0l-1.8,1.8l15.7,14.9l16.6,0l0,4.2l-18.3,0l-15.05,-14.95l-4,3.65l-26.65,-20.7l26.55,-21.35zm16.7,9.35l-5,4.45l1.8,1.8l4.1,-3.1c2.4,-0.1333 3.75,-0.1 4.05,0.1l0.05,17.85l-3.7,0l-9.75,-8l-2.3,1.5l11.05,9.45l6.85,0c0.0333,-1.6 0.0667,-4.35 0.1,-8.25c0.0333,-3.9333 0.0667,-9.2 0.1,-15.8l-7.35,0zm-15.05,1.2l1.55,-1.7l-3.45,-2.9l-19.6,15.45l19.85,15.5l9.6,-8.05l-1.75,-1.7l-7.95,5.6l-14.8,-11.3l14.5,-11.95l2.05,1.05zm5.55,1.25l-1.95,2l9.35,7.55l-2.4,2.95l1.7,1.15l5.15,-4.35l-11.85,-9.3zm2.15,7.15l-1.95,-1.5l-11,8.95l4.75,4.6l2,-2.05l-2.3,-1.8l8.5,-8.2z" fill="black" fill-opacity="0.74902" />
  <path id="svg_2" d="m31.7,44.9l1.8,-1.8l0.3,0l14.65,13.9l15.55,0l0,2.8l-16.6,0l-15.7,-14.9zm2.25,-16.8l1.95,1.5l-8.5,8.2l2.3,1.8l-2,2.05l-4.75,-4.6l11,-8.95zm14.2,-21.1l0,-0.05l-20.5,19.45l3,3.15l-2,1.65l-5.45,-4.4l23.75,-22.6l17.05,0l0,2.8l-15.85,0zm-16.35,17.45l1.95,-2l11.85,9.3l-5.15,4.35l-1.7,-1.15l2.4,-2.95l-9.35,-7.55zm-3.6,-3.25l-2.05,-1.05l-14.5,11.95l14.8,11.3l7.95,-5.6l1.75,1.7l-9.6,8.05l-19.85,-15.5l19.6,-15.45l3.45,2.9l-1.55,1.7zm10.05,3.25l5,-4.45l7.35,0c-0.0333,6.6 -0.0667,11.8667 -0.1,15.8c-0.0333,3.9 -0.0667,6.65 -0.1,8.25l-6.85,0l-11.05,-9.45l2.3,-1.5l9.75,8l3.7,0l-0.05,-17.85c-0.3,-0.2 -1.65,-0.2333 -4.05,-0.1l-4.1,3.1l-1.8,-1.8z" fill="#9D9E9E" fill-opacity="0.74902" />
</svg>
