<svg width="64" height="64" viewBox="0 0 64 64" fill="none" xmlns="http://www.w3.org/2000/svg">
<g clip-path="url(#clip0_222:6382)">
<path d="M7.05 20.05V44.1C7.05 52.7333 11.3833 57.05 20.05 57.05H41.4V57H71.95V7L20.05 7.05C11.3833 7.05 7.05 11.3833 7.05 20.05ZM71.95 4.2V0H16.6C5.53333 0 0 5.53333 0 16.6V47.45C0 58.4833 5.53333 64 16.6 64H71.95V59.8H18.65C9.01667 59.8 4.2 55 4.2 45.4V18.65C4.2 9.01667 9.01667 4.2 18.65 4.2H71.95Z" fill="black" fill-opacity="0.75"/>
<g clip-path="url(#clip1_222:6382)">
<path d="M71.7 7.00001V4.20001H18.65C9.01662 4.20001 4.19995 9.01668 4.19995 18.65V45.4C4.19995 55 9.01662 59.8 18.65 59.8H71.7V57H41.4V57.05H20.05C11.3833 57.05 7.04995 52.7333 7.04995 44.1V20.05C7.04995 11.3833 11.3833 7.05001 20.05 7.05001L71.7 7.00001Z" fill="#9D9E9E" fill-opacity="0.75"/>
</g>
</g>
<defs>
<clipPath id="clip0_222:6382">
<rect width="64" height="64" fill="white"/>
</clipPath>
<clipPath id="clip1_222:6382">
<rect width="64" height="64" fill="white"/>
</clipPath>
</defs>
</svg>
