<svg width="64" height="64" xmlns="http://www.w3.org/2000/svg">
  <path id="svg_1" fill-opacity="0.74902" fill="black" d="m37.45,10.65l-3.9,4.15l-15.85,-14.8l-17.7,0l0,4.2l17.05,0l23.75,22.6l-5.45,4.4l-2,-1.65l3,-3.15l-20.5,-19.45l0,0.05l-15.85,0l0,50l15.55,0l14.65,-13.9l0.3,0l1.8,1.8l-15.7,14.9l-16.6,0l0,4.2l18.3,0l15.05,-14.95l4,3.65l26.65,-20.7l-26.55,-21.35zm-16.7,9.35l5,4.45l-1.8,1.8l-4.1,-3.1c-2.4,-0.1333 -3.75,-0.1 -4.05,0.1l-0.05,17.85l3.7,0l9.75,-8l2.3,1.5l-11.05,9.45l-6.85,0c-0.033,-1.6 -0.067,-4.35 -0.1,-8.25c-0.033,-3.9333 -0.067,-9.2 -0.1,-15.8l7.35,0zm15.05,1.2l-1.55,-1.7l3.45,-2.9l19.6,15.45l-19.85,15.5l-9.6,-8.05l1.75,-1.7l7.95,5.6l14.8,-11.3l-14.5,-11.95l-2.05,1.05zm-5.55,1.25l1.95,2l-9.35,7.55l2.4,2.95l-1.7,1.15l-5.15,-4.35l11.85,-9.3zm-2.15,7.15l1.95,-1.5l11,8.95l-4.75,4.6l-2,-2.05l2.3,-1.8l-8.5,-8.2z"/>
  <path id="svg_2" fill-opacity="0.74902" fill="#9D9E9E" d="m32.30001,44.9l-1.8,-1.8l-0.3,0l-14.65,13.9l-15.55,0l0,2.8l16.6,0l15.7,-14.9zm-2.25,-16.8l-1.95,1.5l8.5,8.2l-2.3,1.8l2,2.05l4.75,-4.6l-11,-8.95zm-14.2,-21.1l0,-0.05l20.5,19.45l-3,3.15l2,1.65l5.45,-4.4l-23.75,-22.6l-17.05,0l0,2.8l15.85,0zm16.35,17.45l-1.95,-2l-11.85,9.3l5.15,4.35l1.7,-1.15l-2.4,-2.95l9.35,-7.55zm3.6,-3.25l2.05,-1.05l14.5,11.95l-14.8,11.3l-7.95,-5.6l-1.75,1.7l9.6,8.05l19.85,-15.5l-19.6,-15.45l-3.45,2.9l1.55,1.7zm-10.05,3.25l-5,-4.45l-7.35,0c0.033,6.6 0.067,11.8667 0.1,15.8c0.033,3.9 0.067,6.65 0.1,8.25l6.85,0l11.05,-9.45l-2.3,-1.5l-9.75,8l-3.7,0l0.05,-17.85c0.3,-0.2 1.65,-0.2333 4.05,-0.1l4.1,3.1l1.8,-1.8z"/>
</svg>
