<svg width="10" height="14" viewBox="0 0 10 14" fill="none" xmlns="http://www.w3.org/2000/svg">
<g opacity="1">
<path d="M5.00001 0C3.19909 0 1.73915 1.41673 1.73915 3.16435C1.73915 4.91196 3.19909 6.32869 5.00001 6.32869C6.80093 6.32869 8.26087 4.91196 8.26087 3.16435C8.26087 1.41673 6.80093 0 5.00001 0Z" fill="#F8F8F8"/>
<path d="M2.18435 6.37934C1.11136 6.93563 0.32475 7.93595 0.0793809 9.13299C-0.000169328 9.52108 -0.000100444 9.9712 7.82881e-06 10.6784L1.59661e-05 11.8847C1.59661e-05 12.4827 0.375222 13.0205 0.947424 13.2426C3.54894 14.2525 6.45106 14.2525 9.05258 13.2426C9.62478 13.0205 9.99998 12.4827 9.99998 11.8847L9.99999 10.6784C10.0001 9.9712 10.0002 9.52108 9.92062 9.13299C9.67525 7.93595 8.88865 6.93564 7.81566 6.37935C7.05706 7.00558 6.07401 7.38347 5.00001 7.38347C3.92601 7.38347 2.94296 7.00558 2.18435 6.37934Z" fill="#F8F8F8"/>
</g>
</svg>
