<svg width="13" height="13" viewBox="0 0 13 13" fill="none" xmlns="http://www.w3.org/2000/svg">
<path opacity="1" fill-rule="evenodd" clip-rule="evenodd" d="M6.49998 0C2.91014 0 0 2.91014 0 6.49998C0 10.0898 2.91014 13 6.49998 13L10.3031 13C10.6624 13.0002 10.9398 13.0003 11.1838 12.9472C12.0661 12.7553 12.7553 12.0661 12.9472 11.1838C13.0003 10.9398 13.0002 10.6624 13 10.3031L13 6.49998C13 2.91014 10.0898 0 6.49998 0ZM3.98386 5.45159C3.63645 5.45159 3.35483 5.73322 3.35483 6.08062C3.35483 6.42803 3.63645 6.70965 3.98386 6.70965L9.0161 6.70965C9.3635 6.70965 9.64513 6.42803 9.64513 6.08062C9.64513 5.73322 9.3635 5.45159 9.0161 5.45159L3.98386 5.45159ZM6.49998 8.38707C6.15257 8.38707 5.87095 8.66869 5.87095 9.0161C5.87095 9.3635 6.15257 9.64513 6.49998 9.64513H9.0161C9.3635 9.64513 9.64513 9.3635 9.64513 9.0161C9.64513 8.66869 9.3635 8.38707 9.0161 8.38707H6.49998Z" fill="#F8F8F8"/>
</svg>
