<svg width="12" height="15" viewBox="0 0 12 15" fill="none" xmlns="http://www.w3.org/2000/svg">
<g opacity="1">
<path d="M1.46323 4.07999C1.1285 4.39111 0.585786 4.39111 0.251051 4.07999C-0.0836838 3.76887 -0.0836838 3.26445 0.251051 2.95333L3.42857 0L6.60609 2.95333C6.94083 3.26445 6.94083 3.76887 6.60609 4.07999C6.27136 4.39111 5.72864 4.39111 5.39391 4.07999L4.28571 3.04998L4.28571 9.09333C4.28571 9.53332 3.90196 9.89 3.42857 9.89C2.95518 9.89 2.57143 9.53332 2.57143 9.09333L2.57143 3.04998L1.46323 4.07999Z" fill="#F8F8F8"/>
<path d="M6.60609 10.92C6.27136 10.6089 5.72864 10.6089 5.39391 10.92C5.05917 11.2311 5.05917 11.7356 5.39391 12.0467L8.57143 15L11.7489 12.0467C12.0837 11.7355 12.0837 11.2311 11.7489 10.92C11.4142 10.6089 10.8715 10.6089 10.5368 10.92L9.42857 11.95V5.90667C9.42857 5.46668 9.04482 5.11 8.57143 5.11C8.09804 5.11 7.71429 5.46668 7.71429 5.90667L7.71429 11.95L6.60609 10.92Z" fill="#F8F8F8"/>
</g>
</svg>
