<svg width="42" height="43" viewBox="0 0 42 43" fill="none"
    xmlns="http://www.w3.org/2000/svg">
    <path d="M39.35 7.10005C39.0093 6.2826 38.6593 5.64926 38.3 5.20004C37.5666 4.30004 36.9666 3.71671 36.5 3.45004C36 3.15004 35.5333 2.86671 35.1 2.60004C34.6666 2.30004 33.6 1.88338 31.9 1.35004C30.1666 0.716711 28.1333 0.783378 25.8 1.55004C24 2.11671 22.4666 3.08338 21.2 4.45004C19.7 2.91671 17.6 1.76671 14.9 1.00004C12.5133 0.656815 9.66325 1.25682 6.34997 2.80004C3.06742 4.34705 1.06742 7.99705 0.349972 13.75V16.2C0.316638 22.6 2.5833 27.3667 7.14997 30.5C13.1833 34.1667 17.85 38.1167 21.15 42.35C25.2833 37.0834 30.0833 32.7667 35.55 29.4C38.0166 27.5334 39.6 25.4834 40.3 23.25C40.9333 21.05 41.2666 19.3167 41.3 18.05C41.3 16.7834 41.2833 15.4167 41.25 13.95C41.25 13.65 41.25 13.3834 41.25 13.15C41.25 12.8545 40.9333 11.7045 40.3 9.70004C40.3093 9.66411 40.3093 9.63077 40.3 9.60005C39.9927 8.63208 39.676 7.79874 39.35 7.10005ZM37.75 12.15C37.8113 12.3465 37.8613 12.5465 37.9 12.75C38.0372 13.1838 38.1539 13.6338 38.25 14.1C38.2728 14.4719 38.2894 14.8386 38.3 15.2C38.3209 16.171 38.2876 17.1043 38.2 18C38.1165 18.8687 37.9832 19.702 37.8 20.5C37.5457 21.6 37.1957 22.6334 36.75 23.6C36.2777 24.625 35.6944 25.575 35 26.45C34.5786 26.9959 34.112 27.5125 33.6 28C32.6638 28.5484 31.7471 29.1317 30.85 29.75C30.7617 29.8162 30.6617 29.8829 30.55 29.95C27.1465 32.3757 24.0965 35.3257 21.4 38.8C18.6235 35.3361 15.3569 32.3861 11.6 29.95C10.6142 29.3151 9.5975 28.7151 8.54997 28.15C7.94294 27.6183 7.39294 27.0516 6.89997 26.45C6.1656 25.5739 5.54893 24.6239 5.04997 23.6C4.58187 22.6326 4.21521 21.5993 3.94997 20.5C3.75232 19.7016 3.60232 18.8683 3.49997 18C3.43773 17.1043 3.42107 16.171 3.44997 15.2C3.46182 14.8873 3.47849 14.5706 3.49997 14.25C3.61911 13.7296 3.75245 13.2296 3.89997 12.75C3.96469 12.5464 4.03135 12.3464 4.09997 12.15C4.40518 11.2771 4.75518 10.4771 5.14997 9.75004C5.75336 8.72127 6.45336 7.83794 7.24997 7.10005C7.98213 6.43143 8.7988 5.88142 9.69997 5.45004C11.7 4.55004 13.6666 4.25004 15.6 4.55004C17.7263 5.19835 19.3929 6.04835 20.6 7.10005C20.9593 7.40031 21.276 7.71697 21.55 8.05005C21.6605 7.89262 21.7772 7.74262 21.9 7.60005C22.0431 7.42882 22.1931 7.26215 22.35 7.10005C23.4808 5.98103 25.0808 5.08103 27.15 4.40004C28.9166 4.10004 30.7166 4.40005 32.55 5.30005C33.4455 5.76333 34.2455 6.36333 34.95 7.10005C35.6504 7.83182 36.2504 8.69848 36.75 9.70004C37.1439 10.4426 37.4772 11.2593 37.75 12.15Z" fill="black" />
    <path d="M27.15 4.39998C24.7812 5.17953 23.0312 6.2462 21.9 7.59998C21.7772 7.74255 21.6605 7.89255 21.55 8.04998C20.3166 6.54998 18.3333 5.38331 15.6 4.54998C13.6666 4.24998 11.7 4.54998 9.69998 5.44998C6.56665 6.94998 4.49998 9.88331 3.49998 14.25C3.09998 20.2166 4.78332 24.85 8.54998 28.15C13.6166 30.8833 17.9 34.4333 21.4 38.8C24.8666 34.3333 28.9333 30.7333 33.6 28C37.0666 24.7 38.6166 20.0666 38.25 14.1C37.35 9.73331 35.45 6.79998 32.55 5.29998C30.7166 4.39998 28.9166 4.09998 27.15 4.39998ZM25.4 11.35C26.1 12.1166 26.3833 13.0333 26.25 14.1C26.15 15.1333 25.6666 15.9666 24.8 16.6C24.2 17.1333 23.6667 17.4166 23.2 17.45L22.55 19.4L19.1 19.1L18.8 17.05C18.2333 16.7833 17.75 16.4 17.35 15.9C16.7167 15.1333 16.45 14.2333 16.55 13.2C16.6833 12.1333 17.15 11.2833 17.95 10.65C18.75 9.98331 19.6833 9.69998 20.75 9.79998L22.95 9.99998C23.9833 10.1 24.8 10.55 25.4 11.35ZM26.05 19.8C25.7166 19.2 25.8 18.6666 26.3 18.2C26.7666 17.9666 27.2333 18 27.7 18.3C27.9333 18.8333 27.9 19.3166 27.6 19.75L28.9 19.8C29.2666 20.6 29.2333 21.2666 28.8 21.8C28.2666 22.2333 27.7167 22.2 27.15 21.7L16.3 27.5C16.8333 28.3666 16.8 28.95 16.2 29.25C15.6 29.5833 15.0833 29.5666 14.65 29.2C14.35 28.7333 14.3667 28.2833 14.7 27.85C13.9333 27.8166 13.3333 27.5333 12.9 27C12.8333 26 13.1833 25.5666 13.95 25.7C14.5167 25.7333 14.8833 26.0833 15.05 26.75L26.05 19.8ZM13 20.6C13.3666 20.1333 13.7833 19.9333 14.25 20L13.7 18.8C14.2 18.1 14.7833 17.8 15.45 17.9C16.0833 18.1666 16.3166 18.6666 16.15 19.4L20.75 22.35L19.05 23.4L15.05 21.3C14.7166 21.8666 14.2333 22.05 13.6 21.85C13.1666 21.55 12.9666 21.1333 13 20.6ZM27.7 27.05C28.1 27.7833 28.1666 28.4666 27.9 29.1C27.1 29.6666 26.5666 29.6 26.3 28.9C26.0333 28.3333 26.1333 27.8 26.6 27.3L22.1 25.05L23.35 24.4L26.65 25.9C27.1166 25 27.6333 24.75 28.2 25.15C28.7667 25.45 29 25.8833 28.9 26.45C28.7 26.9833 28.3 27.1833 27.7 27.05ZM22.05 18.15L21.15 18.1L21.1 18.7L21.95 18.75L22.05 18.15ZM19.65 17.95L19.7 18.55L20.4 18.6V18L19.65 17.95ZM20.35 15.75L21.45 15.85L21.05 13.95L20.35 15.75ZM18.65 13.4C18.8166 13.6 19.0166 13.7166 19.25 13.75C19.5166 13.7833 19.7333 13.7 19.9 13.5C20.1 13.4 20.2167 13.2166 20.25 12.95C20.2833 12.7166 20.2 12.4833 20 12.25C19.9 12.0833 19.7167 11.9833 19.45 11.95C19.2167 11.9166 19 11.9833 18.8 12.15C18.6 12.3166 18.4833 12.5166 18.45 12.75C18.4166 13.0166 18.4833 13.2333 18.65 13.4ZM23.25 12.2C23.0166 12.1666 22.7833 12.25 22.55 12.45C22.3166 12.5833 22.2 12.7833 22.2 13.05C22.1667 13.35 22.2333 13.6 22.4 13.8C22.5666 14 22.7833 14.1166 23.05 14.15C23.3166 14.1833 23.5666 14.1 23.8 13.9C24 13.7666 24.1166 13.55 24.15 13.25C24.1833 12.9833 24.1166 12.75 23.95 12.55C23.75 12.35 23.5166 12.2333 23.25 12.2Z" fill="#9A9769"/>
    <path d="M27.6996 27.05C28.2996 27.1833 28.6996 26.9833 28.8996 26.45C28.9996 25.8833 28.7663 25.45 28.1996 25.15C27.6329 24.75 27.1163 25 26.6496 25.9L23.3496 24.4L22.0996 25.05L26.5996 27.3C26.1329 27.8 26.0329 28.3333 26.2996 28.9C26.5663 29.6 27.0996 29.6666 27.8996 29.1C28.1663 28.4666 28.0996 27.7833 27.6996 27.05ZM14.2496 20C13.7829 19.9333 13.3663 20.1333 12.9996 20.6C12.9663 21.1333 13.1663 21.55 13.5996 21.85C14.2329 22.05 14.7163 21.8666 15.0496 21.3L19.0496 23.4L20.7496 22.35L16.1496 19.4C16.3163 18.6666 16.0829 18.1666 15.4496 17.9C14.7829 17.8 14.1996 18.1 13.6996 18.8L14.2496 20ZM26.2996 18.2C25.7996 18.6666 25.7163 19.2 26.0496 19.8L15.0496 26.75C14.8829 26.0833 14.5163 25.7333 13.9496 25.7C13.1829 25.5666 12.8329 26 12.8996 27C13.3329 27.5333 13.9329 27.8166 14.6996 27.85C14.3663 28.2833 14.3496 28.7333 14.6496 29.2C15.0829 29.5666 15.5996 29.5833 16.1996 29.25C16.7996 28.95 16.8329 28.3666 16.2996 27.5L27.1496 21.7C27.7163 22.2 28.2663 22.2333 28.7996 21.8C29.2329 21.2666 29.2663 20.6 28.8996 19.8L27.5996 19.75C27.8996 19.3166 27.9329 18.8333 27.6996 18.3C27.2329 18 26.7663 17.9666 26.2996 18.2ZM25.3996 11.35C24.7996 10.55 23.9829 10.1 22.9496 9.99996L20.7496 9.79996C19.6829 9.69996 18.7496 9.98329 17.9496 10.65C17.1496 11.2833 16.6829 12.1333 16.5496 13.2C16.4496 14.2333 16.7163 15.1333 17.3496 15.9C17.7496 16.4 18.2329 16.7833 18.7996 17.05L19.0996 19.1L22.5496 19.4L23.1996 17.45C23.6663 17.4166 24.1996 17.1333 24.7996 16.6C25.6663 15.9666 26.1496 15.1333 26.2496 14.1C26.3829 13.0333 26.0996 12.1166 25.3996 11.35ZM22.5496 12.45C22.7829 12.25 23.0163 12.1666 23.2496 12.2C23.5163 12.2333 23.7496 12.35 23.9496 12.55C24.1163 12.75 24.1829 12.9833 24.1496 13.25C24.1163 13.55 23.9996 13.7666 23.7996 13.9C23.5663 14.1 23.3163 14.1833 23.0496 14.15C22.7829 14.1166 22.5663 14 22.3996 13.8C22.2329 13.6 22.1663 13.35 22.1996 13.05C22.1996 12.7833 22.3163 12.5833 22.5496 12.45ZM19.2496 13.75C19.0163 13.7166 18.8163 13.6 18.6496 13.4C18.4829 13.2333 18.4163 13.0166 18.4496 12.75C18.4829 12.5166 18.5996 12.3166 18.7996 12.15C18.9996 11.9833 19.2163 11.9166 19.4496 11.95C19.7163 11.9833 19.8996 12.0833 19.9996 12.25C20.1996 12.4833 20.2829 12.7166 20.2496 12.95C20.2163 13.2166 20.0996 13.4 19.8996 13.5C19.7329 13.7 19.5163 13.7833 19.2496 13.75ZM21.4496 15.85L20.3496 15.75L21.0496 13.95L21.4496 15.85ZM19.6996 18.55L19.6496 17.95L20.3996 18V18.6L19.6996 18.55ZM21.1496 18.1L22.0496 18.15L21.9496 18.75L21.0996 18.7L21.1496 18.1Z" fill="black"/>
</svg>
