<svg width="42" height="43" viewBox="0 0 42 43" fill="none"
    xmlns="http://www.w3.org/2000/svg">
    <path d="M39.35 7.10005C39.0093 6.2826 38.6593 5.64926 38.3 5.20004C37.5666 4.30004 36.9666 3.71671 36.5 3.45004C36 3.15004 35.5333 2.86671 35.1 2.60004C34.6666 2.30004 33.6 1.88338 31.9 1.35004C30.1666 0.716711 28.1333 0.783378 25.8 1.55004C24 2.11671 22.4666 3.08338 21.2 4.45004C19.7 2.91671 17.6 1.76671 14.9 1.00004C12.5132 0.656815 9.66324 1.25682 6.34996 2.80004C3.44853 4.1684 1.54853 7.18507 0.649961 11.85C0.532773 12.4521 0.432773 13.0855 0.349961 13.75V16.2C0.344882 17.1714 0.394882 18.1047 0.499961 19C0.79306 21.6223 1.54306 23.9223 2.74996 25.9C3.83759 27.7003 5.30426 29.2336 7.14996 30.5C13.1833 34.1667 17.85 38.1167 21.15 42.35C25.2833 37.0834 30.0833 32.7667 35.55 29.4C38.0166 27.5334 39.6 25.4834 40.3 23.25C40.786 21.5615 41.086 20.1448 41.2 19C41.2588 18.6612 41.2921 18.3446 41.3 18.05C41.3 16.7834 41.2833 15.4167 41.25 13.95C41.25 13.65 41.25 13.3834 41.25 13.15C41.25 12.8545 40.9333 11.7045 40.3 9.70004C40.3093 9.66411 40.3093 9.63077 40.3 9.60005C39.9927 8.63208 39.676 7.79874 39.35 7.10005ZM37.75 12.15C37.8113 12.3465 37.8613 12.5465 37.9 12.75C38.0372 13.1838 38.1539 13.6338 38.25 14.1C38.2727 14.4719 38.2894 14.8386 38.3 15.2C38.3209 16.171 38.2876 17.1043 38.2 18C38.1674 18.3388 38.1174 18.6722 38.05 19C37.995 19.5133 37.9117 20.0133 37.8 20.5C37.3315 22.5261 36.5315 24.3261 35.4 25.9C34.8811 26.6516 34.2811 27.3516 33.6 28C31.4851 29.2387 29.4851 30.6554 27.6 32.25C25.3622 34.1743 23.2955 36.3576 21.4 38.8C19.4451 36.3611 17.2451 34.1778 14.8 32.25C12.87 30.7234 10.7867 29.3567 8.54996 28.15C7.7609 27.4588 7.0609 26.7088 6.44996 25.9C5.27131 24.3231 4.43798 22.5231 3.94996 20.5C3.82939 20.0131 3.72939 19.5131 3.64996 19C3.60009 18.672 3.55009 18.3387 3.49996 18C3.43772 17.1043 3.42105 16.171 3.44996 15.2C3.46181 14.8873 3.47848 14.5706 3.49996 14.25C3.6191 13.7296 3.75243 13.2296 3.89996 12.75C3.96467 12.5464 4.03134 12.3464 4.09996 12.15C4.13525 12.0491 4.16858 11.9491 4.19996 11.85C4.48616 11.093 4.80282 10.393 5.14996 9.75004C5.75335 8.72127 6.45335 7.83794 7.24996 7.10005C7.98212 6.43143 8.79879 5.88142 9.69996 5.45004C11.7 4.55004 13.6666 4.25004 15.6 4.55004C17.7263 5.19835 19.3929 6.04835 20.6 7.10005C20.9593 7.40031 21.276 7.71697 21.55 8.05005C21.6605 7.89262 21.7772 7.74262 21.9 7.60005C22.0431 7.42882 22.1931 7.26215 22.35 7.10005C23.4808 5.98103 25.0808 5.08103 27.15 4.40004C28.9166 4.10004 30.7166 4.40004 32.55 5.30005C33.4455 5.76333 34.2455 6.36333 34.95 7.10005C35.6504 7.83182 36.2504 8.69848 36.75 9.70004C37.1011 10.3585 37.4011 11.0752 37.65 11.85C37.6858 11.9491 37.7191 12.0491 37.75 12.15ZM20.9 12.65C20.2 12.5167 19.4666 12.45 18.7 12.45V14.35C19.1666 14.35 19.6333 14.4 20.1 14.5C20.5666 14.5667 20.9666 14.7167 21.3 14.95C21.6666 15.15 21.95 15.4334 22.15 15.8C22.3833 16.1667 22.5 16.6334 22.5 17.2C22.5 17.8334 22.4 18.4167 22.2 18.95C22.0333 19.5167 21.8 20.05 21.5 20.55C21.2 21.0834 20.8833 21.6167 20.55 22.15C20.2166 22.65 19.9 23.15 19.6 23.65C19.3333 24.1834 19.1 24.7 18.9 25.2C18.8053 25.4366 18.722 25.67 18.65 25.9C18.6166 26.1857 18.6 26.4691 18.6 26.75C18.6 27.3834 18.7 27.9 18.9 28.3C19.1 28.7 19.3666 29.0167 19.7 29.25C20 29.45 20.3833 29.6 20.85 29.7C20.9162 29.7142 20.9829 29.7309 21.05 29.75C21.1483 29.7663 21.2483 29.783 21.35 29.8C21.6587 29.8334 21.9753 29.85 22.3 29.85H24.2V27.95H22.65C22.3035 27.95 21.9868 27.9 21.7 27.8C21.5793 27.7615 21.4626 27.7115 21.35 27.65C20.95 27.45 20.75 27.05 20.75 26.45C20.75 26.2885 20.7833 26.1051 20.85 25.9C20.891 25.7513 20.9576 25.5847 21.05 25.4C21.25 24.9667 21.4833 24.5167 21.75 24.05C22.05 23.55 22.3666 23.0167 22.7 22.45C23.0333 21.9167 23.3333 21.35 23.6 20.75C23.9 20.15 24.15 19.55 24.35 18.95C24.5166 18.3167 24.6 17.7 24.6 17.1C24.6 16.2334 24.4333 15.4834 24.1 14.85C23.7666 14.25 23.3333 13.7834 22.8 13.45C22.2666 13.0834 21.6333 12.8167 20.9 12.65Z" fill="black"/>
    <path d="M6.4502 25.9C7.06113 26.7087 7.76113 27.4588 8.5502 28.15C10.7869 29.3567 12.8702 30.7233 14.8002 32.25C17.2454 34.1778 19.4454 36.3611 21.4002 38.8C23.2958 36.3576 25.3624 34.1742 27.6002 32.25C29.4854 30.6554 31.4853 29.2387 33.6002 28C34.2813 27.3516 34.8813 26.6516 35.4002 25.9H24.8502C24.1699 25.9039 23.5699 25.9039 23.0502 25.9C23.0335 25.9159 23.0002 25.9159 22.9502 25.9H20.8502C20.7835 26.1051 20.7502 26.2884 20.7502 26.45C20.7502 27.05 20.9502 27.45 21.3502 27.65C21.4628 27.7115 21.5795 27.7615 21.7002 27.8C21.987 27.9 22.3037 27.95 22.6502 27.95H24.2002V29.85H22.3002C21.9756 29.85 21.6589 29.8334 21.3502 29.8C21.2514 29.8 21.1514 29.8 21.0502 29.8V29.75C20.9831 29.7309 20.9165 29.7142 20.8502 29.7C20.3835 29.6 20.0002 29.45 19.7002 29.25C19.3669 29.0167 19.1002 28.7 18.9002 28.3C18.7002 27.9 18.6002 27.3834 18.6002 26.75C18.6002 26.469 18.6169 26.1857 18.6502 25.9H6.4502Z" fill="#F78C8C"/>
</svg>
