<svg width="42" height="43" viewBox="0 0 42 43" fill="none"
    xmlns="http://www.w3.org/2000/svg">
    <path d="M39.35 7.09992C39.0093 6.28248 38.6593 5.64914 38.3 5.19992C37.5666 4.29992 36.9666 3.71659 36.5 3.44992C36 3.14992 35.5333 2.86659 35.1 2.59992C34.6666 2.29992 33.6 1.88326 31.9 1.34992C30.1666 0.716589 28.1333 0.783256 25.8 1.54992C24 2.11659 22.4666 3.08326 21.2 4.44992C19.7 2.91659 17.6 1.76659 14.9 0.999923C12.5133 0.656693 9.66325 1.25669 6.34997 2.79992C3.06742 4.34693 1.06742 7.99693 0.349972 13.7499V16.1999C0.316638 22.5999 2.5833 27.3666 7.14997 30.4999C13.1833 34.1666 17.85 38.1166 21.15 42.3499C25.2833 37.0833 30.0833 32.7666 35.55 29.3999C38.0166 27.5333 39.6 25.4833 40.3 23.2499C40.9333 21.0499 41.2666 19.3166 41.3 18.0499C41.3 16.7833 41.2833 15.4166 41.25 13.9499C41.25 13.6499 41.25 13.3833 41.25 13.1499C41.25 12.8543 40.9333 11.7043 40.3 9.69992C40.3093 9.66399 40.3093 9.63065 40.3 9.59992C39.9927 8.63195 39.676 7.79862 39.35 7.09992ZM37.9 12.7499C38.0372 13.1836 38.1539 13.6336 38.25 14.0999C38.2728 14.4718 38.2894 14.8385 38.3 15.1999C38.3209 16.1709 38.2876 17.1042 38.2 17.9999C38.1165 18.8685 37.9832 19.7019 37.8 20.4999C37.1079 23.4932 35.7079 25.9932 33.6 27.9999C28.9333 30.7333 24.8666 34.3333 21.4 38.7999C17.9 34.4333 13.6166 30.8833 8.54997 28.1499C6.22159 26.1101 4.68825 23.5601 3.94997 20.4999C3.75232 19.7015 3.60232 18.8682 3.49997 17.9999C3.43773 17.1042 3.42107 16.1709 3.44997 15.1999C3.46182 14.8872 3.47849 14.5705 3.49997 14.2499C3.61911 13.7295 3.75245 13.2295 3.89997 12.7499C3.96469 12.5463 4.03135 12.3463 4.09997 12.1499C4.40518 11.277 4.75518 10.477 5.14997 9.74992C5.75336 8.72115 6.45336 7.83781 7.24997 7.09992C7.98213 6.4313 8.7988 5.8813 9.69997 5.44992C11.7 4.54992 13.6666 4.24992 15.6 4.54992C17.7263 5.19823 19.3929 6.04823 20.6 7.09992C20.9593 7.40018 21.276 7.71685 21.55 8.04992C21.6605 7.8925 21.7772 7.7425 21.9 7.59992C22.0431 7.4287 22.1931 7.26203 22.35 7.09992C23.4808 5.98091 25.0808 5.08091 27.15 4.39992C28.9166 4.09992 30.7166 4.39992 32.55 5.29992C33.4455 5.7632 34.2455 6.3632 34.95 7.09992C35.6504 7.83169 36.2504 8.69836 36.75 9.69992C37.1439 10.4425 37.4772 11.2592 37.75 12.1499C37.8113 12.3464 37.8613 12.5464 37.9 12.7499ZM23.9 14.4499V12.5999H18.05V18.9999H18.1L19.4 19.8499C19.5666 19.6499 19.7666 19.4666 20 19.2999C20.2333 19.1666 20.5 19.0999 20.8 19.0999C21.2666 19.0999 21.6333 19.2833 21.9 19.6499C22.1666 19.9833 22.3666 20.3833 22.5 20.8499C22.6333 21.3499 22.7 21.8499 22.7 22.3499C22.7333 22.8833 22.75 23.3166 22.75 23.6499C22.75 24.0166 22.7333 24.4333 22.7 24.8999C22.7 25.3999 22.6166 25.8499 22.45 26.2499C22.3166 26.6833 22.1166 27.0333 21.85 27.2999C21.55 27.5999 21.1333 27.7499 20.6 27.7499V29.7499C21.5333 29.7499 22.3 29.5499 22.9 29.1499C23.5 28.7833 23.9666 28.2999 24.3 27.6999C24.6666 27.1333 24.9166 26.4666 25.05 25.6999C25.1833 24.9666 25.25 24.1999 25.25 23.3999C25.25 22.7666 25.2 22.0833 25.1 21.3499C25 20.6166 24.8 19.9499 24.5 19.3499C24.2333 18.7166 23.8333 18.1999 23.3 17.7999C22.8 17.3666 22.15 17.1499 21.35 17.1499C20.8833 17.1499 20.4 17.2499 19.9 17.4499V14.4499H23.9Z" fill="black" />
    <path d="M38.2503 14.0999C38.1542 13.6336 38.0375 13.1836 37.9003 12.7499C37.8616 12.5463 37.8116 12.3463 37.7503 12.1499C37.4775 11.2591 37.1442 10.4424 36.7503 9.69985C36.2507 8.69829 35.6507 7.83162 34.9503 7.09985C34.2458 6.36314 33.4458 5.76314 32.5503 5.29985C30.7169 4.39985 28.9169 4.09985 27.1503 4.39985C25.0811 5.08084 23.4811 5.98084 22.3503 7.09985C22.1934 7.26196 22.0434 7.42863 21.9003 7.59985C21.7775 7.74243 21.6608 7.89243 21.5503 8.04985C21.2763 7.71678 20.9597 7.40011 20.6003 7.09985C19.3932 6.04816 17.7266 5.19816 15.6003 4.54985C13.6669 4.24985 11.7003 4.54985 9.70027 5.44985C8.7991 5.88123 7.98244 6.43123 7.25027 7.09985C6.45366 7.83774 5.75366 8.72108 5.15027 9.74985C4.75548 10.4769 4.40548 11.2769 4.10027 12.1499C4.03165 12.3462 3.96499 12.5462 3.90027 12.7499C3.75275 13.2294 3.61942 13.7294 3.50027 14.2499C3.47879 14.5704 3.46212 14.8871 3.45027 15.1999C3.42137 16.1708 3.43804 17.1042 3.50027 17.9999C3.60262 18.8681 3.75262 19.7014 3.95027 20.4999C4.68856 23.56 6.22189 26.11 8.55027 28.1499C13.6169 30.8832 17.9003 34.4332 21.4003 38.7999C24.8669 34.3332 28.9336 30.7332 33.6003 27.9999C35.7082 25.9931 37.1082 23.4931 37.8003 20.4999C37.9835 19.7018 38.1168 18.8685 38.2003 17.9999C38.2879 17.1042 38.3212 16.1708 38.3003 15.1999C38.2897 14.8384 38.2731 14.4717 38.2503 14.0999ZM23.9003 12.5999V14.4499H19.9003V17.4499C20.4003 17.2499 20.8836 17.1499 21.3503 17.1499C22.1503 17.1499 22.8003 17.3665 23.3003 17.7999C23.8336 18.1999 24.2336 18.7165 24.5003 19.3499C24.8003 19.9499 25.0003 20.6165 25.1003 21.3499C25.2003 22.0832 25.2503 22.7665 25.2503 23.3999C25.2503 24.1999 25.1836 24.9665 25.0503 25.6999C24.9169 26.4665 24.6669 27.1332 24.3003 27.6999C23.9669 28.2999 23.5003 28.7832 22.9003 29.1499C22.3003 29.5499 21.5336 29.7499 20.6003 29.7499V27.7499C21.1336 27.7499 21.5503 27.5999 21.8503 27.2999C22.1169 27.0332 22.3169 26.6832 22.4503 26.2499C22.6169 25.8499 22.7003 25.3999 22.7003 24.8999C22.7336 24.4332 22.7503 24.0165 22.7503 23.6499C22.7503 23.3165 22.7336 22.8832 22.7003 22.3499C22.7003 21.8499 22.6336 21.3499 22.5003 20.8499C22.3669 20.3832 22.1669 19.9832 21.9003 19.6499C21.6336 19.2832 21.2669 19.0999 20.8003 19.0999C20.5003 19.0999 20.2336 19.1665 20.0003 19.2999C19.7669 19.4665 19.5669 19.6499 19.4003 19.8499L18.1003 18.9999H18.0503V12.5999H23.9003Z" fill="#F78C8C" />
</svg>
