<svg width="42" height="43" viewBox="0 0 42 43" fill="none"
    xmlns="http://www.w3.org/2000/svg">
    <path d="M39.35 7.10005C39.0093 6.2826 38.6593 5.64926 38.3 5.20004C37.5666 4.30004 36.9666 3.71671 36.5 3.45004C36 3.15004 35.5333 2.86671 35.1 2.60004C34.6666 2.30004 33.6 1.88338 31.9 1.35004C30.1666 0.716711 28.1333 0.783378 25.8 1.55004C24 2.11671 22.4666 3.08338 21.2 4.45004C19.7 2.91671 17.6 1.76671 14.9 1.00004C12.5132 0.656815 9.66324 1.25682 6.34996 2.80004C3.44853 4.1684 1.54853 7.18507 0.649961 11.85C0.532773 12.4521 0.432773 13.0855 0.349961 13.75V16.2C0.344882 17.1714 0.394882 18.1047 0.499961 19C0.79306 21.6223 1.54306 23.9223 2.74996 25.9C3.83759 27.7003 5.30426 29.2336 7.14996 30.5C13.1833 34.1667 17.85 38.1167 21.15 42.35C25.2833 37.0834 30.0833 32.7667 35.55 29.4C38.0166 27.5334 39.6 25.4834 40.3 23.25C40.786 21.5615 41.086 20.1448 41.2 19C41.2588 18.6612 41.2921 18.3446 41.3 18.05C41.3 16.7834 41.2833 15.4167 41.25 13.95C41.25 13.65 41.25 13.3834 41.25 13.15C41.25 12.8545 40.9333 11.7045 40.3 9.70004C40.3093 9.66411 40.3093 9.63077 40.3 9.60005C39.9927 8.63208 39.676 7.79874 39.35 7.10005ZM37.65 11.85C37.6858 11.9491 37.7191 12.0491 37.75 12.15C37.8113 12.3465 37.8613 12.5465 37.9 12.75C38.0372 13.1838 38.1539 13.6338 38.25 14.1C38.2727 14.4719 38.2894 14.8386 38.3 15.2C38.3209 16.171 38.2876 17.1043 38.2 18C38.1674 18.3388 38.1174 18.6722 38.05 19C37.995 19.5133 37.9117 20.0133 37.8 20.5C37.3315 22.5261 36.5315 24.3261 35.4 25.9C34.8811 26.6516 34.2811 27.3516 33.6 28C31.4851 29.2387 29.4851 30.6554 27.6 32.25C25.3622 34.1743 23.2955 36.3576 21.4 38.8C19.4451 36.3611 17.2451 34.1778 14.8 32.25C12.87 30.7234 10.7867 29.3567 8.54996 28.15C7.7609 27.4588 7.0609 26.7088 6.44996 25.9C5.27131 24.3231 4.43798 22.5231 3.94996 20.5C3.82939 20.0131 3.72939 19.5131 3.64996 19C3.60009 18.672 3.55009 18.3387 3.49996 18C3.43772 17.1043 3.42105 16.171 3.44996 15.2C3.46181 14.8873 3.47848 14.5706 3.49996 14.25C3.6191 13.7296 3.75243 13.2296 3.89996 12.75C3.96467 12.5464 4.03134 12.3464 4.09996 12.15C4.13525 12.0491 4.16858 11.9491 4.19996 11.85C4.48616 11.093 4.80282 10.393 5.14996 9.75004C5.75335 8.72127 6.45335 7.83794 7.24996 7.10005C7.98212 6.43143 8.79879 5.88142 9.69996 5.45004C11.7 4.55004 13.6666 4.25004 15.6 4.55004C17.7263 5.19835 19.3929 6.04835 20.6 7.10005C20.9593 7.40031 21.276 7.71697 21.55 8.05005C21.6605 7.89262 21.7772 7.74262 21.9 7.60005C22.0431 7.42882 22.1931 7.26215 22.35 7.10005C23.4808 5.98103 25.0808 5.08103 27.15 4.40004C28.9166 4.10004 30.7166 4.40004 32.55 5.30005C33.4455 5.76333 34.2455 6.36333 34.95 7.10005C35.6504 7.83182 36.2504 8.69848 36.75 9.70004C37.1011 10.3585 37.4011 11.0752 37.65 11.85ZM23.5 12.15L23.45 12.3L17.25 27.2H22.4V29.7H24.5V27.2H26.15V25.35H24.5V12.15H23.5ZM22.35 19.75V20.4V25.35H20.15L22.2 20.05L22.35 19.75Z" fill="black"/>
    <path d="M37.7503 12.1501C37.7194 12.0492 37.6861 11.9492 37.6503 11.8501H4.20027C4.16889 11.9492 4.13556 12.0492 4.10027 12.1501C4.03165 12.3465 3.96499 12.5465 3.90027 12.7501C3.75275 13.2297 3.61942 13.7297 3.50027 14.2501C3.47879 14.5707 3.46212 14.8873 3.45027 15.2001C3.42137 16.1711 3.43804 17.1044 3.50027 18.0001C3.5504 18.3388 3.60041 18.6721 3.65027 19.0001C3.7297 19.5131 3.8297 20.0131 3.95027 20.5001C4.4383 22.5231 5.27163 24.3231 6.45027 25.9001C7.06121 26.7088 7.76121 27.4588 8.55027 28.1501C10.787 29.3567 12.8703 30.7234 14.8003 32.2501C17.2455 34.1778 19.4455 36.3612 21.4003 38.8001C23.2958 36.3576 25.3625 34.1743 27.6003 32.2501C29.4854 30.6554 31.4854 29.2388 33.6003 28.0001C34.2814 27.3517 34.8814 26.6517 35.4003 25.9001C36.5318 24.3261 37.3318 22.5261 37.8003 20.5001C37.912 20.0134 37.9953 19.5134 38.0503 19.0001C38.1177 18.6722 38.1677 18.3389 38.2003 18.0001C38.2879 17.1044 38.3212 16.1711 38.3003 15.2001C38.2897 14.8386 38.2731 14.472 38.2503 14.1001C38.1542 13.6338 38.0375 13.1838 37.9003 12.7501C37.8616 12.5466 37.8116 12.3466 37.7503 12.1501ZM23.4503 12.3001L23.5003 12.1501H24.5003V25.3501H26.1503V27.2001H24.5003V29.7001H22.4003V27.2001H17.2503L23.4503 12.3001ZM22.3503 20.4001C22.313 20.2825 22.263 20.1659 22.2003 20.0501L20.1503 25.3501H22.3503V20.4001Z" fill="#F78C8C"/>
</svg>
