<svg width="42" height="43" viewBox="0 0 42 43" fill="none"
    xmlns="http://www.w3.org/2000/svg">
    <path d="M39.35 7.10005C39.0093 6.2826 38.6593 5.64926 38.3 5.20004C37.5666 4.30004 36.9666 3.71671 36.5 3.45004C36 3.15004 35.5333 2.86671 35.1 2.60004C34.6666 2.30004 33.6 1.88338 31.9 1.35004C30.1666 0.716711 28.1333 0.783378 25.8 1.55004C24 2.11671 22.4666 3.08338 21.2 4.45004C19.7 2.91671 17.6 1.76671 14.9 1.00004C12.5132 0.656815 9.66324 1.25682 6.34996 2.80004C3.44853 4.1684 1.54853 7.18507 0.649961 11.85C0.532773 12.4521 0.432773 13.0855 0.349961 13.75V16.2C0.344882 17.1714 0.394882 18.1047 0.499961 19C0.79306 21.6223 1.54306 23.9223 2.74996 25.9C3.83759 27.7003 5.30426 29.2336 7.14996 30.5C13.1833 34.1667 17.85 38.1167 21.15 42.35C25.2833 37.0834 30.0833 32.7667 35.55 29.4C38.0166 27.5334 39.6 25.4834 40.3 23.25C40.786 21.5615 41.086 20.1448 41.2 19C41.2588 18.6612 41.2921 18.3446 41.3 18.05C41.3 16.7834 41.2833 15.4167 41.25 13.95C41.25 13.65 41.25 13.3834 41.25 13.15C41.25 12.8545 40.9333 11.7045 40.3 9.70004C40.3093 9.66411 40.3093 9.63077 40.3 9.60005C39.9927 8.63208 39.676 7.79874 39.35 7.10005ZM37.75 12.15C37.8113 12.3465 37.8613 12.5465 37.9 12.75C38.0372 13.1838 38.1539 13.6338 38.25 14.1C38.2727 14.4719 38.2894 14.8386 38.3 15.2C38.3209 16.171 38.2876 17.1043 38.2 18C38.1674 18.3388 38.1174 18.6722 38.05 19C37.995 19.5133 37.9117 20.0133 37.8 20.5C37.3315 22.5261 36.5315 24.3261 35.4 25.9C34.8811 26.6516 34.2811 27.3516 33.6 28C31.4851 29.2387 29.4851 30.6554 27.6 32.25C25.3622 34.1743 23.2955 36.3576 21.4 38.8C19.4451 36.3611 17.2451 34.1778 14.8 32.25C12.87 30.7234 10.7867 29.3567 8.54996 28.15C7.7609 27.4588 7.0609 26.7088 6.44996 25.9C5.27131 24.3231 4.43798 22.5231 3.94996 20.5C3.82939 20.0131 3.72939 19.5131 3.64996 19C3.60009 18.672 3.55009 18.3387 3.49996 18C3.43772 17.1043 3.42105 16.171 3.44996 15.2C3.46181 14.8873 3.47848 14.5706 3.49996 14.25C3.6191 13.7296 3.75243 13.2296 3.89996 12.75C3.96467 12.5464 4.03134 12.3464 4.09996 12.15C4.13525 12.0491 4.16858 11.9491 4.19996 11.85C4.48616 11.093 4.80282 10.393 5.14996 9.75004C5.75335 8.72127 6.45335 7.83794 7.24996 7.10005C7.98212 6.43143 8.79879 5.88142 9.69996 5.45004C11.7 4.55004 13.6666 4.25004 15.6 4.55004C17.7263 5.19835 19.3929 6.04835 20.6 7.10005C20.9593 7.40031 21.276 7.71697 21.55 8.05005C21.6605 7.89262 21.7772 7.74262 21.9 7.60005C22.0431 7.42882 22.1931 7.26215 22.35 7.10005C23.4808 5.98103 25.0808 5.08103 27.15 4.40004C28.9166 4.10004 30.7166 4.40004 32.55 5.30005C33.4455 5.76333 34.2455 6.36333 34.95 7.10005C35.6504 7.83182 36.2504 8.69848 36.75 9.70004C37.1011 10.3585 37.4011 11.0752 37.65 11.85C37.6858 11.9491 37.7191 12.0491 37.75 12.15ZM22.65 13H20.55V30.05H22.65V13Z" fill="black"/>
    <path d="M21.3998 38.8C23.2954 36.3576 25.362 34.1742 27.5998 32.25H14.7998C17.245 34.1777 19.445 36.3611 21.3998 38.8Z" fill="#F78C8C"/>
</svg>
