<svg width="36" height="35" viewBox="0 0 36 35" fill="none"
    xmlns="http://www.w3.org/2000/svg">
    <path d="M24.15 0.399976C21.7812 1.17953 20.0312 2.2462 18.9 3.59998C18.7772 3.74255 18.6605 3.89255 18.55 4.04998C17.3166 2.54998 15.3333 1.38331 12.6 0.549976C10.6666 0.249976 8.69998 0.549976 6.69998 1.44998C3.56665 2.94998 1.49998 5.88331 0.499983 10.25C0.0999828 16.2166 1.78332 20.85 5.54998 24.15C10.6166 26.8833 14.9 30.4333 18.4 34.8C21.8666 30.3333 25.9333 26.7333 30.6 24C34.0666 20.7 35.6166 16.0666 35.25 10.1C34.35 5.73331 32.45 2.79998 29.55 1.29998C27.7166 0.399976 25.9166 0.0999755 24.15 0.399976ZM22.4 7.34998C23.1 8.11664 23.3833 9.03331 23.25 10.1C23.15 11.1333 22.6666 11.9666 21.8 12.6C21.2 13.1333 20.6667 13.4166 20.2 13.45L19.55 15.4L16.1 15.1L15.8 13.05C15.2333 12.7833 14.75 12.4 14.35 11.9C13.7167 11.1333 13.45 10.2333 13.55 9.19998C13.6833 8.13331 14.15 7.28331 14.95 6.64998C15.75 5.98331 16.6833 5.69998 17.75 5.79998L19.95 5.99998C20.9833 6.09998 21.8 6.54998 22.4 7.34998ZM23.05 15.8C22.7166 15.2 22.8 14.6666 23.3 14.2C23.7666 13.9666 24.2333 14 24.7 14.3C24.9333 14.8333 24.9 15.3166 24.6 15.75L25.9 15.8C26.2666 16.6 26.2333 17.2666 25.8 17.8C25.2666 18.2333 24.7167 18.2 24.15 17.7L13.3 23.5C13.8333 24.3666 13.8 24.95 13.2 25.25C12.6 25.5833 12.0833 25.5666 11.65 25.2C11.35 24.7333 11.3667 24.2833 11.7 23.85C10.9333 23.8166 10.3333 23.5333 9.89998 23C9.83332 22 10.1833 21.5666 10.95 21.7C11.5167 21.7333 11.8833 22.0833 12.05 22.75L23.05 15.8ZM9.99998 16.6C10.3666 16.1333 10.7833 15.9333 11.25 16L10.7 14.8C11.2 14.1 11.7833 13.8 12.45 13.9C13.0833 14.1666 13.3166 14.6666 13.15 15.4L17.75 18.35L16.05 19.4L12.05 17.3C11.7166 17.8666 11.2333 18.05 10.6 17.85C10.1666 17.55 9.96665 17.1333 9.99998 16.6ZM24.7 23.05C25.1 23.7833 25.1666 24.4666 24.9 25.1C24.1 25.6666 23.5666 25.6 23.3 24.9C23.0333 24.3333 23.1333 23.8 23.6 23.3L19.1 21.05L20.35 20.4L23.65 21.9C24.1166 21 24.6333 20.75 25.2 21.15C25.7667 21.45 26 21.8833 25.9 22.45C25.7 22.9833 25.3 23.1833 24.7 23.05ZM19.05 14.15L18.15 14.1L18.1 14.7L18.95 14.75L19.05 14.15ZM16.65 13.95L16.7 14.55L17.4 14.6V14L16.65 13.95ZM17.35 11.75L18.45 11.85L18.05 9.94998L17.35 11.75ZM15.65 9.39998C15.8166 9.59998 16.0166 9.71664 16.25 9.74998C16.5166 9.78331 16.7333 9.69998 16.9 9.49998C17.1 9.39998 17.2167 9.21664 17.25 8.94998C17.2833 8.71664 17.2 8.48331 17 8.24998C16.9 8.08331 16.7167 7.98331 16.45 7.94998C16.2167 7.91664 16 7.98331 15.8 8.14998C15.6 8.31664 15.4833 8.51664 15.45 8.74998C15.4166 9.01664 15.4833 9.23331 15.65 9.39998ZM20.25 8.19998C20.0166 8.16664 19.7833 8.24998 19.55 8.44998C19.3166 8.58331 19.2 8.78331 19.2 9.04998C19.1667 9.34998 19.2333 9.59998 19.4 9.79998C19.5666 9.99998 19.7833 10.1166 20.05 10.15C20.3166 10.1833 20.5666 10.1 20.8 9.89998C21 9.76664 21.1166 9.54998 21.15 9.24998C21.1833 8.98331 21.1166 8.74998 20.95 8.54998C20.75 8.34998 20.5166 8.23331 20.25 8.19998Z" fill="#9A9769"/>
</svg>
