<svg width="47" height="48" viewBox="0 0 47 48" fill="none" xmlns="http://www.w3.org/2000/svg">
	<path d="M46.7815 15.1938C46.7815 14.8563 46.7815 14.5563 46.7815 14.2938C46.7815 13.9563 46.4252 12.625 45.7127 10.3C44.9627 7.93754 44.2127 6.28753 43.4627 5.35003C42.6377 4.33753 41.9627 3.68128 41.4377 3.38128C40.8752 3.04378 40.3502 2.72503 39.8627 2.42503C39.3752 2.08753 38.1752 1.61878 36.2627 1.01878C34.3127 0.306285 32.0252 0.381285 29.4002 1.24379C27.3752 1.88129 25.6502 2.96878 24.2252 4.50628C22.5377 2.78128 20.1752 1.48753 17.1377 0.625035C14.4527 0.238902 11.2464 0.913902 7.51896 2.65004C3.82609 4.39042 1.57609 8.49667 0.768962 14.9688V17.725C0.731462 24.925 3.28146 30.2875 8.41896 33.8125C15.2065 37.9375 20.4565 42.3813 24.169 47.1438C28.819 41.2188 34.219 36.3625 40.369 32.575C43.144 30.475 44.9252 28.1688 45.7127 25.6563C46.4252 23.1813 46.8002 21.2313 46.8377 19.8063C46.8377 18.3813 46.819 16.8438 46.7815 15.1938ZM24.619 8.55629C24.7433 8.37919 24.8746 8.21044 25.0127 8.05004C26.2854 6.52704 28.2541 5.32704 30.919 4.45003C32.9065 4.11253 34.9315 4.45004 36.994 5.46254C40.2565 7.15004 42.394 10.45 43.4065 15.3625C43.819 22.075 42.0752 27.2875 38.1752 31C32.9252 34.075 28.3502 38.125 24.4502 43.15C20.5127 38.2375 15.694 34.2438 9.99396 31.1688C5.75646 27.4563 3.86271 22.2438 4.31271 15.5313C5.43771 10.6188 7.76271 7.31878 11.2877 5.63128C13.5377 4.61878 15.7502 4.28129 17.9252 4.61878C21.0002 5.55628 23.2315 6.86879 24.619 8.55629ZM37.1627 7.99379C35.7134 6.77079 33.8196 6.32079 31.4815 6.64379C29.1755 7.1972 27.8255 8.22845 27.4315 9.73754C29.0696 8.61854 30.9258 8.37479 33.0002 9.00628C34.976 9.49964 36.5135 10.8496 37.6127 13.0563C38.7581 15.7405 39.2643 18.1405 39.1315 20.2563C39.0997 23.8485 38.5184 26.586 37.3877 28.4688C39.9587 26.2591 41.1774 22.3591 41.044 16.7688C40.603 12.6464 39.3093 9.72142 37.1627 7.99379Z" fill="black" />
	<path d="M25.0128 8.05005C24.8747 8.21045 24.7435 8.3792 24.6191 8.5563C23.2316 6.8688 21.0003 5.5563 17.9253 4.6188C15.7503 4.2813 13.5378 4.6188 11.2878 5.6313C7.76285 7.3188 5.43785 10.6188 4.31285 15.5313C3.86285 22.2438 5.7566 27.4563 9.9941 31.1688C15.6941 34.2438 20.5128 38.2375 24.4503 43.1501C28.3503 38.125 32.9253 34.075 38.1753 31C42.0753 27.2875 43.8191 22.0751 43.4066 15.3625C42.3941 10.45 40.2566 7.15005 36.9941 5.46255C34.9316 4.45005 32.9066 4.11255 30.9191 4.45005C28.2543 5.32705 26.2855 6.52705 25.0128 8.05005ZM31.4816 6.6438C33.8198 6.3208 35.7135 6.7708 37.1628 7.9938C39.3094 9.72144 40.6032 12.6464 41.0441 16.7688C41.1775 22.3591 39.9588 26.2591 37.3878 28.4688C38.5186 26.586 39.0998 23.8485 39.1316 20.2563C39.2645 18.1405 38.7582 15.7405 37.6128 13.0563C36.5136 10.8497 34.9761 9.49966 33.0003 9.0063C30.926 8.3748 29.0697 8.61856 27.4316 9.73755C27.8256 8.22847 29.1756 7.19722 31.4816 6.6438Z" fill="#E5E5E5" />
</svg>
