<svg width="42" height="43" viewBox="0 0 42 43" fill="none"
    xmlns="http://www.w3.org/2000/svg">
    <path d="M39.35 7.10005C39.0093 6.2826 38.6593 5.64926 38.3 5.20004C37.5666 4.30004 36.9666 3.71671 36.5 3.45004C36 3.15004 35.5333 2.86671 35.1 2.60004C34.6666 2.30004 33.6 1.88338 31.9 1.35004C30.1666 0.716711 28.1333 0.783378 25.8 1.55004C24 2.11671 22.4666 3.08338 21.2 4.45004C19.7 2.91671 17.6 1.76671 14.9 1.00004C12.5132 0.656815 9.66324 1.25682 6.34996 2.80004C3.44853 4.1684 1.54853 7.18507 0.649961 11.85C0.532773 12.4521 0.432773 13.0855 0.349961 13.75V16.2C0.344882 17.1714 0.394882 18.1047 0.499961 19C0.79306 21.6223 1.54306 23.9223 2.74996 25.9C3.83759 27.7003 5.30426 29.2336 7.14996 30.5C13.1833 34.1667 17.85 38.1167 21.15 42.35C25.2833 37.0834 30.0833 32.7667 35.55 29.4C38.0166 27.5334 39.6 25.4834 40.3 23.25C40.786 21.5615 41.086 20.1448 41.2 19C41.2588 18.6612 41.2921 18.3446 41.3 18.05C41.3 16.7834 41.2833 15.4167 41.25 13.95C41.25 13.65 41.25 13.3834 41.25 13.15C41.25 12.8545 40.9333 11.7045 40.3 9.70004C40.3093 9.66411 40.3093 9.63077 40.3 9.60005C39.9927 8.63208 39.676 7.79874 39.35 7.10005ZM37.75 12.15C37.8113 12.3465 37.8613 12.5465 37.9 12.75C38.0372 13.1838 38.1539 13.6338 38.25 14.1C38.2727 14.4719 38.2894 14.8386 38.3 15.2C38.3209 16.171 38.2876 17.1043 38.2 18C38.1674 18.3388 38.1174 18.6722 38.05 19C37.995 19.5133 37.9117 20.0133 37.8 20.5C37.3315 22.5261 36.5315 24.3261 35.4 25.9C34.8811 26.6516 34.2811 27.3516 33.6 28C31.4851 29.2387 29.4851 30.6554 27.6 32.25C25.3622 34.1743 23.2955 36.3576 21.4 38.8C19.4451 36.3611 17.2451 34.1778 14.8 32.25C12.87 30.7234 10.7867 29.3567 8.54996 28.15C7.7609 27.4588 7.0609 26.7088 6.44996 25.9C5.27131 24.3231 4.43798 22.5231 3.94996 20.5C3.82939 20.0131 3.72939 19.5131 3.64996 19C3.60009 18.672 3.55009 18.3387 3.49996 18C3.43772 17.1043 3.42105 16.171 3.44996 15.2C3.46181 14.8873 3.47848 14.5706 3.49996 14.25C3.6191 13.7296 3.75243 13.2296 3.89996 12.75C3.96467 12.5464 4.03134 12.3464 4.09996 12.15C4.13525 12.0491 4.16858 11.9491 4.19996 11.85C4.48616 11.093 4.80282 10.393 5.14996 9.75004C5.75335 8.72127 6.45335 7.83794 7.24996 7.10005C7.98212 6.43143 8.79879 5.88142 9.69996 5.45004C11.7 4.55004 13.6666 4.25004 15.6 4.55004C17.7263 5.19835 19.3929 6.04835 20.6 7.10005C20.9593 7.40031 21.276 7.71697 21.55 8.05005C21.6605 7.89262 21.7772 7.74262 21.9 7.60005C22.0431 7.42882 22.1931 7.26215 22.35 7.10005C23.4808 5.98103 25.0808 5.08103 27.15 4.40004C28.9166 4.10004 30.7166 4.40005 32.55 5.30005C33.4455 5.76333 34.2455 6.36333 34.95 7.10005C35.6504 7.83182 36.2504 8.69848 36.75 9.70004C37.1011 10.3585 37.4011 11.0752 37.65 11.85C37.6858 11.9491 37.7191 12.0491 37.75 12.15ZM25 12.9V12.4H17.55V14.25H21.75L18.75 19L18.5 19.45L19.8 20.25C19.9714 20.0786 20.1381 19.9286 20.3 19.8C20.3381 19.7857 20.3714 19.7691 20.4 19.75C20.6333 19.6167 20.9 19.55 21.2 19.55C21.6666 19.55 22.0333 19.7 22.3 20C22.5666 20.3334 22.7666 20.7334 22.9 21.2C23.0666 21.6667 23.1666 22.15 23.2 22.65C23.2333 23.1167 23.25 23.5167 23.25 23.85C23.25 24.25 23.2333 24.6834 23.2 25.15C23.1666 25.6167 23.0666 26.05 22.9 26.45C22.7901 26.7799 22.6234 27.0799 22.4 27.35C22.3526 27.3974 22.3026 27.4474 22.25 27.5C21.95 27.7667 21.55 27.9 21.05 27.9V29.8C21.5518 29.8 22.0018 29.7334 22.4 29.6C22.716 29.5289 22.9993 29.4123 23.25 29.25C23.742 28.9606 24.1587 28.5606 24.5 28.05C24.5517 27.9956 24.6017 27.929 24.65 27.85C24.7709 27.6444 24.8709 27.4278 24.95 27.2C25.1438 26.8006 25.2938 26.3672 25.4 25.9C25.4333 25.7167 25.4666 25.5334 25.5 25.35C25.5666 24.8 25.6 24.25 25.6 23.7C25.6 23.1334 25.55 22.5167 25.45 21.85C25.35 21.15 25.1666 20.5 24.9 19.9C24.7908 19.6194 24.6575 19.3528 24.5 19.1C24.4756 19.0705 24.4423 19.0372 24.4 19C24.2476 18.7658 24.0643 18.5491 23.85 18.35C23.3833 17.95 22.7833 17.75 22.05 17.75L25 12.9Z" fill="black"/>
    <path d="M37.8004 20.5C37.9121 20.0133 37.9954 19.5133 38.0504 19H24.5004V19.1C24.6579 19.3527 24.7913 19.6194 24.9004 19.9C25.1671 20.5 25.3504 21.15 25.4504 21.85C25.5504 22.5167 25.6004 23.1333 25.6004 23.7C25.6004 24.25 25.5671 24.8 25.5004 25.35C25.4671 25.5333 25.4337 25.7167 25.4004 25.9C25.2943 26.3672 25.1443 26.8005 24.9504 27.2C24.8714 27.4277 24.7714 27.6444 24.6504 27.85C24.6021 27.9289 24.5521 27.9956 24.5004 28.05C24.1591 28.5605 23.7424 28.9605 23.2504 29.25C22.9997 29.4122 22.7164 29.5289 22.4004 29.6C22.0022 29.7333 21.5522 29.8 21.0504 29.8V27.9C21.5504 27.9 21.9504 27.7667 22.2504 27.5C22.303 27.4474 22.353 27.3974 22.4004 27.35C22.6238 27.0798 22.7905 26.7798 22.9004 26.45C23.0671 26.05 23.1671 25.6167 23.2004 25.15C23.2337 24.6833 23.2504 24.25 23.2504 23.85C23.2504 23.5167 23.2337 23.1167 23.2004 22.65C23.1671 22.15 23.0671 21.6667 22.9004 21.2C22.7671 20.7333 22.5671 20.3333 22.3004 20C22.0337 19.7 21.6671 19.55 21.2004 19.55C20.9004 19.55 20.6337 19.6167 20.4004 19.75C20.3719 19.769 20.3385 19.7857 20.3004 19.8C20.1385 19.9285 19.9719 20.0785 19.8004 20.25L18.5004 19.45L18.7504 19H3.65039C3.72982 19.513 3.82982 20.013 3.95039 20.5C4.43841 22.523 5.27174 24.323 6.45039 25.9C7.06133 26.7087 7.76133 27.4587 8.55039 28.15C10.7871 29.3566 12.8704 30.7233 14.8004 32.25C17.2456 34.1777 19.4456 36.3611 21.4004 38.8C23.296 36.3576 25.3626 34.1742 27.6004 32.25C29.4855 30.6553 31.4855 29.2387 33.6004 28C34.2815 27.3516 34.8815 26.6516 35.4004 25.9C36.5319 24.326 37.3319 22.526 37.8004 20.5Z" fill="#F78C8C"/>
</svg>
