<?xml version="1.0" encoding="UTF-8" standalone="no"?>
<!DOCTYPE svg PUBLIC "-//W3C//DTD SVG 1.1//EN" "http://www.w3.org/Graphics/SVG/1.1/DTD/svg11.dtd">
<svg width="100%" height="100%" viewBox="0 0 72 72" version="1.1" xmlns="http://www.w3.org/2000/svg" xmlns:xlink="http://www.w3.org/1999/xlink" xml:space="preserve" xmlns:serif="http://www.serif.com/" style="fill-rule:evenodd;clip-rule:evenodd;stroke-linejoin:round;stroke-miterlimit:2;">
    <g>
        <g transform="matrix(1.125,0,0,1.125,-4.5,0)">
            <path d="M61.25,0L57.85,0L57.85,47.05L52.15,47.05L52.15,43.75L55.05,43.75L55.05,0L4,0L4,50.95L39,50.95L39,53.75L4,53.75L4,57.95L35.8,57.95L35.8,64L68,64L68,32.8L61.25,32.8L61.25,0ZM51.05,34.65L47.6,34.65L47.6,27.5C40.7,30.867 35.733,36.017 32.7,42.95L45.95,42.95L45.95,45.75L27.35,45.75L28.6,42.95C30.367,39.55 32.583,36.133 35.25,32.7C37.883,29.233 43.15,25.567 51.05,21.7L51.05,34.65ZM47.1,40.25L50.75,40.25L50.75,54.75L45.75,54.75L45.75,51.6L47.1,51.6L47.1,40.25ZM60.35,39.8L59,39.8L59,37.3L63.25,37.3L63.25,59.8L40.45,59.8L40.45,47.3L43.6,47.3L43.6,56.75L60.35,56.75L60.35,39.8ZM53.1,36.55L53.1,39.3L42.7,39.3L42.7,41.75L39.35,41.75L39.35,36.55L53.1,36.55Z" style="fill-opacity:0.75;fill-rule:nonzero;"/>
        </g>
        <g transform="matrix(1.125,0,0,1.125,-4.5,0)">
            <path d="M39,50.95L4,50.95L4,53.75L39,53.75L39,50.95ZM53.1,39.3L53.1,36.55L39.35,36.55L39.35,41.75L42.7,41.75L42.7,39.3L53.1,39.3ZM59,37.3L59,39.8L60.35,39.8L60.35,56.75L43.6,56.75L43.6,47.3L40.45,47.3L40.45,59.8L63.25,59.8L63.25,37.3L59,37.3ZM50.75,40.25L47.1,40.25L47.1,51.6L45.75,51.6L45.75,54.75L50.75,54.75L50.75,40.25ZM47.6,27.5L47.6,34.65L51.05,34.65L51.05,21.7C43.15,25.567 37.883,29.233 35.25,32.7C32.583,36.133 30.367,39.55 28.6,42.95L27.35,45.75L45.95,45.75L45.95,42.95L32.7,42.95C35.733,36.017 40.7,30.867 47.6,27.5ZM57.85,0L55.05,0L55.05,43.75L52.15,43.75L52.15,47.05L57.85,47.05L57.85,0Z" style="fill:rgb(157,158,158);fill-opacity:0.75;fill-rule:nonzero;"/>
        </g>
    </g>
</svg>
