<?xml version="1.0" encoding="UTF-8" standalone="no"?>
<!DOCTYPE svg PUBLIC "-//W3C//DTD SVG 1.1//EN" "http://www.w3.org/Graphics/SVG/1.1/DTD/svg11.dtd">
<svg width="100%" height="100%" viewBox="0 0 72 72" version="1.1" xmlns="http://www.w3.org/2000/svg" xmlns:xlink="http://www.w3.org/1999/xlink" xml:space="preserve" xmlns:serif="http://www.serif.com/" style="fill-rule:evenodd;clip-rule:evenodd;stroke-linejoin:round;stroke-miterlimit:2;">
    <g>
        <g transform="matrix(1.125,0,0,1.125,-4.5,0)">
            <path d="M10.75,64L14.15,64L14.15,16.95L19.85,16.95L19.85,20.25L16.95,20.25L16.95,64L68,64L68,13.05L33,13.05L33,10.25L68,10.25L68,6.05L36.2,6.05L36.2,0L4,0L4,31.2L10.75,31.2L10.75,64ZM20.95,29.35L24.4,29.35L24.4,36.5C31.3,33.133 36.267,27.983 39.3,21.05L26.05,21.05L26.05,18.25L44.65,18.25L43.4,21.05C41.633,24.45 39.417,27.867 36.75,31.3C34.117,34.767 28.85,38.433 20.95,42.3L20.95,29.35ZM24.9,23.75L21.25,23.75L21.25,9.25L26.25,9.25L26.25,12.4L24.9,12.4L24.9,23.75ZM11.65,24.2L13,24.2L13,26.7L8.75,26.7L8.75,4.2L31.55,4.2L31.55,16.7L28.4,16.7L28.4,7.25L11.65,7.25L11.65,24.2ZM18.9,27.45L18.9,24.7L29.3,24.7L29.3,22.25L32.65,22.25L32.65,27.45L18.9,27.45Z" style="fill-opacity:0.75;fill-rule:nonzero;"/>
        </g>
        <g transform="matrix(1.125,0,0,1.125,-4.5,0)">
            <path d="M33,13.05L68,13.05L68,10.25L33,10.25L33,13.05ZM18.9,24.7L18.9,27.45L32.65,27.45L32.65,22.25L29.3,22.25L29.3,24.7L18.9,24.7ZM13,26.7L13,24.2L11.65,24.2L11.65,7.25L28.4,7.25L28.4,16.7L31.55,16.7L31.55,4.2L8.75,4.2L8.75,26.7L13,26.7ZM21.25,23.75L24.9,23.75L24.9,12.4L26.25,12.4L26.25,9.25L21.25,9.25L21.25,23.75ZM24.4,36.5L24.4,29.35L20.95,29.35L20.95,42.3C28.85,38.433 34.117,34.767 36.75,31.3C39.417,27.867 41.633,24.45 43.4,21.05L44.65,18.25L26.05,18.25L26.05,21.05L39.3,21.05C36.267,27.983 31.3,33.133 24.4,36.5ZM14.15,64L16.95,64L16.95,20.25L19.85,20.25L19.85,16.95L14.15,16.95L14.15,64Z" style="fill:rgb(157,158,158);fill-opacity:0.75;fill-rule:nonzero;"/>
        </g>
    </g>
</svg>
