<?xml version="1.0" encoding="UTF-8" standalone="no"?>
<!DOCTYPE svg PUBLIC "-//W3C//DTD SVG 1.1//EN" "http://www.w3.org/Graphics/SVG/1.1/DTD/svg11.dtd">
<svg width="100%" height="100%" viewBox="0 0 72 72" version="1.1" xmlns="http://www.w3.org/2000/svg" xmlns:xlink="http://www.w3.org/1999/xlink" xml:space="preserve" xmlns:serif="http://www.serif.com/" style="fill-rule:evenodd;clip-rule:evenodd;stroke-linejoin:round;stroke-miterlimit:2;">
    <g>
        <g transform="matrix(1.125,0,0,1.125,-4.5,0)">
            <path d="M61.25,64L57.85,64L57.85,16.95L52.15,16.95L52.15,20.25L55.05,20.25L55.05,64L4,64L4,13.05L39,13.05L39,10.25L4,10.25L4,6.05L35.8,6.05L35.8,0L68,0L68,31.2L61.25,31.2L61.25,64ZM51.05,29.35L47.6,29.35L47.6,36.5C40.7,33.133 35.733,27.983 32.7,21.05L45.95,21.05L45.95,18.25L27.35,18.25L28.6,21.05C30.367,24.45 32.583,27.867 35.25,31.3C37.883,34.767 43.15,38.433 51.05,42.3L51.05,29.35ZM47.1,23.75L50.75,23.75L50.75,9.25L45.75,9.25L45.75,12.4L47.1,12.4L47.1,23.75ZM60.35,24.2L59,24.2L59,26.7L63.25,26.7L63.25,4.2L40.45,4.2L40.45,16.7L43.6,16.7L43.6,7.25L60.35,7.25L60.35,24.2ZM53.1,27.45L53.1,24.7L42.7,24.7L42.7,22.25L39.35,22.25L39.35,27.45L53.1,27.45Z" style="fill-opacity:0.75;fill-rule:nonzero;"/>
        </g>
        <g transform="matrix(1.125,0,0,1.125,-4.5,0)">
            <path d="M39,13.05L4,13.05L4,10.25L39,10.25L39,13.05ZM53.1,24.7L53.1,27.45L39.35,27.45L39.35,22.25L42.7,22.25L42.7,24.7L53.1,24.7ZM59,26.7L59,24.2L60.35,24.2L60.35,7.25L43.6,7.25L43.6,16.7L40.45,16.7L40.45,4.2L63.25,4.2L63.25,26.7L59,26.7ZM50.75,23.75L47.1,23.75L47.1,12.4L45.75,12.4L45.75,9.25L50.75,9.25L50.75,23.75ZM47.6,36.5L47.6,29.35L51.05,29.35L51.05,42.3C43.15,38.433 37.883,34.767 35.25,31.3C32.583,27.867 30.367,24.45 28.6,21.05L27.35,18.25L45.95,18.25L45.95,21.05L32.7,21.05C35.733,27.983 40.7,33.133 47.6,36.5ZM57.85,64L55.05,64L55.05,20.25L52.15,20.25L52.15,16.95L57.85,16.95L57.85,64Z" style="fill:rgb(157,158,158);fill-opacity:0.75;fill-rule:nonzero;"/>
        </g>
    </g>
</svg>
