<?xml version="1.0" encoding="UTF-8" standalone="no"?>
<!DOCTYPE svg PUBLIC "-//W3C//DTD SVG 1.1//EN" "http://www.w3.org/Graphics/SVG/1.1/DTD/svg11.dtd">
<svg width="100%" height="100%" viewBox="0 0 72 72" version="1.1" xmlns="http://www.w3.org/2000/svg" xmlns:xlink="http://www.w3.org/1999/xlink" xml:space="preserve" xmlns:serif="http://www.serif.com/" style="fill-rule:evenodd;clip-rule:evenodd;stroke-linejoin:round;stroke-miterlimit:2;">
    <g>
        <g transform="matrix(1.125,0,0,1.125,-4.5,0)">
            <path d="M10.75,0L14.15,0L14.15,47.05L19.85,47.05L19.85,43.75L16.95,43.75L16.95,0L68,0L68,50.95L33,50.95L33,53.75L68,53.75L68,57.95L36.2,57.95L36.2,64L4,64L4,32.8L10.75,32.8L10.75,0ZM20.95,34.65L24.4,34.65L24.4,27.5C31.3,30.867 36.267,36.017 39.3,42.95L26.05,42.95L26.05,45.75L44.65,45.75L43.4,42.95C41.633,39.55 39.417,36.133 36.75,32.7C34.117,29.233 28.85,25.567 20.95,21.7L20.95,34.65ZM24.9,40.25L21.25,40.25L21.25,54.75L26.25,54.75L26.25,51.6L24.9,51.6L24.9,40.25ZM11.65,39.8L13,39.8L13,37.3L8.75,37.3L8.75,59.8L31.55,59.8L31.55,47.3L28.4,47.3L28.4,56.75L11.65,56.75L11.65,39.8ZM18.9,36.55L18.9,39.3L29.3,39.3L29.3,41.75L32.65,41.75L32.65,36.55L18.9,36.55Z" style="fill-opacity:0.75;fill-rule:nonzero;"/>
        </g>
        <g transform="matrix(1.125,0,0,1.125,-4.5,0)">
            <path d="M33,50.95L68,50.95L68,53.75L33,53.75L33,50.95ZM18.9,39.3L18.9,36.55L32.65,36.55L32.65,41.75L29.3,41.75L29.3,39.3L18.9,39.3ZM13,37.3L13,39.8L11.65,39.8L11.65,56.75L28.4,56.75L28.4,47.3L31.55,47.3L31.55,59.8L8.75,59.8L8.75,37.3L13,37.3ZM21.25,40.25L24.9,40.25L24.9,51.6L26.25,51.6L26.25,54.75L21.25,54.75L21.25,40.25ZM24.4,27.5L24.4,34.65L20.95,34.65L20.95,21.7C28.85,25.567 34.117,29.233 36.75,32.7C39.417,36.133 41.633,39.55 43.4,42.95L44.65,45.75L26.05,45.75L26.05,42.95L39.3,42.95C36.267,36.017 31.3,30.867 24.4,27.5ZM14.15,0L16.95,0L16.95,43.75L19.85,43.75L19.85,47.05L14.15,47.05L14.15,0Z" style="fill:rgb(157,158,158);fill-opacity:0.75;fill-rule:nonzero;"/>
        </g>
    </g>
</svg>
