<?xml version="1.0" encoding="UTF-8"?>
<!DOCTYPE svg PUBLIC "-//W3C//DTD SVG 1.1//EN" "http://www.w3.org/Graphics/SVG/1.1/DTD/svg11.dtd">
<!-- Creator: CorelDRAW 2018 (64-Bit) -->
<svg xmlns="http://www.w3.org/2000/svg" xml:space="preserve" width="452px" height="325px" version="1.1" style="shape-rendering:geometricPrecision; text-rendering:geometricPrecision; image-rendering:optimizeQuality; fill-rule:evenodd; clip-rule:evenodd"
viewBox="0 0 45200 32500"
 xmlns:xlink="http://www.w3.org/1999/xlink">
 <defs>
  <style type="text/css">
   <![CDATA[
    .fil1 {fill:#9D9E9E}
    .fil0 {fill:black;fill-opacity:0.800000}
   ]]>
  </style>
 </defs>
 <g id="Слой_x0020_1">
  <metadata id="CorelCorpID_0Corel-Layer"/>
  <polygon class="fil0" points="2503,32070 2503,32484 165,32484 165,30192 646,30192 646,5062 638,2358 158,2360 151,71 2486,64 2487,477 42841,477 42841,62 45178,62 45178,2354 44697,2354 44697,30192 45178,30192 45178,32484 42841,32484 42841,32105 "/>
  <polygon class="fil1" points="43024,215 44961,215 44961,2107 44557,2107 44557,1836 44746,1836 44746,486 43301,486 43301,1247 43024,1247 "/>
  <polygon class="fil1" points="43621,1836 43907,1836 43907,609 43411,609 43411,885 43621,885 "/>
  <polygon class="fil1" points="44118,1924 43233,1924 43233,1718 42958,1718 42958,1924 42958,2152 43233,2152 44118,2152 "/>
  <path class="fil1" d="M43624 2902l0 -641 283 0 0 1064c-582,-233 -1347,-645 -1842,-1706l-2 0 -29 -68c-32,-70 -62,-141 -91,-214l0 0 0 0 0 0 0 0 1531 0 0 282 -1086 0c291,563 694,1002 1236,1283z"/>
  <polygon class="fil1" points="44189,5016 44189,1500 44000,1500 44000,1281 44189,1281 44481,1281 44481,1500 44481,5016 "/>
  <polygon class="fil1" points="2270,217 335,223 341,2112 745,2111 744,1840 555,1841 551,492 1994,488 1996,1248 2273,1247 "/>
  <polygon class="fil1" points="1678,1837 1393,1838 1389,613 1884,612 1885,887 1676,888 "/>
  <polygon class="fil1" points="1182,1927 2067,1924 2066,1719 2340,1718 2341,1923 2341,2152 2067,2152 1183,2155 "/>
  <path class="fil1" d="M1679 2902l-2 -640 -283 1 3 1063c581,-235 1344,-649 1835,-1709l2 0 29 -69c31,-69 61,-141 90,-214l1 0 0 0 0 0 0 0 -1530 4 1 283 1084 -3c-289,563 -689,1002 -1230,1284z"/>
  <polygon class="fil1" points="1120,5015 1110,1503 1300,1503 1299,1284 1109,1284 818,1285 819,1504 829,5016 "/>
  <polygon class="fil1" points="44481,27462 44481,4895 44189,4895 44189,27462 "/>
  <polygon class="fil1" points="1121,27462 1121,4895 829,4895 829,27462 "/>
  <polygon class="fil1" points="2397,868 42878,902 42889,902 42890,629 2401,629 "/>
  <polygon class="fil1" points="43024,32236 44961,32236 44961,30345 44557,30345 44557,30615 44746,30615 44746,31966 43301,31966 43301,31205 43024,31205 "/>
  <polygon class="fil1" points="43621,30615 43907,30615 43907,31842 43411,31842 43411,31566 43621,31566 "/>
  <polygon class="fil1" points="44118,30528 43233,30528 43233,30733 42958,30733 42958,30528 42958,30299 43233,30299 44118,30299 "/>
  <path class="fil1" d="M43624 29549l0 641 283 0 0 -1064c-582,233 -1347,645 -1842,1706l-2 0 -29 68c-32,70 -62,141 -91,215l0 0 0 0 0 0 0 0 1531 0 0 -283 -1086 0c291,-563 694,-1002 1236,-1283z"/>
  <polygon class="fil1" points="44189,27435 44189,30951 44000,30951 44000,31171 44189,31171 44481,31171 44481,30951 44481,27435 "/>
  <polygon class="fil1" points="2286,32236 349,32236 349,30345 753,30345 753,30615 564,30615 564,31966 2009,31966 2009,31205 2286,31205 "/>
  <polygon class="fil1" points="1689,30615 1403,30615 1403,31842 1899,31842 1899,31566 1689,31566 "/>
  <polygon class="fil1" points="1192,30528 2077,30528 2077,30733 2352,30733 2352,30528 2352,30299 2077,30299 1192,30299 "/>
  <path class="fil1" d="M1686 29549l0 641 -283 0 0 -1064c582,233 1348,645 1842,1706l3 0 29 68c31,70 61,141 90,215l1 0 0 0 0 0 0 0 -1532 0 0 -283 1086 0c-291,-563 -693,-1002 -1236,-1283z"/>
  <polygon class="fil1" points="1121,27435 1121,30951 1311,30951 1311,31171 1121,31171 829,31171 829,30951 829,27435 "/>
  <polygon class="fil1" points="2397,31823 42878,31858 42889,31858 42890,31585 2401,31585 "/>
 </g>
</svg>
