<?xml version="1.0" encoding="UTF-8"?>
<!DOCTYPE svg PUBLIC "-//W3C//DTD SVG 1.1//EN" "http://www.w3.org/Graphics/SVG/1.1/DTD/svg11.dtd">
<!-- Creator: CorelDRAW 2018 (64-Bit) -->
<svg xmlns="http://www.w3.org/2000/svg" xml:space="preserve" width="452px" height="602px" version="1.1" style="shape-rendering:geometricPrecision; text-rendering:geometricPrecision; image-rendering:optimizeQuality; fill-rule:evenodd; clip-rule:evenodd"
viewBox="0 0 45200 60200"
 xmlns:xlink="http://www.w3.org/1999/xlink">
 <defs>
  <style type="text/css">
   <![CDATA[
    .str0 {stroke:#5B5B5B;stroke-width:90;stroke-miterlimit:22.9256}
    .fil2 {fill:none}
    .fil1 {fill:#9D9E9E}
    .fil0 {fill:black;fill-opacity:0.800000}
   ]]>
  </style>
 </defs>
 <g id="Слой_x0020_1">
  <metadata id="CorelCorpID_0Corel-Layer"/>
  <polygon class="fil0" points="42799,59698 2460,59663 2460,60077 123,60077 123,57785 604,57785 596,2320 116,2321 109,32 2444,25 2445,438 42799,438 42799,24 45136,24 45136,2315 44655,2315 44655,57785 45136,57785 45136,60077 42799,60077 "/>
  <polygon class="fil1" points="42973,261 44911,261 44911,2153 44506,2153 44506,1882 44695,1882 44695,532 43250,532 43250,1293 42973,1293 "/>
  <polygon class="fil1" points="43571,1882 43856,1882 43856,656 43360,656 43360,931 43571,931 "/>
  <polygon class="fil1" points="44068,1970 43182,1970 43182,1764 42908,1764 42908,1970 42908,2199 43182,2199 44068,2199 "/>
  <path class="fil1" d="M43573 2948l0 -641 283 0 0 1065c-582,-234 -1347,-646 -1842,-1706l-2 0 -29 -69c-32,-69 -62,-141 -91,-214l0 0 0 0 0 0 0 0 1531 0 0 283 -1086 0c292,563 694,1001 1236,1282z"/>
  <polygon class="fil1" points="44139,5063 44139,1546 43949,1546 43949,1327 44139,1327 44430,1327 44430,1546 44430,5063 "/>
  <polygon class="fil1" points="42973,59914 44911,59914 44911,58022 44506,58022 44506,58293 44695,58293 44695,59643 43250,59643 43250,58883 42973,58883 "/>
  <polygon class="fil1" points="43570,58293 43856,58293 43856,59520 43360,59520 43360,59244 43570,59244 "/>
  <polygon class="fil1" points="44068,58205 43182,58205 43182,58411 42908,58411 42908,58205 42908,57977 43182,57977 44068,57977 "/>
  <path class="fil1" d="M43573 57227l0 641 283 0 0 -1064c-582,233 -1347,645 -1842,1706l-2 0 -29 68c-32,70 -62,141 -91,214l0 1 0 0 0 0 0 0 1531 0 0 -283 -1086 0c291,-563 694,-1002 1236,-1283z"/>
  <polygon class="fil1" points="44139,55113 44139,58629 43949,58629 43949,58849 44139,58849 44430,58849 44430,58629 44430,55113 "/>
  <polygon class="fil1" points="2219,263 284,269 290,2158 694,2157 693,1887 505,1887 501,538 1943,534 1945,1294 2222,1293 "/>
  <polygon class="fil1" points="1628,1884 1342,1885 1339,660 1834,658 1834,933 1625,934 "/>
  <polygon class="fil1" points="1131,1973 2016,1970 2015,1765 2289,1764 2290,1969 2291,2198 2017,2199 1132,2201 "/>
  <path class="fil1" d="M1628 2948l-2 -640 -283 1 4 1063c580,-235 1343,-648 1834,-1709l3 0 28 -68c32,-70 62,-142 91,-215l0 0 0 0 0 0 0 0 -1530 4 1 283 1084 -3c-289,563 -689,1002 -1230,1284z"/>
  <polygon class="fil1" points="1069,5062 1059,1550 1249,1549 1248,1330 1059,1331 767,1332 768,1551 778,5063 "/>
  <polygon class="fil1" points="2235,59914 298,59914 298,58022 702,58022 702,58293 514,58293 514,59643 1958,59643 1958,58883 2235,58883 "/>
  <polygon class="fil1" points="1638,58293 1352,58293 1352,59520 1848,59520 1848,59244 1638,59244 "/>
  <polygon class="fil1" points="1141,58205 2027,58205 2027,58411 2301,58411 2301,58205 2301,57977 2027,57977 1141,57977 "/>
  <path class="fil1" d="M1635 57227l0 641 -283 0 0 -1064c582,233 1348,645 1842,1706l3 0 29 68c31,70 61,141 91,214l0 1 0 0 0 0 0 0 -1532 0 0 -283 1086 0c-291,-563 -693,-1002 -1236,-1283z"/>
  <polygon class="fil1" points="1070,55113 1070,58629 1260,58629 1260,58849 1070,58849 778,58849 778,58629 778,55113 "/>
  <polygon class="fil1" points="44430,55117 44430,4941 44139,4941 44139,55117 "/>
  <polygon class="fil1" points="1070,55117 1070,4941 778,4941 778,55117 "/>
  <polygon class="fil1" points="2346,914 42828,949 42839,949 42839,676 2350,676 "/>
  <polygon class="fil1" points="2346,59501 42828,59536 42839,59536 42839,59263 2350,59263 "/>
  
 </g>
</svg>
