<?xml version="1.0" encoding="UTF-8"?>
<!DOCTYPE svg PUBLIC "-//W3C//DTD SVG 1.1//EN" "http://www.w3.org/Graphics/SVG/1.1/DTD/svg11.dtd">
<!-- Creator: CorelDRAW 2018 (64-Bit) -->
<svg xmlns="http://www.w3.org/2000/svg" xml:space="preserve" width="30px" height="30px" version="1.1" style="shape-rendering:geometricPrecision; text-rendering:geometricPrecision; image-rendering:optimizeQuality; fill-rule:evenodd; clip-rule:evenodd"
viewBox="0 0 3000 3000"
 xmlns:xlink="http://www.w3.org/1999/xlink">
 <defs>
  <style type="text/css">
   <![CDATA[
    .fil0 {fill:#B2B3B3}
   ]]>
  </style>
 </defs>
 <g id="Слой_x0020_1">
  <metadata id="CorelCorpID_0Corel-Layer"/>
  <path class="fil0" d="M951 775c11,-6 74,-66 91,-79 16,-13 29,-25 45,-40 15,-14 30,-26 47,-41l523 -459c9,-8 17,-12 22,-22l-1456 0c4,9 205,184 226,201l227 200c13,13 32,27 46,39l229 201z"/>
  <path class="fil0" d="M284 1083c-9,8 -57,48 -62,57l1457 0c-4,-8 -108,-98 -125,-113 -41,-37 -122,-103 -159,-139l-62 -55c-35,-29 -132,-118 -157,-137l-196 172c-9,7 -20,19 -29,23 -12,-6 -207,-184 -225,-195l-442 387z"/>
  <path class="fil0" d="M147 1085c15,-9 21,-18 34,-28l159 -140c11,-9 21,-18 33,-28 10,-9 20,-18 31,-27 7,-5 10,-10 17,-16 7,-6 9,-6 16,-13l221 -196c-10,-14 -107,-94 -128,-114l-367 -323c-5,-4 -10,-7 -16,-11l0 896z"/>
  <path class="fil0" d="M1339 722c13,12 20,16 31,28l352 308c13,11 18,18 33,27l-1 -896 -145 127c-6,5 -11,8 -16,13 -13,12 -18,15 -31,28 -29,27 -65,54 -97,84 -6,6 -10,8 -16,14l-112 98c-10,9 -21,19 -31,27l-62 57 95 85z"/>
 </g>
</svg>
