<?xml version="1.0" encoding="UTF-8"?>
<!DOCTYPE svg PUBLIC "-//W3C//DTD SVG 1.1//EN" "http://www.w3.org/Graphics/SVG/1.1/DTD/svg11.dtd">
<!-- Creator: CorelDRAW 2018 (64-Bit) -->
<svg xmlns="http://www.w3.org/2000/svg" xml:space="preserve" width="30px" height="30px" version="1.1" style="shape-rendering:geometricPrecision; text-rendering:geometricPrecision; image-rendering:optimizeQuality; fill-rule:evenodd; clip-rule:evenodd"
viewBox="0 0 3000 3000"
 xmlns:xlink="http://www.w3.org/1999/xlink">
 <defs>
  <style type="text/css">
   <![CDATA[
    .fil0 {fill:#B2B3B3}
   ]]>
  </style>
 </defs>
 <g id="Слой_x0020_1">
  <metadata id="CorelCorpID_0Corel-Layer"/>
  <path class="fil0" d="M1252 873c-27,-18 -36,-25 -44,-62 5,-2 195,-52 203,-53 -15,56 -99,101 -159,115zm-433 -123c37,3 49,17 85,30 30,10 66,22 101,22 -7,87 -109,93 -186,-52zm-8 -583c-62,-14 -123,-43 -162,-30 -38,13 -5,13 -84,23 -151,19 -359,47 -463,155 -149,153 -96,407 3,567 56,91 151,168 291,168 46,0 12,-36 -2,-51 -90,-105 -113,-145 -113,-276 0,-212 191,-185 309,-185 40,0 18,25 18,53 0,44 53,42 -26,310 -35,119 -145,325 43,281 6,-26 11,-109 97,-132 10,36 59,72 86,99 41,40 67,51 144,51 26,-113 40,-124 185,-124 111,0 90,124 133,124 105,0 158,-100 220,-142 121,65 23,133 124,133 125,0 28,-208 5,-279 -89,-284 -24,-257 -49,-366 92,0 281,-59 337,114 79,244 -226,390 -90,390 136,0 226,-102 281,-187 85,-132 138,-387 4,-539 -21,-23 -37,-36 -62,-53 -77,-52 -186,-64 -280,-83 -38,-7 -61,-12 -93,-21 -81,-21 -72,-14 -80,-44 -56,1 -167,32 -220,44 -42,-62 -103,-89 -168,-115l-12 -5c-2,-1 -5,-2 -6,-3 -48,-24 7,-18 -141,-18 -31,0 -1,12 -61,27 -69,19 -125,49 -168,114z"/>
 </g>
</svg>
