<?xml version="1.0" encoding="UTF-8"?>
<!DOCTYPE svg PUBLIC "-//W3C//DTD SVG 1.1//EN" "http://www.w3.org/Graphics/SVG/1.1/DTD/svg11.dtd">
<!-- Creator: CorelDRAW 2018 (64-Bit) -->
<svg xmlns="http://www.w3.org/2000/svg" xml:space="preserve" width="30px" height="30px" version="1.1" style="shape-rendering:geometricPrecision; text-rendering:geometricPrecision; image-rendering:optimizeQuality; fill-rule:evenodd; clip-rule:evenodd"
viewBox="0 0 3000 3000"
 xmlns:xlink="http://www.w3.org/1999/xlink">
 <defs>
  <style type="text/css">
   <![CDATA[
    .fil0 {fill:#B2B3B3}
   ]]>
  </style>
 </defs>
 <g id="Слой_x0020_1">
  <metadata id="CorelCorpID_0Corel-Layer"/>
  <path class="fil0" d="M2166 941c86,-315 58,-469 6,-780l-579 247 2 281 571 252z"/>
  <path class="fil0" d="M186 941l571 -252 2 -279 -579 -249c-52,311 -80,465 6,780z"/>
  <path class="fil0" d="M974 729c26,28 52,65 104,51 41,-12 73,-51 63,-103 -18,-84 -174,-113 -167,52z"/>
  <path class="fil0" d="M1210 729c26,28 52,65 104,51 40,-12 73,-51 62,-103 -17,-84 -173,-113 -166,52z"/>
  <path class="fil0" d="M974 958c26,28 52,65 104,51 41,-12 73,-51 63,-103 -18,-85 -174,-114 -167,52z"/>
  <path class="fil0" d="M1210 958c26,28 52,65 104,51 40,-12 73,-51 62,-103 -17,-85 -173,-114 -166,52z"/>
  <path class="fil0" d="M974 210c26,27 52,65 104,50 41,-11 73,-51 63,-103 -18,-84 -174,-113 -167,53z"/>
  <path class="fil0" d="M1210 210c26,27 52,65 104,50 40,-11 73,-51 62,-103 -17,-84 -173,-113 -166,53z"/>
  <path class="fil0" d="M974 439c26,27 52,64 104,50 41,-12 73,-51 63,-103 -18,-84 -174,-113 -167,53z"/>
  <path class="fil0" d="M1210 439c26,27 52,64 104,50 40,-12 73,-51 62,-103 -17,-84 -173,-113 -166,53z"/>
 </g>
</svg>
