<?xml version="1.0" encoding="UTF-8"?>
<!DOCTYPE svg PUBLIC "-//W3C//DTD SVG 1.1//EN" "http://www.w3.org/Graphics/SVG/1.1/DTD/svg11.dtd">
<!-- Creator: CorelDRAW 2017 -->
<svg xmlns="http://www.w3.org/2000/svg" xml:space="preserve" width="184.092mm" height="174.646mm" version="1.1" style="shape-rendering:geometricPrecision; text-rendering:geometricPrecision; image-rendering:optimizeQuality; fill-rule:evenodd; clip-rule:evenodd"
viewBox="0 0 5401.28 5124.12"
 xmlns:xlink="http://www.w3.org/1999/xlink">
 <defs>
  <style type="text/css">
   <![CDATA[
    .str0 {stroke:black;stroke-width:11.99;stroke-miterlimit:22.9256;stroke-opacity:0.000000}
    .fil1 {fill:#9D9E9E}
    .fil2 {fill:black;fill-opacity:0.000000}
    .fil0 {fill:black;fill-opacity:0.380000}
   ]]>
  </style>
 </defs>
 <g id="Слой_x0020_1">
  <metadata id="CorelCorpID_0Corel-Layer"/>
  <g id="_2598695646592">
   <polygon class="fil0" points="282.14,5124.12 1.68,5124.12 1.68,4856.41 59.38,4856.41 58.42,270.88 0.84,271.23 -0,4 280.1,2.94 280.22,46.15 5120.94,46.15 5120.94,0 5401.28,0 5401.28,271.59 5343.58,271.59 5343.58,4849.95 5401.28,4849.95 5401.28,5123.79 5120.94,5123.79 5120.94,5083.37 282.14,5077.76 "/>
   <polygon class="fil1" points="5375.25,24.88 5375.25,245.98 5326.78,245.98 5326.78,214.31 5349.45,214.31 5349.45,56.55 5176.12,56.55 5176.12,145.48 5142.89,145.48 5142.89,24.88 "/>
   <polygon class="fil2 str0" points="5375.25,24.88 5375.25,245.98 5326.78,245.98 5326.78,214.31 5349.45,214.31 5349.45,56.55 5176.12,56.55 5176.12,145.48 5142.89,145.48 5142.89,24.88 "/>
   <polygon class="fil1" points="5248.81,214.31 5248.81,70.92 5189.31,70.92 5189.31,103.18 5214.5,103.18 5214.5,214.31 "/>
   <polygon class="fil2 str0" points="5248.81,214.31 5248.81,70.92 5189.31,70.92 5189.31,103.18 5214.5,103.18 5214.5,214.31 "/>
   <polygon class="fil1" points="5167.96,224.6 5167.96,200.52 5134.97,200.52 5134.97,224.6 5134.97,251.24 5167.96,251.24 5274.12,251.24 5274.12,224.6 "/>
   <polygon class="fil2 str0" points="5167.96,224.6 5167.96,200.52 5134.97,200.52 5134.97,224.6 5134.97,251.24 5167.96,251.24 5274.12,251.24 5274.12,224.6 "/>
   <path class="fil1" d="M5214.87 263.98l33.95 0c0,74.56 0,116.04 0,124.34 -69.81,-27.23 -161.58,-75.37 -220.96,-199.36 0,0 -0.12,0 -0.24,0 -2.04,-4.79 -3.24,-7.36 -3.48,-7.95 -3.84,-8.18 -7.44,-16.48 -10.92,-25.01 0,0 0,0 0,0l0 0 0 0 0 0 183.65 0 0 32.95c-78.21,0 -121.64,0 -130.27,0 34.91,65.79 83.25,117.09 148.27,149.93 0,-9.93 0,-34.94 0,-74.91z"/>
   <path class="fil2 str0" d="M5214.87 263.98l33.95 0c0,74.56 0,116.04 0,124.34 -69.81,-27.23 -161.58,-75.37 -220.96,-199.36 0,0 -0.12,0 -0.24,0 -2.04,-4.79 -3.24,-7.36 -3.48,-7.95 -3.84,-8.18 -7.44,-16.48 -10.92,-25.01 0,0 0,0 0,0l0 0 0 0 0 0 183.65 0 0 32.95c-78.21,0 -121.64,0 -130.27,0 34.91,65.79 83.25,117.09 148.27,149.93 0,-9.93 0,-34.94 0,-74.91z"/>
   <polygon class="fil1" points="5282.64,175.05 5259.97,175.05 5259.97,149.45 5282.64,149.45 5317.67,149.45 5317.67,175.05 5317.67,585.93 5282.64,585.93 "/>
   <polygon class="fil2 str0" points="5282.64,175.05 5259.97,175.05 5259.97,149.45 5282.64,149.45 5317.67,149.45 5317.67,175.05 5317.67,585.93 5282.64,585.93 "/>
   <polygon class="fil1" points="22.07,25.81 22.79,246.57 71.26,246.45 71.13,214.78 48.46,214.9 47.98,57.25 221.08,56.78 221.32,145.6 254.55,145.48 254.19,25.11 "/>
   <polygon class="fil2 str0" points="22.07,25.81 22.79,246.57 71.26,246.45 71.13,214.78 48.46,214.9 47.98,57.25 221.08,56.78 221.32,145.6 254.55,145.48 254.19,25.11 "/>
   <polygon class="fil1" points="148.99,214.54 148.5,71.39 207.88,71.27 208,103.41 182.93,103.53 183.17,214.43 "/>
   <polygon class="fil2 str0" points="148.99,214.54 148.5,71.39 207.88,71.27 208,103.41 182.93,103.53 183.17,214.43 "/>
   <polygon class="fil1" points="229.84,224.6 229.72,200.64 262.58,200.52 262.71,224.48 262.71,251.24 229.84,251.24 123.79,251.59 123.67,224.94 "/>
   <polygon class="fil2 str0" points="229.84,224.6 229.72,200.64 262.58,200.52 262.71,224.48 262.71,251.24 229.84,251.24 123.79,251.59 123.67,224.94 "/>
   <path class="fil1" d="M183.05 264.09l-33.95 0.12c0.24,74.56 0.36,115.93 0.36,124.22 69.7,-27.46 161.22,-75.84 220.12,-199.71 0,0 0.12,0 0.24,0 2.04,-4.79 3.24,-7.48 3.48,-8.06 3.72,-8.06 7.32,-16.48 10.79,-25.01 0,0 0,0 0.12,0l0 0 0 0 0 0 -183.53 0.47 0.12 33.07c77.97,-0.23 121.4,-0.35 130.03,-0.35 -34.67,65.79 -82.65,117.09 -147.55,150.05 0,-9.93 -0.12,-34.94 -0.24,-74.79z"/>
   <path class="fil2 str0" d="M183.05 264.09l-33.95 0.12c0.24,74.56 0.36,115.93 0.36,124.22 69.7,-27.46 161.22,-75.84 220.12,-199.71 0,0 0.12,0 0.24,0 2.04,-4.79 3.24,-7.48 3.48,-8.06 3.72,-8.06 7.32,-16.48 10.79,-25.01 0,0 0,0 0.12,0l0 0 0 0 0 0 -183.53 0.47 0.12 33.07c77.97,-0.23 121.4,-0.35 130.03,-0.35 -34.67,65.79 -82.65,117.09 -147.55,150.05 0,-9.93 -0.12,-34.94 -0.24,-74.79z"/>
   <polygon class="fil1" points="115.04,175.39 137.83,175.39 137.71,149.8 114.92,149.8 80.01,149.92 80.13,175.51 81.33,585.93 116.24,585.81 "/>
   <polygon class="fil2 str0" points="115.04,175.39 137.83,175.39 137.71,149.8 114.92,149.8 80.01,149.92 80.13,175.51 81.33,585.93 116.24,585.81 "/>
   <polygon class="fil1" points="5317.67,571.79 5282.64,571.79 5282.64,4541.2 5317.67,4541.2 "/>
   <polygon class="fil2 str0" points="5317.67,571.79 5282.64,571.79 5282.64,4541.2 5317.67,4541.2 "/>
   <polygon class="fil1" points="116.36,571.79 81.33,571.79 81.33,4541.2 116.36,4541.2 "/>
   <polygon class="fil2 str0" points="116.36,571.79 81.33,571.79 81.33,4541.2 116.36,4541.2 "/>
   <polygon class="fil1" points="5125.38,105.16 5126.7,105.16 5126.82,73.26 269.9,73.26 269.42,101.19 "/>
   <polygon class="fil2 str0" points="5125.38,105.16 5126.7,105.16 5126.82,73.26 269.9,73.26 269.42,101.19 "/>
   <polygon class="fil1" points="5375.25,5100.84 5375.25,4879.86 5326.78,4879.86 5326.78,4911.41 5349.45,4911.41 5349.45,5069.29 5176.12,5069.29 5176.12,4980.36 5142.89,4980.36 5142.89,5100.84 "/>
   <polygon class="fil2 str0" points="5375.25,5100.84 5375.25,4879.86 5326.78,4879.86 5326.78,4911.41 5349.45,4911.41 5349.45,5069.29 5176.12,5069.29 5176.12,4980.36 5142.89,4980.36 5142.89,5100.84 "/>
   <polygon class="fil1" points="5248.81,4911.41 5248.81,5054.8 5189.31,5054.8 5189.31,5022.55 5214.5,5022.55 5214.5,4911.41 "/>
   <polygon class="fil2 str0" points="5248.81,4911.41 5248.81,5054.8 5189.31,5054.8 5189.31,5022.55 5214.5,5022.55 5214.5,4911.41 "/>
   <polygon class="fil1" points="5167.96,4901.25 5167.96,4925.2 5134.97,4925.2 5134.97,4901.25 5134.97,4874.48 5167.96,4874.48 5274.12,4874.48 5274.12,4901.25 "/>
   <polygon class="fil2 str0" points="5167.96,4901.25 5167.96,4925.2 5134.97,4925.2 5134.97,4901.25 5134.97,4874.48 5167.96,4874.48 5274.12,4874.48 5274.12,4901.25 "/>
   <path class="fil1" d="M5214.87 4861.75l33.95 0c0,-74.56 0,-116.04 0,-124.34 -69.81,27.23 -161.58,75.37 -220.96,199.37 0,0 -0.12,0 -0.24,0 -2.04,4.79 -3.24,7.36 -3.48,7.95 -3.84,8.18 -7.44,16.48 -10.92,25.13 0,0 0,0 0,0l0 0 0 0 0 0 183.65 0 0 -33.07c-78.21,0 -121.64,0 -130.27,0 34.91,-65.79 83.25,-117.1 148.27,-149.93 0,9.93 0,34.94 0,74.91z"/>
   <path class="fil2 str0" d="M5214.87 4861.75l33.95 0c0,-74.56 0,-116.04 0,-124.34 -69.81,27.23 -161.58,75.37 -220.96,199.37 0,0 -0.12,0 -0.24,0 -2.04,4.79 -3.24,7.36 -3.48,7.95 -3.84,8.18 -7.44,16.48 -10.92,25.13 0,0 0,0 0,0l0 0 0 0 0 0 183.65 0 0 -33.07c-78.21,0 -121.64,0 -130.27,0 34.91,-65.79 83.25,-117.1 148.27,-149.93 0,9.93 0,34.94 0,74.91z"/>
   <polygon class="fil1" points="5282.64,4950.68 5259.97,4950.68 5259.97,4976.39 5282.64,4976.39 5317.67,4976.39 5317.67,4950.68 5317.67,4539.79 5282.64,4539.79 "/>
   <polygon class="fil2 str0" points="5282.64,4950.68 5259.97,4950.68 5259.97,4976.39 5282.64,4976.39 5317.67,4976.39 5317.67,4950.68 5317.67,4539.79 5282.64,4539.79 "/>
   <polygon class="fil1" points="23.75,5100.84 23.75,4879.86 72.21,4879.86 72.21,4911.41 49.54,4911.41 49.54,5069.29 222.88,5069.29 222.88,4980.36 256.11,4980.36 256.11,5100.84 "/>
   <polygon class="fil2 str0" points="23.75,5100.84 23.75,4879.86 72.21,4879.86 72.21,4911.41 49.54,4911.41 49.54,5069.29 222.88,5069.29 222.88,4980.36 256.11,4980.36 256.11,5100.84 "/>
   <polygon class="fil1" points="150.19,4911.41 150.19,5054.8 209.68,5054.8 209.68,5022.55 184.49,5022.55 184.49,4911.41 "/>
   <polygon class="fil2 str0" points="150.19,4911.41 150.19,5054.8 209.68,5054.8 209.68,5022.55 184.49,5022.55 184.49,4911.41 "/>
   <polygon class="fil1" points="231.04,4901.25 231.04,4925.2 264.02,4925.2 264.02,4901.25 264.02,4874.48 231.04,4874.48 124.87,4874.48 124.87,4901.25 "/>
   <polygon class="fil2 str0" points="231.04,4901.25 231.04,4925.2 264.02,4925.2 264.02,4901.25 264.02,4874.48 231.04,4874.48 124.87,4874.48 124.87,4901.25 "/>
   <path class="fil1" d="M184.13 4861.75l-33.95 0c0,-74.56 0,-116.04 0,-124.34 69.81,27.23 161.7,75.37 220.96,199.37 0,0 0.12,0 0.36,0 2.04,4.79 3.24,7.36 3.48,7.95 3.72,8.18 7.32,16.48 10.8,25.13 0,0 0,0 0.12,0l0 0 0 0 0 0 -183.77 0 0 -33.07c78.21,0 121.64,0 130.27,0 -34.91,-65.79 -83.13,-117.1 -148.27,-149.93 0,9.93 0,34.94 0,74.91z"/>
   <path class="fil2 str0" d="M184.13 4861.75l-33.95 0c0,-74.56 0,-116.04 0,-124.34 69.81,27.23 161.7,75.37 220.96,199.37 0,0 0.12,0 0.36,0 2.04,4.79 3.24,7.36 3.48,7.95 3.72,8.18 7.32,16.48 10.8,25.13 0,0 0,0 0.12,0l0 0 0 0 0 0 -183.77 0 0 -33.07c78.21,0 121.64,0 130.27,0 -34.91,-65.79 -83.13,-117.1 -148.27,-149.93 0,9.93 0,34.94 0,74.91z"/>
   <polygon class="fil1" points="116.36,4950.68 139.15,4950.68 139.15,4976.39 116.36,4976.39 81.33,4976.39 81.33,4950.68 81.33,4539.79 116.36,4539.79 "/>
   <polygon class="fil2 str0" points="116.36,4950.68 139.15,4950.68 139.15,4976.39 116.36,4976.39 81.33,4976.39 81.33,4950.68 81.33,4539.79 116.36,4539.79 "/>
   <polygon class="fil1" points="5125.38,5056.67 5126.7,5056.67 5126.82,5024.77 269.9,5024.77 269.42,5052.58 "/>
   <polygon class="fil2 str0" points="5125.38,5056.67 5126.7,5056.67 5126.82,5024.77 269.9,5024.77 269.42,5052.58 "/>
  </g>
 </g>
</svg>
