<?xml version="1.0" encoding="UTF-8" standalone="no"?>
<!DOCTYPE svg PUBLIC "-//W3C//DTD SVG 1.1//EN" "http://www.w3.org/Graphics/SVG/1.1/DTD/svg11.dtd">
<svg version="1.1" xmlns="http://www.w3.org/2000/svg" xmlns:xlink="http://www.w3.org/1999/xlink" viewBox="0 0 453 465"  preserveAspectRatio="none" width="700" height="700"><defs><path d="M25.03 438.99L1.65 438.99L1.65 408L6.46 408L6.46 68.22L6.38 31.66L1.58 31.69L1.51 0.74L24.86 0.65L24.87 6.23L428.41 6.23L428.41 0.62L451.78 0.62L451.78 31.61L446.97 31.61L446.97 408L451.78 408L451.78 438.99L428.41 438.99L428.41 433.87L25.03 433.39L25.03 438.99Z" id="fcxKKeXCj"></path><path d="M449.61 2.15L449.61 21.07L445.57 21.07L445.57 18.36L447.46 18.36L447.46 4.86L433.01 4.86L433.01 12.47L430.24 12.47L430.24 2.15L449.61 2.15Z" id="b71OD2W3s"></path><path d="M439.07 18.36L439.07 6.09L434.11 6.09L434.11 8.85L436.21 8.85L436.21 18.36L439.07 18.36Z" id="g299TkUw7"></path><path d="M432.33 19.24L432.33 17.18L429.58 17.18L429.58 19.24L429.58 21.52L432.33 21.52L441.18 21.52L441.18 19.24L432.33 19.24Z" id="adI82pKA4"></path><path d="M436.24 22.61L439.07 22.61C439.07 28.99 439.07 32.54 439.07 33.25C433.25 30.92 425.6 26.8 420.65 16.19C420.65 16.19 420.64 16.19 420.63 16.19C420.46 15.78 420.36 15.56 420.34 15.51C420.02 14.81 419.72 14.1 419.43 13.37C419.43 13.37 419.43 13.37 419.43 13.37L419.43 13.37L419.43 13.37L419.43 13.37L434.74 13.37L434.74 16.19C428.22 16.19 424.6 16.19 423.88 16.19C426.79 21.82 430.82 26.21 436.24 29.02C436.24 28.17 436.24 26.03 436.24 22.61Z" id="d922andl0"></path><path d="M441.89 15L440 15L440 12.81L441.89 12.81L444.81 12.81L444.81 15L444.81 50.16L441.89 50.16L441.89 15Z" id="f1CfbWMGe"></path><path d="M3.35 2.23L3.41 21.12L7.45 21.11L7.44 18.4L5.55 18.41L5.51 4.92L19.94 4.88L19.96 12.48L22.73 12.47L22.7 2.17L3.35 2.23Z" id="d7PY07j4m"></path><path d="M13.93 18.38L13.89 6.13L18.84 6.12L18.85 8.87L16.76 8.88L16.78 18.37L13.93 18.38Z" id="eeczY9QRZ"></path><path d="M20.67 19.24L20.66 17.19L23.4 17.18L23.41 19.23L23.41 21.52L20.67 21.52L11.83 21.55L11.82 19.27L20.67 19.24Z" id="a23Jl2Mhp"></path><path d="M16.77 22.62L13.94 22.63C13.96 29.01 13.97 32.55 13.97 33.26C19.78 30.91 27.41 26.77 32.32 16.17C32.32 16.17 32.33 16.17 32.34 16.17C32.51 15.76 32.61 15.53 32.63 15.48C32.94 14.79 33.24 14.07 33.53 13.34C33.53 13.34 33.53 13.34 33.54 13.34L33.54 13.34L33.54 13.34L33.54 13.34L18.24 13.38L18.25 16.21C24.75 16.19 28.37 16.18 29.09 16.18C26.2 21.81 22.2 26.2 16.79 29.02C16.79 28.17 16.78 26.03 16.77 22.62Z" id="a1wMKL6jIr"></path><path d="M11.1 15.03L13 15.03L12.99 12.84L11.09 12.84L8.18 12.85L8.19 15.04L8.29 50.16L11.2 50.15L11.1 15.03Z" id="aftdMULCd"></path><path d="M444.81 48.95L441.89 48.95L441.89 388.62L444.81 388.62L444.81 48.95Z" id="ar7RIxDHY"></path><path d="M11.21 48.95L8.29 48.95L8.29 388.62L11.21 388.62L11.21 48.95Z" id="bgMLLYcBn"></path><path d="M428.78 9.02L428.89 9.02L428.9 6.29L24.01 6.29L23.97 8.68L428.78 9.02Z" id="bMqKyhwn4"></path><path d="M449.61 436.51L449.61 417.6L445.57 417.6L445.57 420.3L447.46 420.3L447.46 433.81L433.01 433.81L433.01 426.2L430.24 426.2L430.24 436.51L449.61 436.51Z" id="b7XQEr0dTC"></path><path d="M439.07 420.3L439.07 432.57L434.11 432.57L434.11 429.81L436.21 429.81L436.21 420.3L439.07 420.3Z" id="b3DhTiAZjV"></path><path d="M432.33 419.43L432.33 421.48L429.58 421.48L429.58 419.43L429.58 417.14L432.33 417.14L441.18 417.14L441.18 419.43L432.33 419.43Z" id="b2fjDYmhl"></path><path d="M436.24 416.05L439.07 416.05C439.07 409.67 439.07 406.12 439.07 405.41C433.25 407.74 425.6 411.86 420.65 422.47C420.65 422.47 420.64 422.47 420.63 422.47C420.46 422.88 420.36 423.1 420.34 423.15C420.02 423.85 419.72 424.56 419.43 425.3C419.43 425.3 419.43 425.3 419.43 425.3L419.43 425.3L419.43 425.3L419.43 425.3L434.74 425.3L434.74 422.47C428.22 422.47 424.6 422.47 423.88 422.47C426.79 416.84 430.82 412.45 436.24 409.64C436.24 410.49 436.24 412.63 436.24 416.05Z" id="f1x7yKZgGx"></path><path d="M441.89 423.66L440 423.66L440 425.86L441.89 425.86L444.81 425.86L444.81 423.66L444.81 388.5L441.89 388.5L441.89 423.66Z" id="j4akL7FwO4"></path><path d="M3.49 436.51L3.49 417.6L7.53 417.6L7.53 420.3L5.64 420.3L5.64 433.81L20.09 433.81L20.09 426.2L22.86 426.2L22.86 436.51L3.49 436.51Z" id="f3REsOP3J"></path><path d="M14.03 420.3L14.03 432.57L18.99 432.57L18.99 429.81L16.89 429.81L16.89 420.3L14.03 420.3Z" id="c2eKMr5WGB"></path><path d="M20.77 419.43L20.77 421.48L23.52 421.48L23.52 419.43L23.52 417.14L20.77 417.14L11.92 417.14L11.92 419.43L20.77 419.43Z" id="aNO3sQYt8"></path><path d="M16.86 416.05L14.03 416.05C14.03 409.67 14.03 406.12 14.03 405.41C19.85 407.74 27.51 411.86 32.45 422.47C32.45 422.47 32.46 422.47 32.48 422.47C32.65 422.88 32.75 423.1 32.77 423.15C33.08 423.85 33.38 424.56 33.67 425.3C33.67 425.3 33.67 425.3 33.68 425.3L33.68 425.3L33.68 425.3L33.68 425.3L18.36 425.3L18.36 422.47C24.88 422.47 28.5 422.47 29.22 422.47C26.31 416.84 22.29 412.45 16.86 409.64C16.86 410.49 16.86 412.63 16.86 416.05Z" id="ad9xXsdxn"></path><path d="M11.21 423.66L13.11 423.66L13.11 425.86L11.21 425.86L8.29 425.86L8.29 423.66L8.29 388.5L11.21 388.5L11.21 423.66Z" id="iIveHtyYu"></path><path d="M428.78 432.73L428.89 432.73L428.9 430L24.01 430L23.97 432.38L428.78 432.73Z" id="b2EzRPtEXo"></path></defs><g><g><g><use xlink:href="#fcxKKeXCj" opacity="1" fill="#000000" fill-opacity="0.8"></use><g><use xlink:href="#fcxKKeXCj" opacity="1" fill-opacity="0" stroke="#000000" stroke-width="1" stroke-opacity="0"></use></g></g><g><use xlink:href="#b71OD2W3s" opacity="1" fill="#9d9e9e" fill-opacity="1"></use><g><use xlink:href="#b71OD2W3s" opacity="1" fill-opacity="0" stroke="#000000" stroke-width="1" stroke-opacity="0"></use></g></g><g><use xlink:href="#g299TkUw7" opacity="1" fill="#9d9e9e" fill-opacity="1"></use><g><use xlink:href="#g299TkUw7" opacity="1" fill-opacity="0" stroke="#000000" stroke-width="1" stroke-opacity="0"></use></g></g><g><use xlink:href="#adI82pKA4" opacity="1" fill="#9d9e9e" fill-opacity="1"></use><g><use xlink:href="#adI82pKA4" opacity="1" fill-opacity="0" stroke="#000000" stroke-width="1" stroke-opacity="0"></use></g></g><g><use xlink:href="#d922andl0" opacity="1" fill="#9d9e9e" fill-opacity="1"></use><g><use xlink:href="#d922andl0" opacity="1" fill-opacity="0" stroke="#000000" stroke-width="1" stroke-opacity="0"></use></g></g><g><use xlink:href="#f1CfbWMGe" opacity="1" fill="#9d9e9e" fill-opacity="1"></use><g><use xlink:href="#f1CfbWMGe" opacity="1" fill-opacity="0" stroke="#000000" stroke-width="1" stroke-opacity="0"></use></g></g><g><use xlink:href="#d7PY07j4m" opacity="1" fill="#9d9e9e" fill-opacity="1"></use><g><use xlink:href="#d7PY07j4m" opacity="1" fill-opacity="0" stroke="#000000" stroke-width="1" stroke-opacity="0"></use></g></g><g><use xlink:href="#eeczY9QRZ" opacity="1" fill="#9d9e9e" fill-opacity="1"></use><g><use xlink:href="#eeczY9QRZ" opacity="1" fill-opacity="0" stroke="#000000" stroke-width="1" stroke-opacity="0"></use></g></g><g><use xlink:href="#a23Jl2Mhp" opacity="1" fill="#9d9e9e" fill-opacity="1"></use><g><use xlink:href="#a23Jl2Mhp" opacity="1" fill-opacity="0" stroke="#000000" stroke-width="1" stroke-opacity="0"></use></g></g><g><use xlink:href="#a1wMKL6jIr" opacity="1" fill="#9d9e9e" fill-opacity="1"></use><g><use xlink:href="#a1wMKL6jIr" opacity="1" fill-opacity="0" stroke="#000000" stroke-width="1" stroke-opacity="0"></use></g></g><g><use xlink:href="#aftdMULCd" opacity="1" fill="#9d9e9e" fill-opacity="1"></use><g><use xlink:href="#aftdMULCd" opacity="1" fill-opacity="0" stroke="#000000" stroke-width="1" stroke-opacity="0"></use></g></g><g><use xlink:href="#ar7RIxDHY" opacity="1" fill="#9d9e9e" fill-opacity="1"></use><g><use xlink:href="#ar7RIxDHY" opacity="1" fill-opacity="0" stroke="#000000" stroke-width="1" stroke-opacity="0"></use></g></g><g><use xlink:href="#bgMLLYcBn" opacity="1" fill="#9d9e9e" fill-opacity="1"></use><g><use xlink:href="#bgMLLYcBn" opacity="1" fill-opacity="0" stroke="#000000" stroke-width="1" stroke-opacity="0"></use></g></g><g><use xlink:href="#bMqKyhwn4" opacity="1" fill="#9d9e9e" fill-opacity="1"></use><g><use xlink:href="#bMqKyhwn4" opacity="1" fill-opacity="0" stroke="#000000" stroke-width="1" stroke-opacity="0"></use></g></g><g><use xlink:href="#b7XQEr0dTC" opacity="1" fill="#9d9e9e" fill-opacity="1"></use><g><use xlink:href="#b7XQEr0dTC" opacity="1" fill-opacity="0" stroke="#000000" stroke-width="1" stroke-opacity="0"></use></g></g><g><use xlink:href="#b3DhTiAZjV" opacity="1" fill="#9d9e9e" fill-opacity="1"></use><g><use xlink:href="#b3DhTiAZjV" opacity="1" fill-opacity="0" stroke="#000000" stroke-width="1" stroke-opacity="0"></use></g></g><g><use xlink:href="#b2fjDYmhl" opacity="1" fill="#9d9e9e" fill-opacity="1"></use><g><use xlink:href="#b2fjDYmhl" opacity="1" fill-opacity="0" stroke="#000000" stroke-width="1" stroke-opacity="0"></use></g></g><g><use xlink:href="#f1x7yKZgGx" opacity="1" fill="#9d9e9e" fill-opacity="1"></use><g><use xlink:href="#f1x7yKZgGx" opacity="1" fill-opacity="0" stroke="#000000" stroke-width="1" stroke-opacity="0"></use></g></g><g><use xlink:href="#j4akL7FwO4" opacity="1" fill="#9d9e9e" fill-opacity="1"></use><g><use xlink:href="#j4akL7FwO4" opacity="1" fill-opacity="0" stroke="#000000" stroke-width="1" stroke-opacity="0"></use></g></g><g><use xlink:href="#f3REsOP3J" opacity="1" fill="#9d9e9e" fill-opacity="1"></use><g><use xlink:href="#f3REsOP3J" opacity="1" fill-opacity="0" stroke="#000000" stroke-width="1" stroke-opacity="0"></use></g></g><g><use xlink:href="#c2eKMr5WGB" opacity="1" fill="#9d9e9e" fill-opacity="1"></use><g><use xlink:href="#c2eKMr5WGB" opacity="1" fill-opacity="0" stroke="#000000" stroke-width="1" stroke-opacity="0"></use></g></g><g><use xlink:href="#aNO3sQYt8" opacity="1" fill="#9d9e9e" fill-opacity="1"></use><g><use xlink:href="#aNO3sQYt8" opacity="1" fill-opacity="0" stroke="#000000" stroke-width="1" stroke-opacity="0"></use></g></g><g><use xlink:href="#ad9xXsdxn" opacity="1" fill="#9d9e9e" fill-opacity="1"></use><g><use xlink:href="#ad9xXsdxn" opacity="1" fill-opacity="0" stroke="#000000" stroke-width="1" stroke-opacity="0"></use></g></g><g><use xlink:href="#iIveHtyYu" opacity="1" fill="#9d9e9e" fill-opacity="1"></use><g><use xlink:href="#iIveHtyYu" opacity="1" fill-opacity="0" stroke="#000000" stroke-width="1" stroke-opacity="0"></use></g></g><g><use xlink:href="#b2EzRPtEXo" opacity="1" fill="#9d9e9e" fill-opacity="1"></use><g><use xlink:href="#b2EzRPtEXo" opacity="1" fill-opacity="0" stroke="#000000" stroke-width="1" stroke-opacity="0"></use></g></g></g></g></svg>