<svg width="384" height="64" viewBox="0 0 384 64" fill="none" xmlns="http://www.w3.org/2000/svg">
<path d="M357.45 10.65L353.55 14.8L337.7 0H320V4.2H337.05L360.8 26.8L355.35 31.2L353.35 29.55L356.35 26.4L335.85 6.95V7H320V57H335.55L350.2 43.1H350.5L352.3 44.9L336.6 59.8H320V64H338.3L353.35 49.05L357.35 52.7L384 32L357.45 10.65ZM340.75 20L345.75 24.45L343.95 26.25L339.85 23.15C337.45 23.0167 336.1 23.05 335.8 23.25L335.75 41.1H339.45L349.2 33.1L351.5 34.6L340.45 44.05H333.6C333.567 42.45 333.533 39.7 333.5 35.8C333.467 31.8667 333.433 26.6 333.4 20H340.75ZM355.8 21.2L354.25 19.5L357.7 16.6L377.3 32.05L357.45 47.55L347.85 39.5L349.6 37.8L357.55 43.4L372.35 32.1L357.85 20.15L355.8 21.2ZM350.25 22.45L352.2 24.45L342.85 32L345.25 34.95L343.55 36.1L338.4 31.75L350.25 22.45ZM348.1 29.6L350.05 28.1L361.05 37.05L356.3 41.65L354.3 39.6L356.6 37.8L348.1 29.6Z" fill="black" fill-opacity="0.74902"/>
<path d="M352.3 44.9L350.5 43.1H350.2L335.55 57H320V59.8H336.6L352.3 44.9ZM350.05 28.1L348.1 29.6L356.6 37.8L354.3 39.6L356.3 41.65L361.05 37.05L350.05 28.1ZM335.85 7V6.95L356.35 26.4L353.35 29.55L355.35 31.2L360.8 26.8L337.05 4.2H320V7H335.85ZM352.2 24.45L350.25 22.45L338.4 31.75L343.55 36.1L345.25 34.95L342.85 32L352.2 24.45ZM355.8 21.2L357.85 20.15L372.35 32.1L357.55 43.4L349.6 37.8L347.85 39.5L357.45 47.55L377.3 32.05L357.7 16.6L354.25 19.5L355.8 21.2ZM345.75 24.45L340.75 20H333.4C333.433 26.6 333.467 31.8667 333.5 35.8C333.533 39.7 333.567 42.45 333.6 44.05H340.45L351.5 34.6L349.2 33.1L339.45 41.1H335.75L335.8 23.25C336.1 23.05 337.45 23.0167 339.85 23.15L343.95 26.25L345.75 24.45Z" fill="#9D9E9E" fill-opacity="0.74902"/>
<path d="M26.55 10.65L30.45 14.8L46.3 0H64V4.2H46.95L23.2 26.8L28.65 31.2L30.65 29.55L27.65 26.4L48.15 6.95V7H64V57H48.45L33.8 43.1H33.5L31.7 44.9L47.4 59.8H64V64H45.7L30.65 49.05L26.65 52.7L0 32L26.55 10.65ZM43.25 20L38.25 24.45L40.05 26.25L44.15 23.15C46.55 23.0167 47.9 23.05 48.2 23.25L48.25 41.1H44.55L34.8 33.1L32.5 34.6L43.55 44.05H50.4C50.4333 42.45 50.4667 39.7 50.5 35.8C50.5333 31.8667 50.5667 26.6 50.6 20H43.25ZM28.2 21.2L29.75 19.5L26.3 16.6L6.7 32.05L26.55 47.55L36.15 39.5L34.4 37.8L26.45 43.4L11.65 32.1L26.15 20.15L28.2 21.2ZM33.75 22.45L31.8 24.45L41.15 32L38.75 34.95L40.45 36.1L45.6 31.75L33.75 22.45ZM35.9 29.6L33.95 28.1L22.95 37.05L27.7 41.65L29.7 39.6L27.4 37.8L35.9 29.6Z" fill="black" fill-opacity="0.74902"/>
<path d="M31.7 44.9L33.5 43.1H33.8L48.45 57H64V59.8H47.4L31.7 44.9ZM33.95 28.1L35.9 29.6L27.4 37.8L29.7 39.6L27.7 41.65L22.95 37.05L33.95 28.1ZM48.15 7V6.95L27.65 26.4L30.65 29.55L28.65 31.2L23.2 26.8L46.95 4.2H64V7H48.15ZM31.8 24.45L33.75 22.45L45.6 31.75L40.45 36.1L38.75 34.95L41.15 32L31.8 24.45ZM28.2 21.2L26.15 20.15L11.65 32.1L26.45 43.4L34.4 37.8L36.15 39.5L26.55 47.55L6.7 32.05L26.3 16.6L29.75 19.5L28.2 21.2ZM38.25 24.45L43.25 20H50.6C50.5667 26.6 50.5333 31.8667 50.5 35.8C50.4667 39.7 50.4333 42.45 50.4 44.05H43.55L32.5 34.6L34.8 33.1L44.55 41.1H48.25L48.2 23.25C47.9 23.05 46.55 23.0167 44.15 23.15L40.05 26.25L38.25 24.45Z" fill="#9D9E9E" fill-opacity="0.74902"/>
<path d="M64 7V57H128V7H64ZM64 59.8V64H128V59.8H64ZM128 4.2V0H64V4.2H128Z" fill="black" fill-opacity="0.74902"/>
<path d="M64 57V59.8H128V57H64ZM128 7V4.2H64V7H128Z" fill="#9D9E9E" fill-opacity="0.74902"/>
<path d="M128 7V57H192V7H128ZM128 59.8V64H192V59.8H128ZM192 4.2V0H128V4.2H192Z" fill="black" fill-opacity="0.74902"/>
<path d="M128 57V59.8H192V57H128ZM192 7V4.2H128V7H192Z" fill="#9D9E9E" fill-opacity="0.74902"/>
<path d="M192 7V57H256V7H192ZM192 59.8V64H256V59.8H192ZM256 4.2V0H192V4.2H256Z" fill="black" fill-opacity="0.74902"/>
<path d="M192 57V59.8H256V57H192ZM256 7V4.2H192V7H256Z" fill="#9D9E9E" fill-opacity="0.74902"/>
<path d="M256 7V57H320V7H256ZM256 59.8V64H320V59.8H256ZM320 4.2V0H256V4.2H320Z" fill="black" fill-opacity="0.74902"/>
<path d="M256 57V59.8H320V57H256ZM320 7V4.2H256V7H320Z" fill="#9D9E9E" fill-opacity="0.74902"/>
</svg>
