<svg width="14" height="13" viewBox="0 0 14 13" fill="none" xmlns="http://www.w3.org/2000/svg">
<path d="M11.95 2.6501C11.75 2.41676 11.5333 2.18343 11.3 1.9501C10.5333 1.18343 9.68333 0.666764 8.75 0.400098C8.61667 0.333431 8.46667 0.283431 8.3 0.250098C7.83333 0.150098 7.35 0.100098 6.85 0.100098C6.35 0.100098 5.86667 0.150098 5.4 0.250098C5.26667 0.283431 5.13333 0.333431 5 0.400098C4 0.666764 3.11667 1.18343 2.35 1.9501C1.11667 3.18343 0.5 4.66676 0.5 6.4001C0.5 8.16676 1.11667 9.66676 2.35 10.9001C3.58333 12.1001 5.08333 12.7001 6.85 12.7001C8.55 12.7001 10.0333 12.1001 11.3 10.9001C11.5333 10.6668 11.75 10.4501 11.95 10.2501C12.4833 9.5501 12.8167 8.76676 12.95 7.9001C13.1833 7.0001 13.1833 6.01676 12.95 4.9501C12.8167 4.11676 12.4833 3.3501 11.95 2.6501ZM10.1 3.3501C11.0333 4.28343 11.5 5.4001 11.5 6.7001V6.8001C11.5 8.1001 11.0333 9.23343 10.1 10.2001C9.13333 11.1334 8.01667 11.6001 6.75 11.6001C6.71667 11.6001 6.68333 11.6001 6.65 11.6001C5.35 11.6001 4.21667 11.1334 3.25 10.2001C2.31667 9.23343 1.85 8.11677 1.85 6.8501C1.85 6.81676 1.85 6.78343 1.85 6.7501V6.7001C1.85 5.4001 2.31667 4.28343 3.25 3.3501C4.21667 2.41676 5.35 1.9501 6.65 1.9501H6.7C8 1.9501 9.13333 2.41676 10.1 3.3501Z" fill="#9A9769" fill-opacity="0.498039"/>
</svg>
