<svg width="16" height="16" viewBox="0 0 16 16" fill="none" xmlns="http://www.w3.org/2000/svg">
<path d="M11.7 0.85C11.2667 0.65 10.8333 0.483333 10.4 0.35C10.2333 0.283333 10.05 0.233333 9.85 0.2C9.65 0.166667 9.48333 0.133333 9.35 0.1H9.5C9.06667 0.0333333 8.63333 0 8.2 0C8.13333 0 8.06667 0 8 0C7.86667 0 7.73333 0.0166667 7.6 0.05H7.5C7.3 0.0166667 7.13333 0 7 0C6.53333 0 6.08333 0.0333333 5.65 0.1H6.7C6.53333 0.133333 6.36667 0.166667 6.2 0.2C6 0.233333 5.81667 0.283333 5.65 0.35C5.21667 0.483333 4.8 0.65 4.4 0.85C3.63333 1.21667 2.93333 1.7 2.3 2.3C0.766667 3.86667 0 5.76667 0 8C0 10.2333 0.766667 12.1167 2.3 13.65C3.9 15.2167 5.8 16 8 16C10.2 16 12.0833 15.2167 13.65 13.65C13.95 13.3833 14.2 13.1 14.4 12.8C15.1 11.9667 15.5667 11.0167 15.8 9.95C15.8333 9.65 15.8667 9.35 15.9 9.05C15.9667 8.45 15.9667 7.81667 15.9 7.15C15.8667 6.81667 15.8333 6.48333 15.8 6.15C15.5667 5.08333 15.1 4.1 14.4 3.2C14.2 2.9 13.95 2.6 13.65 2.3C13.0167 1.7 12.3667 1.21667 11.7 0.85ZM13.9 8.4V8.5C13.9 10.1333 13.3 11.55 12.1 12.75C10.9 13.95 9.5 14.55 7.9 14.55C7.86667 14.55 7.83333 14.55 7.8 14.55H7.75C6.11667 14.55 4.68333 13.95 3.45 12.75C2.25 11.55 1.65 10.15 1.65 8.55C1.65 8.51667 1.65 8.48333 1.65 8.45V8.4C1.65 6.76667 2.25 5.33333 3.45 4.1C4.68333 2.9 6.11667 2.3 7.75 2.3H7.85C9.48333 2.3 10.9 2.9 12.1 4.1C13.3 5.33333 13.9 6.76667 13.9 8.4ZM10.5 4.95H10.45C10.0833 5.05 9.75 5.41667 9.45 6.05L7.2 9.7C7.06667 9.6 6.76667 9.21667 6.3 8.55L5.6 7.65C5.3 7.31667 5.1 7.13333 5 7.1C4.8 7.03333 4.63333 7.03333 4.5 7.1C4.36667 7.1 4.23333 7.15 4.1 7.25C3.86667 7.45 3.75 7.71667 3.75 8.05C3.78333 8.35 3.95 8.68333 4.25 9.05L5.7 10.95L6.2 11.35C6.5 11.7167 6.7 11.9333 6.8 12C7.13333 12.2333 7.5 12.2333 7.9 12C7.96667 11.9333 8.05 11.8667 8.15 11.8C8.35 11.6333 8.61667 11.2333 8.95 10.6L11.2 6.8C11.5 6.23333 11.6333 5.85 11.6 5.65C11.5333 5.41667 11.4 5.23333 11.2 5.1C10.9667 4.93333 10.7333 4.88333 10.5 4.95Z" fill="black" fill-opacity="0.498039"/>
<path d="M13.8999 8.40005C13.8999 6.76672 13.2999 5.33338 12.0999 4.10005C10.8999 2.90005 9.48324 2.30005 7.8499 2.30005H7.7499C6.11657 2.30005 4.68324 2.90005 3.4499 4.10005C2.2499 5.33338 1.6499 6.76672 1.6499 8.40005V8.45005C1.6499 8.48338 1.6499 8.51672 1.6499 8.55005C1.6499 10.15 2.2499 11.55 3.4499 12.75C4.68324 13.95 6.11657 14.55 7.7499 14.55H7.7999C7.83324 14.55 7.86657 14.55 7.8999 14.55C9.4999 14.55 10.8999 13.95 12.0999 12.75C13.2999 11.55 13.8999 10.1334 13.8999 8.50005V8.40005ZM10.4499 4.95005H10.4999C10.7332 4.88338 10.9666 4.93338 11.1999 5.10005C11.3999 5.23338 11.5332 5.41672 11.5999 5.65005C11.6332 5.85005 11.4999 6.23338 11.1999 6.80005L8.9499 10.6C8.61657 11.2334 8.3499 11.6334 8.1499 11.8C8.0499 11.8667 7.96657 11.9334 7.8999 12C7.4999 12.2334 7.13324 12.2334 6.7999 12C6.6999 11.9334 6.4999 11.7167 6.1999 11.35L5.6999 10.95L4.2499 9.05005C3.9499 8.68338 3.78324 8.35005 3.7499 8.05005C3.7499 7.71672 3.86657 7.45005 4.0999 7.25005C4.23324 7.15005 4.36657 7.10005 4.4999 7.10005C4.63324 7.03338 4.7999 7.03338 4.9999 7.10005C5.0999 7.13338 5.2999 7.31672 5.5999 7.65005L6.2999 8.55005C6.76657 9.21672 7.06657 9.60005 7.1999 9.70005L9.4499 6.05005C9.7499 5.41672 10.0832 5.05005 10.4499 4.95005Z" fill="white" fill-opacity="0.498039"/>
</svg>
