<svg width="16" height="16" viewBox="0 0 16 16" fill="none" xmlns="http://www.w3.org/2000/svg">
<path d="M15.8 6.1C15.6667 5.46667 15.4667 4.88333 15.2 4.35C14.9667 3.95 14.7167 3.56667 14.45 3.2C14.2167 2.86667 13.9667 2.56667 13.7 2.3C12.8667 1.5 11.95 0.9 10.95 0.5C10.7833 0.433333 10.6 0.366667 10.4 0.3C10.2333 0.266667 10.05 0.233333 9.85 0.2C9.25 0.0666667 8.63333 0 8 0C7.86667 0 7.71667 0.0166667 7.55 0.05C7.38333 0.0166667 7.21667 0 7.05 0C6.75 0 6.46667 0.0166667 6.2 0.05H7.1C6.8 0.0833333 6.5 0.133333 6.2 0.2C6 0.233333 5.81667 0.266667 5.65 0.3C5.45 0.366667 5.26667 0.433333 5.1 0.5C4.06667 0.9 3.13333 1.5 2.3 2.3C0.766667 3.86667 0 5.76667 0 8C0 10.2333 0.766667 12.1167 2.3 13.65C3.86667 15.2167 5.76667 16 8 16C10.2 16 12.1 15.2167 13.7 13.65C13.9667 13.35 14.2167 13.0667 14.45 12.8C14.7167 12.4667 14.9667 12.0833 15.2 11.65C15.4667 11.1167 15.6667 10.5333 15.8 9.9C16.0667 8.76667 16.0667 7.5 15.8 6.1ZM12.3 3.95C12.5333 4.18333 12.75 4.41667 12.95 4.65C13.4833 5.35 13.8167 6.11667 13.95 6.95C14.1833 8.01667 14.1833 9 13.95 9.9C13.8167 10.7667 13.4833 11.55 12.95 12.25C12.75 12.45 12.5333 12.6667 12.3 12.9C11.0333 14.1 9.55 14.7 7.85 14.7C6.08333 14.7 4.58333 14.1 3.35 12.9C2.11667 11.6667 1.5 10.1667 1.5 8.4C1.5 6.66667 2.11667 5.18333 3.35 3.95C4.11667 3.18333 5 2.66667 6 2.4C6.13333 2.33333 6.26667 2.28333 6.4 2.25C6.86667 2.15 7.35 2.1 7.85 2.1C8.35 2.1 8.83333 2.15 9.3 2.25C9.46667 2.28333 9.61667 2.33333 9.75 2.4C10.6833 2.66667 11.5333 3.18333 12.3 3.95ZM12.5 8.8V8.7C12.5 7.4 12.0333 6.28333 11.1 5.35C10.1333 4.41667 9 3.95 7.7 3.95H7.65C6.35 3.95 5.21667 4.41667 4.25 5.35C3.31667 6.28333 2.85 7.4 2.85 8.7V8.75C2.85 8.78333 2.85 8.81667 2.85 8.85C2.85 10.1167 3.31667 11.2333 4.25 12.2C5.21667 13.1333 6.35 13.6 7.65 13.6C7.68333 13.6 7.71667 13.6 7.75 13.6C9.01667 13.6 10.1333 13.1333 11.1 12.2C12.0333 11.2333 12.5 10.1 12.5 8.8Z" fill="black" fill-opacity="0.498039"/>
<path d="M12.95 4.6501C12.75 4.41676 12.5333 4.18343 12.3 3.9501C11.5333 3.18343 10.6833 2.66676 9.75 2.4001C9.61667 2.33343 9.46667 2.28343 9.3 2.2501C8.83333 2.1501 8.35 2.1001 7.85 2.1001C7.35 2.1001 6.86667 2.1501 6.4 2.2501C6.26667 2.28343 6.13333 2.33343 6 2.4001C5 2.66676 4.11667 3.18343 3.35 3.9501C2.11667 5.18343 1.5 6.66676 1.5 8.4001C1.5 10.1668 2.11667 11.6668 3.35 12.9001C4.58333 14.1001 6.08333 14.7001 7.85 14.7001C9.55 14.7001 11.0333 14.1001 12.3 12.9001C12.5333 12.6668 12.75 12.4501 12.95 12.2501C13.4833 11.5501 13.8167 10.7668 13.95 9.9001C14.1833 9.0001 14.1833 8.01676 13.95 6.9501C13.8167 6.11676 13.4833 5.3501 12.95 4.6501ZM11.1 5.3501C12.0333 6.28343 12.5 7.4001 12.5 8.7001V8.8001C12.5 10.1001 12.0333 11.2334 11.1 12.2001C10.1333 13.1334 9.01667 13.6001 7.75 13.6001C7.71667 13.6001 7.68333 13.6001 7.65 13.6001C6.35 13.6001 5.21667 13.1334 4.25 12.2001C3.31667 11.2334 2.85 10.1168 2.85 8.8501C2.85 8.81676 2.85 8.78343 2.85 8.7501V8.7001C2.85 7.4001 3.31667 6.28343 4.25 5.3501C5.21667 4.41676 6.35 3.9501 7.65 3.9501H7.7C9 3.9501 10.1333 4.41676 11.1 5.3501Z" fill="#9A9769" fill-opacity="0.498039"/>
</svg>
