<svg width="50" height="50" viewBox="0 0 50 50" fill="none" xmlns="http://www.w3.org/2000/svg">
<g clip-path="url(#clip0_621_6857)">
<path d="M49.5833 38.2292C50.0046 27.5298 47.5393 18.0854 42.1875 9.89583C38.7416 7.87055 35.1652 6.75944 31.4583 6.5625L30.2083 9.27083C28.6043 8.96918 26.9724 8.79557 25.3125 8.75C24.1539 8.76085 22.9734 8.8303 21.7708 8.95833C20.9722 9.0625 20.1736 9.16667 19.375 9.27083L18.125 6.5625C14.4444 6.77083 10.8681 7.88194 7.39583 9.89583C2.04861 18.0903 -0.416667 27.5347 -5.47618e-07 38.2292C4.02778 41.2847 8.33333 43.3681 12.9167 44.4792L15.5208 40.1042L11.1458 38.2292L11.9792 36.875C12.2171 36.9941 12.4254 37.0983 12.6042 37.1875C16.7179 38.8151 20.6068 39.7179 24.2708 39.8958C24.6202 39.8939 24.9674 39.8939 25.3125 39.8958C29.6821 39.9533 33.7446 38.9464 37.5 36.875L38.4375 38.2292L34.0625 40.1042L36.6667 44.4792C41.2202 43.3876 45.5257 41.3043 49.5833 38.2292ZM19.6875 23.8542C20.1671 24.3774 20.5143 24.9677 20.7292 25.625C20.8453 25.9549 20.9147 26.3021 20.9375 26.6667C21.0004 26.8555 21.0352 27.0638 21.0417 27.2917V27.5C21.0064 28.6529 20.6245 29.6598 19.8958 30.5208C19.8481 30.6163 19.7786 30.6858 19.6875 30.7292V30.8333C18.7847 31.875 17.7083 32.3958 16.4583 32.3958C16.3802 32.3958 16.3108 32.3958 16.25 32.3958L15.3125 32.1875C14.5307 31.9851 13.8363 31.5337 13.2292 30.8333C12.7431 30.2778 12.3611 29.6875 12.0833 29.0625C12.0139 28.7153 11.9444 28.4028 11.875 28.125C11.875 27.8472 11.875 27.6042 11.875 27.3958C11.875 27.1875 11.875 27.0139 11.875 26.875C12.0139 25.6944 12.4653 24.6875 13.2292 23.8542C13.5764 23.4375 13.9583 23.125 14.375 22.9167C15 22.5694 15.6944 22.3958 16.4583 22.3958H16.5625C17.3961 22.3958 18.16 22.6389 18.8542 23.125C19.155 23.3054 19.4328 23.5484 19.6875 23.8542ZM35.1042 22.9167C35.5615 23.1369 35.9782 23.4494 36.3542 23.8542C37.1292 24.6889 37.5458 25.6611 37.6042 26.7708C37.6736 26.9911 37.7083 27.1994 37.7083 27.3958C37.7083 27.6373 37.6736 27.8803 37.6042 28.125C37.6001 28.4248 37.5307 28.7025 37.3958 28.9583C37.2203 29.6495 36.8731 30.2745 36.3542 30.8333C35.4514 31.875 34.375 32.3958 33.125 32.3958C31.875 32.3958 30.7986 31.875 29.8958 30.8333C29.8014 30.7316 29.6973 30.6274 29.5833 30.5208C28.8889 29.6191 28.5417 28.5775 28.5417 27.3958C28.5417 27.1419 28.5417 26.8989 28.5417 26.6667C28.7066 25.5862 29.158 24.6487 29.8958 23.8542C30.7796 22.9026 31.8213 22.4164 33.0208 22.3958H33.125C33.8544 22.3958 34.5142 22.5694 35.1042 22.9167Z" fill="#9D9E9E" fill-opacity="0.75"/>
</g>
<defs>
<clipPath id="clip0_621_6857">
<rect width="50" height="50" fill="white"/>
</clipPath>
</defs>
</svg>
