<svg width="48" height="48" viewBox="0 0 48 48" fill="none" xmlns="http://www.w3.org/2000/svg">
<path d="M37.8451 19.7627L36.9437 18.9718L36.0423 20.5537C35.216 20.0264 34.3146 19.4614 33.338 18.8588C32.8873 18.6328 32.4366 18.3691 31.9859 18.0678L32.4366 16.3729L31.4225 15.8079L30.9718 17.6158C28.9437 16.6365 27.1033 16.0716 25.4507 15.9209V14H24.3239V15.9209C22.6714 15.9962 20.831 16.4482 18.8028 17.2768L18.3521 15.5819L17.338 16.0339L17.7887 17.7288C17.338 17.9548 16.8873 18.1808 16.4366 18.4068C15.5352 18.9341 14.6714 19.4614 13.8451 19.9887L12.9437 18.5198L11.9296 19.0847L12.831 20.6667C11.4038 21.8719 10.1268 23.1525 9 24.5085C10.6526 26.9944 13.0563 29.1789 16.2113 31.0621C19.4413 33.0207 22.2582 34 24.662 34C27.1408 34 29.8451 33.1714 32.7746 31.5141C35.7793 29.8569 38.5211 27.7476 41 25.1864C39.9484 23.8305 38.5962 22.5122 36.9437 21.2316L37.8451 19.7627ZM39.3099 25.1864C37.3568 27.145 34.9155 28.8399 31.9859 30.2712C29.0563 31.7024 26.5399 32.4181 24.4366 32.4181C22.4085 32.4181 20.1174 31.6648 17.5634 30.1582C15.0094 28.7269 12.7934 26.919 10.9155 24.7345C12.493 22.7759 14.6338 21.081 17.338 19.6497C20.0423 18.2185 22.4085 17.5028 24.4366 17.5028C26.5399 17.5028 28.8685 18.2185 31.4225 19.6497C33.9765 21.1563 36.6056 23.0019 39.3099 25.1864ZM24.4366 30.0452C25.939 30.0452 27.216 29.4802 28.2676 28.3503C29.3944 27.2957 29.9577 26.0151 29.9577 24.5085C29.9577 23.0019 29.3944 21.6836 28.2676 20.5537C27.216 19.4991 25.939 18.9718 24.4366 18.9718C22.9343 18.9718 21.6197 19.4991 20.493 20.5537C19.4413 21.6836 18.9155 23.0019 18.9155 24.5085C18.9155 26.0151 19.4413 27.2957 20.493 28.3503C21.6197 29.4802 22.9343 30.0452 24.4366 30.0452Z" fill="#9D9E9E" fill-opacity="0.75"/>
</svg>
