<svg width="48" height="48" viewBox="0 0 48 48" fill="none" xmlns="http://www.w3.org/2000/svg">
<path d="M40 25.5211C39.3991 24.6197 38.723 23.7934 37.9718 23.0423C36.5446 21.5399 34.8169 20.1878 32.7887 18.9859C29.5587 17.0329 26.7418 16.0563 24.338 16.0563C21.8592 16.0563 19.1549 16.8826 16.2254 18.5352C13.2207 20.1878 10.4789 22.2911 8 24.8451C9.05164 26.1972 10.4038 27.5117 12.0563 28.7887L11.1549 30.2535L12.0563 31.0423L12.9577 29.4648C13.784 29.9906 14.6854 30.554 15.662 31.1549C16.1127 31.3803 16.5634 31.6432 17.0141 31.9437L16.5634 33.6338L17.5775 34.1972L18.0282 32.3944C20.0563 33.3709 21.8967 33.9343 23.5493 34.0845V36H24.6761V34.0845C26.3286 34.0094 28.169 33.5587 30.1972 32.7324L30.6479 34.4225L31.662 33.9718L31.2113 32.2817C31.662 32.0563 32.1127 31.831 32.5634 31.6056C33.4648 31.0798 34.3286 30.554 35.1549 30.0282L36.0563 31.493L37.0704 30.9296L36.169 29.3521C36.77 28.8263 37.3709 28.3005 37.9718 27.7746C38.723 27.0235 39.3991 26.2723 40 25.5211ZM38.0845 25.2958C38.0845 25.3709 38.0469 25.4085 37.9718 25.4085C36.3944 27.3615 34.2911 29.0141 31.662 30.3662C28.9577 31.7934 26.5916 32.507 24.5634 32.507C22.4601 32.507 20.1315 31.7934 17.5775 30.3662C15.0235 28.8638 12.3944 27.0235 9.69014 24.8451C11.6432 22.892 14.0845 21.2019 17.0141 19.7746C19.9437 18.3474 22.4601 17.6338 24.5634 17.6338C26.5916 17.6338 28.8826 18.385 31.4366 19.8873C33.9155 21.3146 36.0939 23.0798 37.9718 25.1831C38.0469 25.1831 38.0845 25.2207 38.0845 25.2958Z" fill="#9D9E9E" fill-opacity="0.33"/>
</svg>
