<svg width="164" height="64" viewBox="0 0 164 64" fill="none" xmlns="http://www.w3.org/2000/svg">
<path d="M96.1841 29.3605H92.8341V56.5105H96.1841V29.3605ZM108.284 32.3105H112.534V29.3605H100.734V32.3105H104.884V56.5105H108.284V32.3105ZM86.7841 31.7605V28.7605C86.0841 28.9272 85.4008 29.1439 84.7341 29.4105C84.0674 29.6772 83.4174 29.9939 82.7841 30.3605C80.5174 31.7939 78.7008 33.5772 77.3341 35.7105C76.0341 37.8772 75.3841 40.3272 75.3841 43.0605C75.3841 44.8939 75.6674 46.5605 76.2341 48.0605C76.8341 49.5272 77.6341 50.8439 78.6341 52.0105C79.6674 53.1439 80.9008 54.1439 82.3341 55.0105C83.7674 55.8772 85.3008 56.5939 86.9341 57.1605V40.4105H81.1341V43.2605H83.6841V52.0105C82.0841 50.9105 80.8508 49.5605 79.9841 47.9605C79.0841 46.3272 78.6341 44.5939 78.6341 42.7605C78.6341 41.4605 78.8508 40.2772 79.2841 39.2105C79.7508 38.0772 80.3508 37.0439 81.0841 36.1105C81.8174 35.1772 82.6841 34.3439 83.6841 33.6105C84.6841 32.9105 85.7174 32.2939 86.7841 31.7605ZM83.4841 6.56053H78.6841V21.6105H80.5841V14.2605H83.4841V12.6605H80.5841V8.11053H83.4841V6.56053ZM87.3341 7.71053C87.0341 8.11053 86.7841 8.59386 86.5841 9.16053C86.4508 9.66053 86.3341 10.1939 86.2341 10.7605C86.1341 11.3272 86.0841 11.8772 86.0841 12.4105C86.0508 12.9439 86.0341 13.4439 86.0341 13.9105C86.0341 14.3772 86.0341 14.8939 86.0341 15.4605C86.0674 16.0272 86.1341 16.5939 86.2341 17.1605C86.3008 17.7605 86.4174 18.3439 86.5841 18.9105C86.7508 19.4772 86.9841 19.9605 87.2841 20.3605C87.6174 20.8272 88.0008 21.1772 88.4341 21.4105C88.8674 21.7105 89.4008 21.8605 90.0341 21.8605C90.6341 21.8605 91.1674 21.7272 91.6341 21.4605C92.0341 21.2272 92.4008 20.9272 92.7341 20.5605C93.0008 20.1272 93.2174 19.6772 93.3841 19.2105C93.5841 18.6772 93.7174 18.1439 93.7841 17.6105C93.8841 17.0772 93.9508 16.5272 93.9841 15.9605C94.0174 15.4605 94.0341 14.9772 94.0341 14.5105C94.0341 14.0772 94.0341 13.5772 94.0341 13.0105C94.0008 12.4105 93.9508 11.8105 93.8841 11.2105C93.7841 10.6105 93.6508 10.0105 93.4841 9.41053C93.3174 8.81053 93.1008 8.29386 92.8341 7.86053C92.5341 7.39386 92.1508 7.02719 91.6841 6.76053C91.2508 6.49386 90.7008 6.36053 90.0341 6.36053C89.4008 6.36053 88.8674 6.47719 88.4341 6.71053C88.0008 6.97719 87.6341 7.31053 87.3341 7.71053ZM88.2341 10.5105C88.3341 10.0105 88.4508 9.57719 88.5841 9.21053C88.7508 8.84386 88.9341 8.52719 89.1341 8.26053C89.3674 8.06053 89.6674 7.96053 90.0341 7.96053C90.3674 7.96053 90.6508 8.07719 90.8841 8.31053C91.1174 8.57719 91.3174 8.91053 91.4841 9.31053C91.6174 9.71053 91.7174 10.1439 91.7841 10.6105C91.8508 11.1439 91.8841 11.6439 91.8841 12.1105C91.9174 12.6105 91.9341 13.0605 91.9341 13.4605C91.9341 13.8939 91.9341 14.2272 91.9341 14.4605C91.9341 14.6605 91.9341 14.9605 91.9341 15.3605C91.9341 15.6939 91.9174 16.0939 91.8841 16.5605C91.8508 16.9605 91.8008 17.3939 91.7341 17.8605C91.7008 18.2605 91.6008 18.6439 91.4341 19.0105C91.3008 19.3772 91.1174 19.6605 90.8841 19.8605C90.6508 20.0939 90.3674 20.2105 90.0341 20.2105C89.7008 20.2105 89.4174 20.0939 89.1841 19.8605C88.9508 19.6272 88.7674 19.3272 88.6341 18.9605C88.4674 18.5939 88.3508 18.1772 88.2841 17.7105C88.2174 17.2439 88.1674 16.7772 88.1341 16.3105C88.1008 15.8772 88.0841 15.4605 88.0841 15.0605C88.0841 14.6605 88.0841 14.3439 88.0841 14.1105C88.0841 13.8772 88.0841 13.5772 88.0841 13.2105C88.0841 12.7772 88.1008 12.3439 88.1341 11.9105C88.1341 11.4439 88.1674 10.9772 88.2341 10.5105ZM101.234 8.61053C100.667 8.01053 100.034 7.51053 99.3341 7.11053C98.6008 6.67719 97.8341 6.36053 97.0341 6.16053V21.6105H98.9341V19.0605L99.1841 18.9105L100.834 21.6105H102.884L100.634 18.0105C101.334 17.3439 101.901 16.5939 102.334 15.7605C102.801 14.9272 103.034 14.0272 103.034 13.0605C103.034 12.1939 102.867 11.3772 102.534 10.6105C102.201 9.87719 101.767 9.21053 101.234 8.61053ZM100.534 10.7605C100.734 11.1272 100.901 11.5105 101.034 11.9105C101.134 12.3105 101.184 12.7272 101.184 13.1605C101.184 13.5272 101.134 13.9105 101.034 14.3105C100.901 14.7105 100.734 15.0939 100.534 15.4605C100.334 15.7605 100.084 16.0605 99.7841 16.3605C99.5508 16.6605 99.2674 16.9105 98.9341 17.1105V8.91053C99.2674 9.14386 99.5508 9.41053 99.7841 9.71053C100.084 10.0439 100.334 10.3939 100.534 10.7605ZM107.434 6.56053H105.584V21.6105H107.434V14.9605L109.834 21.6105H111.834L108.934 13.5105L111.984 6.56053H109.934L107.434 12.3605V6.56053ZM146.934 29.3605H143.584V53.6605H138.184V29.3605H134.784V56.5105H146.934V29.3605ZM120.334 29.3605H116.934V56.5105H120.334V43.2605H125.684V56.5105H129.084V29.3605H125.684V40.4105H120.334V29.3605ZM123.134 20.5105L125.134 13.8605L126.134 21.6105H127.884L125.484 5.26053L123.134 13.8105L120.734 5.26053L118.434 21.6105H120.134L121.184 13.8605L123.134 20.5105ZM135.684 8.11053V6.56053H130.884V21.6105H136.034V20.0105H132.784V14.2605H135.684V12.6605H132.784V8.11053H135.684ZM148.634 6.76053C148.167 6.49386 147.601 6.36053 146.934 6.36053C146.334 6.36053 145.801 6.47719 145.334 6.71053C144.901 6.97719 144.534 7.31053 144.234 7.71053C143.967 8.11053 143.734 8.59386 143.534 9.16053C143.367 9.66053 143.234 10.1939 143.134 10.7605C143.034 11.3272 142.984 11.8772 142.984 12.4105C142.951 12.9439 142.934 13.4439 142.934 13.9105C142.934 14.3772 142.934 14.8939 142.934 15.4605C142.967 16.0272 143.034 16.5939 143.134 17.1605C143.201 17.7605 143.334 18.3439 143.534 18.9105C143.701 19.4772 143.917 19.9605 144.184 20.3605C144.517 20.8272 144.901 21.1772 145.334 21.4105C145.801 21.7105 146.334 21.8605 146.934 21.8605C147.534 21.8605 148.067 21.7272 148.534 21.4605C148.934 21.2272 149.301 20.9272 149.634 20.5605C149.934 20.1272 150.167 19.6772 150.334 19.2105C150.501 18.6772 150.617 18.1439 150.684 17.6105C150.784 17.0772 150.851 16.5272 150.884 15.9605C150.917 15.4605 150.934 14.9772 150.934 14.5105C150.934 14.0772 150.934 13.5772 150.934 13.0105C150.901 12.4105 150.851 11.8105 150.784 11.2105C150.684 10.6105 150.551 10.0105 150.384 9.41053C150.251 8.81053 150.034 8.29386 149.734 7.86053C149.434 7.39386 149.067 7.02719 148.634 6.76053ZM146.934 7.96053C147.301 7.96053 147.584 8.07719 147.784 8.31053C148.017 8.57719 148.217 8.91053 148.384 9.31053C148.517 9.71053 148.634 10.1439 148.734 10.6105C148.801 11.1439 148.834 11.6439 148.834 12.1105C148.867 12.6105 148.884 13.0605 148.884 13.4605C148.884 13.8939 148.884 14.2272 148.884 14.4605C148.884 14.6605 148.884 14.9605 148.884 15.3605C148.884 15.6939 148.867 16.0939 148.834 16.5605C148.801 16.9605 148.751 17.3939 148.684 17.8605C148.617 18.2605 148.501 18.6439 148.334 19.0105C148.201 19.3772 148.017 19.6605 147.784 19.8605C147.584 20.0939 147.301 20.2105 146.934 20.2105C146.601 20.2105 146.334 20.0939 146.134 19.8605C145.867 19.6272 145.667 19.3272 145.534 18.9605C145.367 18.5939 145.251 18.1772 145.184 17.7105C145.151 17.2439 145.117 16.7772 145.084 16.3105C145.051 15.8772 145.034 15.4605 145.034 15.0605C145.034 14.6605 145.034 14.3439 145.034 14.1105C145.034 13.8772 145.034 13.5772 145.034 13.2105C145.034 12.7772 145.051 12.3439 145.084 11.9105C145.084 11.4439 145.101 10.9772 145.134 10.5105C145.234 10.0105 145.351 9.57719 145.484 9.21053C145.651 8.84386 145.851 8.52719 146.084 8.26053C146.317 8.06053 146.601 7.96053 146.934 7.96053ZM163.234 36.5605C163.234 35.1272 162.901 33.9272 162.234 32.9605C161.567 31.9939 160.734 31.1939 159.734 30.5605C158.701 29.9605 157.567 29.5105 156.334 29.2105C155.067 28.9439 153.851 28.8105 152.684 28.8105V57.0605C153.051 57.0605 153.467 57.0605 153.934 57.0605C154.401 57.0272 154.884 56.9772 155.384 56.9105C155.851 56.8772 156.317 56.8105 156.784 56.7105C157.217 56.6105 157.617 56.4939 157.984 56.3605C158.784 56.0939 159.534 55.7105 160.234 55.2105C160.901 54.7439 161.484 54.2105 161.984 53.6105C162.484 52.9439 162.884 52.2272 163.184 51.4605C163.451 50.6939 163.584 49.8772 163.584 49.0105C163.584 47.7772 163.317 46.6272 162.784 45.5605C162.251 44.4605 161.551 43.5105 160.684 42.7105C161.417 41.8772 162.017 40.9272 162.484 39.8605C162.984 38.8272 163.234 37.7272 163.234 36.5605ZM158.684 33.7105C159.384 34.5105 159.734 35.4772 159.734 36.6105C159.734 37.8439 159.401 39.0105 158.734 40.1105C158.067 41.2105 157.267 42.1439 156.334 42.9105C156.867 43.2772 157.367 43.6605 157.834 44.0605C158.234 44.4605 158.617 44.8772 158.984 45.3105C159.317 45.7439 159.567 46.2439 159.734 46.8105C159.934 47.3439 160.034 47.9439 160.034 48.6105C160.034 49.2439 159.951 49.8605 159.784 50.4605C159.617 51.0272 159.367 51.5439 159.034 52.0105C158.667 52.4439 158.251 52.8105 157.784 53.1105C157.251 53.4105 156.667 53.6105 156.034 53.7105V32.1105C157.101 32.4105 157.984 32.9439 158.684 33.7105ZM158.734 6.56053V12.1605L154.034 6.01053V21.6105H155.884V11.2105L158.734 14.9605V21.6105H160.634V6.56053H158.734ZM62.2841 22.5105C61.2174 19.6105 59.9174 16.9439 58.3841 14.5105C57.5174 12.9439 56.4341 11.5105 55.1341 10.2105C54.8674 9.74386 54.5008 9.34386 54.0341 9.01053C53.4674 8.41053 52.7674 7.77719 51.9341 7.11053C51.5341 6.97719 51.2008 6.72719 50.9341 6.36053C50.8008 6.36053 50.6508 6.32719 50.4841 6.26053C50.2841 5.96053 50.0508 5.71053 49.7841 5.51053C49.6174 5.44386 49.4674 5.39386 49.3341 5.36053C49.2341 5.16053 49.1174 5.06053 48.9841 5.06053C48.8508 4.99386 48.7174 4.89386 48.5841 4.76053C48.3174 4.62719 48.0508 4.44386 47.7841 4.21053C47.6508 4.14386 47.5174 4.11053 47.3841 4.11053C47.2508 4.01053 47.1174 3.92719 46.9841 3.86053V3.76053H46.6341V3.56053H46.4841C46.4174 3.49386 46.3174 3.46053 46.1841 3.46053V3.36053H45.7841C45.7841 3.22719 45.7508 3.16053 45.6841 3.16053C45.6174 3.09386 45.5174 3.06053 45.3841 3.06053V2.96053H45.0341C45.0341 2.82719 45.0008 2.76053 44.9341 2.76053C44.6341 2.62719 44.3508 2.49386 44.0841 2.36053C44.0508 2.29386 43.9341 2.26053 43.7341 2.26053C43.5341 2.26053 43.4341 2.22719 43.4341 2.16053H43.3341C42.9674 2.02719 42.6674 1.89386 42.4341 1.76053C42.3008 1.76053 42.1674 1.76053 42.0341 1.76053C41.9008 1.76053 41.8341 1.69386 41.8341 1.56053C41.7674 1.49386 41.7008 1.46053 41.6341 1.46053C41.5008 1.46053 41.4008 1.44386 41.3341 1.41053C40.7341 1.17719 40.1008 0.960526 39.4341 0.760526C36.9341 0.19386 34.1341 -0.0561404 31.0341 0.0105263C29.7008 0.0105263 28.3841 0.0938597 27.0841 0.260526C26.2174 0.460526 25.3174 0.627193 24.3841 0.760526C22.9841 1.19386 21.6174 1.66053 20.2841 2.16053C20.0841 2.16053 19.9508 2.16053 19.8841 2.16053C19.8174 2.22719 19.6841 2.29386 19.4841 2.36053C19.3174 2.36053 19.2008 2.42719 19.1341 2.56053H18.8341C18.8341 2.62719 18.7841 2.66053 18.6841 2.66053L18.5841 2.76053C18.4508 2.89386 18.3174 2.96053 18.1841 2.96053H17.9841L17.6341 3.36053H17.2341C17.2341 3.42719 17.2008 3.46053 17.1341 3.46053L16.7841 3.76053H16.6341C16.5008 3.76053 16.4341 3.79386 16.4341 3.86053C16.3674 3.86053 16.2341 3.89386 16.0341 3.96053C15.7674 4.12719 15.5008 4.32719 15.2341 4.56053C15.1674 4.69386 15.0008 4.82719 14.7341 4.96053C14.6674 5.02719 14.5674 5.09386 14.4341 5.16053C14.3674 5.16053 14.3008 5.22719 14.2341 5.36053C14.0674 5.39386 13.8341 5.51053 13.5341 5.71053C13.2674 5.77719 13.1008 5.92719 13.0341 6.16053C12.9008 6.16053 12.8341 6.19386 12.8341 6.26053C12.8008 6.26053 12.7841 6.29386 12.7841 6.36053C10.8508 7.59386 9.15076 9.02719 7.68409 10.6605C7.08409 11.4272 6.56742 12.2105 6.13409 13.0105H6.03409C5.96742 13.0105 5.93409 13.0439 5.93409 13.1105V13.2605C4.13409 15.7272 2.66742 18.5105 1.53409 21.6105C0.0340911 25.9105 -0.365909 30.9105 0.334091 36.6105C0.600757 38.5772 1.00076 40.5605 1.53409 42.5605C1.86742 43.3605 2.20076 44.1772 2.53409 45.0105C4.23409 48.6772 6.35076 51.8272 8.88409 54.4605C9.08409 54.6605 9.28409 54.8272 9.48409 54.9605C10.9174 56.2939 12.5008 57.5605 14.2341 58.7605C14.3008 58.8605 14.4341 58.9105 14.6341 58.9105C14.7674 59.1105 14.9341 59.2439 15.1341 59.3105C15.2008 59.4439 15.3341 59.5439 15.5341 59.6105C15.6008 59.6105 15.6341 59.6439 15.6341 59.7105C15.7674 59.7105 15.8674 59.7105 15.9341 59.7105V59.9105C15.9674 59.9105 16.0174 59.9272 16.0841 59.9605C16.1174 59.9939 16.1674 60.0272 16.2341 60.0605H16.3341V60.1605H16.6341C16.6674 60.1605 16.6841 60.2105 16.6841 60.3105C16.7508 60.3105 16.7841 60.3439 16.7841 60.4105H17.1341V60.5105C17.2008 60.5105 17.3008 60.5105 17.4341 60.5105C17.5008 60.5105 17.5341 60.5772 17.5341 60.7105C17.6008 60.7772 17.7008 60.8105 17.8341 60.8105C17.9008 60.8772 18.0174 60.9105 18.1841 60.9105L18.2841 61.1105V61.2105C18.4841 61.2772 18.6674 61.3105 18.8341 61.3105C18.9674 61.3105 19.0674 61.3105 19.1341 61.3105C19.1341 61.4439 19.1674 61.5105 19.2341 61.5105C19.3341 61.5105 19.4174 61.5272 19.4841 61.5605C19.6174 61.5939 19.7508 61.6439 19.8841 61.7105C20.1174 61.8105 20.3841 61.9439 20.6841 62.1105C20.9508 62.2439 21.2174 62.3439 21.4841 62.4105C21.6841 62.4105 21.8174 62.4439 21.8841 62.5105C22.0841 62.5105 22.2174 62.5105 22.2841 62.5105C29.6174 64.6772 36.5841 64.4772 43.1841 61.9105C43.2841 61.9105 43.3341 61.8439 43.3341 61.7105H43.7341V61.5605C43.9341 61.5605 44.0841 61.5439 44.1841 61.5105C44.3174 61.3772 44.4508 61.3105 44.5841 61.3105C44.7174 61.3105 44.8674 61.2772 45.0341 61.2105V61.1105C45.1674 60.9772 45.2674 60.9105 45.3341 60.9105H45.3841C45.5174 60.9105 45.6174 60.9105 45.6841 60.9105C45.7508 60.8439 45.7841 60.7772 45.7841 60.7105L45.9841 60.5105C46.0508 60.5105 46.1174 60.5105 46.1841 60.5105C46.3174 60.4439 46.4674 60.4105 46.6341 60.4105V60.3105C46.7341 60.2105 46.8174 60.1605 46.8841 60.1605C46.9508 60.1605 46.9841 60.1272 46.9841 60.0605C47.1508 60.0605 47.2674 60.0272 47.3341 59.9605C47.3674 59.9605 47.3841 59.9439 47.3841 59.9105C47.5841 59.7772 47.7174 59.6772 47.7841 59.6105C47.9508 59.5439 48.0841 59.4439 48.1841 59.3105C48.3174 59.3105 48.4508 59.2772 48.5841 59.2105C48.5841 59.1439 48.5841 59.0439 48.5841 58.9105C48.7841 58.9105 48.9174 58.9105 48.9841 58.9105V58.8605C49.1174 58.8605 49.2174 58.8605 49.2841 58.8605V58.7605H49.3341C49.3341 58.6272 49.4008 58.5605 49.5341 58.5605C49.8341 58.3939 50.0508 58.2105 50.1841 58.0105C50.4508 57.9439 50.6341 57.8439 50.7341 57.7105C50.8008 57.6439 50.8674 57.6105 50.9341 57.6105C50.9341 57.5772 50.9341 57.4939 50.9341 57.3605H51.1341C51.2008 57.3605 51.2674 57.3605 51.3341 57.3605C51.5008 57.2272 51.6508 57.0605 51.7841 56.8605C52.0174 56.6272 52.3341 56.3939 52.7341 56.1605C52.8008 56.0939 52.9508 55.9605 53.1841 55.7605H53.3341V55.6605L53.5341 55.5605V55.3605C53.6008 55.3605 53.6341 55.3272 53.6341 55.2605C53.8341 55.1939 53.9341 55.0939 53.9341 54.9605C54.0674 54.8272 54.2341 54.6605 54.4341 54.4605C57.4008 51.4605 59.7508 47.7772 61.4841 43.4105C63.1174 39.4105 63.7174 34.5605 63.2841 28.8605C63.1508 26.5939 62.8174 24.4772 62.2841 22.5105ZM45.9841 9.41053C46.0508 9.41053 46.1174 9.41053 46.1841 9.41053C47.5174 10.3772 48.8508 11.4272 50.1841 12.5605C53.2841 15.5605 55.5841 19.3605 57.0841 23.9605C57.9174 26.3272 58.3508 28.9772 58.3841 31.9105C58.1508 37.7105 56.8341 42.4105 54.4341 46.0105C53.3008 47.9439 51.9508 49.6605 50.3841 51.1605C50.2508 51.2272 50.1174 51.2939 49.9841 51.3605C49.2508 52.1605 48.3841 52.9439 47.3841 53.7105C46.9841 53.9439 46.6508 54.1939 46.3841 54.4605C46.2508 54.5272 46.1508 54.5605 46.0841 54.5605C46.0174 54.5605 45.9174 54.5605 45.7841 54.5605V54.7605H45.6841C45.6841 54.8272 45.6508 54.8605 45.5841 54.8605C45.4508 54.9272 45.3674 54.9605 45.3341 54.9605C45.1341 55.0939 45.0341 55.1939 45.0341 55.2605C44.9674 55.2605 44.8841 55.2939 44.7841 55.3605H44.5841C44.5174 55.3605 44.4508 55.4272 44.3841 55.5605L44.0841 55.7605C44.0508 55.7605 43.9674 55.7605 43.8341 55.7605H43.7341C43.7341 55.8939 43.7008 55.9605 43.6341 55.9605L43.4341 56.0605C43.2674 56.1272 43.1174 56.1605 42.9841 56.1605H42.8841C42.8841 56.2605 42.8508 56.3105 42.7841 56.3105C42.6841 56.3772 42.6008 56.4105 42.5341 56.4105C42.4674 56.4105 42.3674 56.4439 42.2341 56.5105H42.1341L42.0341 56.7105C41.9008 56.7105 41.8008 56.7105 41.7341 56.7105V56.8605H41.6341V56.9605C41.2341 56.9605 40.9008 57.0272 40.6341 57.1605C40.3674 57.2272 40.1841 57.2939 40.0841 57.3605C39.7841 57.5272 39.6341 57.5272 39.6341 57.3605C39.6341 56.4272 39.6341 55.4605 39.6341 54.4605C39.6341 52.3939 39.6341 50.3105 39.6341 48.2105C39.5008 46.3105 38.9674 44.7772 38.0341 43.6105C37.9008 43.6105 37.8008 43.5439 37.7341 43.4105C37.7341 43.3439 37.7008 43.3105 37.6341 43.3105C37.5341 43.3105 37.4841 43.2272 37.4841 43.0605V42.9605C37.4174 42.9605 37.3508 42.9605 37.2841 42.9605H37.0841C37.0841 42.8939 37.0508 42.8605 36.9841 42.8605C36.9841 42.7272 36.9508 42.6605 36.8841 42.6605V42.5605C37.7841 42.3605 38.7008 42.2272 39.6341 42.1605C41.2341 41.7605 42.7174 41.2939 44.0841 40.7605L44.1841 40.6605H44.3841V40.6105C44.4508 40.6105 44.5174 40.6105 44.5841 40.6105C44.7174 40.6105 44.8341 40.5272 44.9341 40.3605L45.0341 40.2605V40.1605C45.1674 40.1605 45.2674 40.1605 45.3341 40.1605C45.3674 40.1605 45.3841 40.0939 45.3841 39.9605C45.5174 39.9605 45.6174 39.9272 45.6841 39.8605H45.7841C45.9174 39.7939 46.0508 39.6939 46.1841 39.5605C47.2508 38.7605 48.1174 37.7772 48.7841 36.6105C49.0508 36.0772 49.3008 35.4772 49.5341 34.8105C50.2341 32.8105 50.4508 30.5272 50.1841 27.9605C50.0508 26.6605 49.7174 25.5105 49.1841 24.5105V24.1105C48.9174 23.7772 48.6508 23.3772 48.3841 22.9105C48.1508 22.5105 47.8841 22.1105 47.5841 21.7105C47.4508 21.6439 47.3508 21.4772 47.2841 21.2105C47.3508 20.8105 47.4841 20.4105 47.6841 20.0105C47.8841 18.8439 47.8841 17.5939 47.6841 16.2605C47.6174 15.8605 47.5174 15.3939 47.3841 14.8605C47.3841 14.7272 47.3508 14.6272 47.2841 14.5605C47.2841 14.3605 47.1841 14.2272 46.9841 14.1605C46.9841 14.0939 46.9508 13.9605 46.8841 13.7605H46.7841C46.7841 13.6939 46.7841 13.5605 46.7841 13.3605C45.8174 13.3605 44.8341 13.4939 43.8341 13.7605C43.5008 13.8272 43.1508 13.9605 42.7841 14.1605H42.6341C42.3674 14.1605 42.2341 14.1939 42.2341 14.2605C42.1008 14.4272 41.9674 14.5272 41.8341 14.5605H41.7341C41.5341 14.6272 41.3674 14.7272 41.2341 14.8605C40.5674 15.2605 39.9008 15.6939 39.2341 16.1605C38.9674 16.4272 38.6341 16.5605 38.2341 16.5605C33.7341 15.6939 29.3341 15.7272 25.0341 16.6605C24.9674 16.5939 24.8341 16.5272 24.6341 16.4605C24.5674 16.3272 24.4508 16.2272 24.2841 16.1605C24.0841 16.0939 23.9508 15.9772 23.8841 15.8105C23.8841 15.7772 23.7674 15.7605 23.5341 15.7605C23.3008 15.5605 23.0508 15.4272 22.7841 15.3605C22.6508 15.1605 22.4841 14.9939 22.2841 14.8605C22.2174 14.7272 22.0841 14.6605 21.8841 14.6605V14.5605H21.4841L21.3841 14.5105L21.0841 14.2605L20.9841 14.1605C20.8508 14.1605 20.7508 14.1605 20.6841 14.1605C20.6174 14.0939 20.4841 13.9939 20.2841 13.8605C20.2174 13.8605 20.1174 13.8605 19.9841 13.8605L19.8841 13.7605C19.5508 13.7605 19.2008 13.7272 18.8341 13.6605C18.1674 13.4605 17.4341 13.3605 16.6341 13.3605V13.7605C15.9008 15.1272 15.6341 16.8439 15.8341 18.9105C15.9008 19.7105 15.9674 20.5105 16.0341 21.3105C14.6008 22.8772 13.7341 25.0939 13.4341 27.9605C13.1674 30.5272 13.3174 32.8105 13.8841 34.8105L13.9841 35.0105C14.4841 36.4772 15.1674 37.6605 16.0341 38.5605C16.4674 39.0939 17.0674 39.5272 17.8341 39.8605C17.9008 39.9272 17.9508 40.0272 17.9841 40.1605H18.2841V40.2605H18.5841C18.5841 40.3272 18.6174 40.3605 18.6841 40.3605V40.6105H19.1341L19.2341 40.7605C19.3341 40.7605 19.4174 40.7605 19.4841 40.7605C19.4841 40.8939 19.5174 40.9605 19.5841 40.9605C20.0508 41.0939 20.5508 41.2272 21.0841 41.3605C22.8841 41.8939 24.7341 42.2939 26.6341 42.5605C26.3008 42.8272 26.0174 43.0772 25.7841 43.3105C25.2841 43.8772 24.8674 44.5605 24.5341 45.3605C24.3674 45.6939 24.1508 45.9772 23.8841 46.2105C23.5174 46.4105 23.1174 46.5439 22.6841 46.6105C21.2841 46.9105 19.9508 46.8772 18.6841 46.5105C17.3174 45.7439 16.1674 44.6772 15.2341 43.3105C14.9008 42.6772 14.4841 42.1605 13.9841 41.7605L13.8841 41.5605H13.6341V41.4605C13.0008 41.1272 12.0841 40.9939 10.8841 41.0605C10.7508 41.0605 10.6008 41.1605 10.4341 41.3605C12.0341 42.6605 13.3008 44.2439 14.2341 46.1105C14.9008 47.6772 15.9008 48.8939 17.2341 49.7605C17.4341 49.7605 17.5674 49.7605 17.6341 49.7605C19.6008 50.5939 21.6841 50.8439 23.8841 50.5105C23.8841 51.0772 23.8841 51.6439 23.8841 52.2105C23.8841 52.9105 23.8841 53.6605 23.8841 54.4605C23.8841 54.9272 23.8841 55.3605 23.8841 55.7605C23.8841 56.2605 23.8841 56.7939 23.8841 57.3605C23.5174 57.4939 23.1508 57.4605 22.7841 57.2605C22.7174 57.1939 22.5508 57.0939 22.2841 56.9605C22.2174 56.9605 22.1008 56.9605 21.9341 56.9605C21.9008 56.9605 21.8841 56.9272 21.8841 56.8605H21.5841V56.7105C21.5174 56.5772 21.3841 56.5105 21.1841 56.5105H20.9841C20.8508 56.4439 20.7508 56.3772 20.6841 56.3105H20.4341C20.4341 56.2105 20.3841 56.1605 20.2841 56.1605C20.2174 56.1605 20.0841 56.1272 19.8841 56.0605V55.9605H19.5841C19.5174 55.8272 19.4508 55.7605 19.3841 55.7605H19.2341C19.1674 55.6939 19.1341 55.6272 19.1341 55.5605H19.0341V55.3605H18.6841C18.4841 55.2272 18.3508 55.0939 18.2841 54.9605C18.0841 54.9605 17.9674 54.9605 17.9341 54.9605C17.9341 54.8939 17.9008 54.8605 17.8341 54.8605V54.7605H17.5341V54.5605H17.4341C17.3008 54.5605 17.2341 54.5272 17.2341 54.4605C17.1674 54.3939 17.0841 54.2939 16.9841 54.1605C16.7841 54.0939 16.5674 53.9605 16.3341 53.7605L16.0341 53.7105C15.9674 53.7105 15.9341 53.6772 15.9341 53.6105L15.8341 53.3605H15.6341C15.3008 53.0939 15.0008 52.8939 14.7341 52.7605C14.4674 52.3939 14.1841 52.1439 13.8841 52.0105C13.6508 51.8439 13.5341 51.6939 13.5341 51.5605C13.2008 51.2939 12.8508 50.9772 12.4841 50.6105C12.3508 50.3105 12.1341 50.0939 11.8341 49.9605C11.6341 49.8272 11.5341 49.6439 11.5341 49.4105C11.5008 49.4105 11.4174 49.4105 11.2841 49.4105C9.08409 46.7772 7.41742 43.6272 6.28409 39.9605C5.48409 37.7272 5.08409 35.0439 5.08409 31.9105C5.08409 29.5439 5.36742 27.3939 5.93409 25.4605C6.16742 24.5605 6.41742 23.5772 6.68409 22.5105C7.48409 20.6772 8.41743 18.9105 9.48409 17.2105C10.1174 16.2439 10.8008 15.2605 11.5341 14.2605H11.6341L11.8341 14.1605C12.7008 13.0939 13.7674 12.0772 15.0341 11.1105C15.6341 10.7105 16.2174 10.2439 16.7841 9.71053C17.0174 9.71053 17.1674 9.64386 17.2341 9.51053C17.3674 9.44386 17.4674 9.41053 17.5341 9.41053C17.6008 9.41053 17.7008 9.31053 17.8341 9.11053L17.9341 9.01053C17.9674 9.01053 18.0508 9.01053 18.1841 9.01053L18.2841 8.91053C18.3508 8.77719 18.4841 8.67719 18.6841 8.61053C18.7841 8.61053 18.9008 8.57719 19.0341 8.51053C19.1008 8.51053 19.1341 8.44386 19.1341 8.31053C19.2008 8.31053 19.2341 8.27719 19.2341 8.21053H19.3841C19.4508 8.21053 19.5174 8.21053 19.5841 8.21053L19.9841 7.86053H20.1841C20.2508 7.76053 20.3841 7.71053 20.5841 7.71053C20.6508 7.71053 20.7174 7.64386 20.7841 7.51053C20.9174 7.51053 20.9841 7.47719 20.9841 7.41053H21.0841C21.1508 7.41053 21.2508 7.41053 21.3841 7.41053H21.4841V7.11053C21.5508 7.11053 21.6508 7.11053 21.7841 7.11053C21.8508 7.11053 21.8841 7.07719 21.8841 7.01053C21.9174 7.01053 22.0174 7.01053 22.1841 7.01053C22.4508 6.94386 22.6508 6.82719 22.7841 6.66053C23.0508 6.66053 23.3008 6.62719 23.5341 6.56053C23.7008 6.42719 23.8174 6.36053 23.8841 6.36053L24.1841 6.26053C26.1508 5.66053 28.4508 5.29386 31.0841 5.16053C34.4174 5.29386 37.3341 5.69386 39.8341 6.36053C40.1008 6.56053 40.3341 6.66053 40.5341 6.66053C40.8674 6.82719 41.1674 6.94386 41.4341 7.01053C41.7008 7.07719 41.9341 7.17719 42.1341 7.31053C42.4008 7.44386 42.6841 7.62719 42.9841 7.86053C43.2174 7.86053 43.3674 7.89386 43.4341 7.96053C43.5674 8.06053 43.6674 8.11053 43.7341 8.11053L43.8341 8.21053H44.0341C44.0674 8.21053 44.1174 8.24386 44.1841 8.31053C44.3174 8.31053 44.3841 8.37719 44.3841 8.51053C44.4508 8.51053 44.5174 8.54386 44.5841 8.61053C44.7174 8.61053 44.8341 8.61053 44.9341 8.61053L45.0341 8.71053V8.91053C45.2341 8.91053 45.3508 8.94386 45.3841 9.01053L45.6841 9.11053C45.7508 9.31053 45.8508 9.41053 45.9841 9.41053Z" fill="#9D9E9E"/>
</svg>
