<svg width="158" height="126" viewBox="0 0 158 126" fill="none" xmlns="http://www.w3.org/2000/svg">
<g opacity="0.75" clip-path="url(#clip0)">
<path d="M141.2 19.05H57.8002V102.45H141.2V19.05Z" fill="black"/>
</g>
<g opacity="0.75">
<path d="M37.75 99L37.8 105.3C37.8 105.533 37.8 105.767 37.8 106C37.8667 107.867 38.1333 109.583 38.6 111.15C39.4333 114.083 40.95 116.3 43.15 117.8C45.5167 119.4 48.6667 120.2 52.6 120.2H59V123H50.35C45.35 122.833 41.5667 121.433 39 118.8C37.5333 117.267 36.4667 115.333 35.8 113C35.3333 111.3 35.0667 109.433 35 107.4V99H37.75Z" fill="#9D9E9E"/>
<path d="M35.0938 99L35.15 106.088C35.15 106.35 35.15 106.613 35.15 106.875C35.225 108.975 35.525 110.906 36.05 112.669C36.9875 115.969 38.6938 118.462 41.1687 120.15C43.8312 121.95 47.375 122.85 51.8 122.85H59V126H49.2688C43.6438 125.812 39.3875 124.237 36.5 121.275C34.85 119.55 33.65 117.375 32.9 114.75C32.375 112.837 32.075 110.737 32 108.45V99H35.0938Z" fill="black"/>
<g clip-path="url(#clip1)">
<path d="M37.75 99H36.4L43.45 94.3H60.3V120.2H52.6C48.6667 120.2 45.5167 119.4 43.15 117.8C40.95 116.3 39.4334 114.083 38.6 111.15C38.1334 109.583 37.8667 107.867 37.8 106C37.8 105.767 37.8 105.533 37.8 105.3L37.75 99Z" fill="black"/>
</g>
</g>
<g opacity="0.75">
<path d="M37.75 27L37.8 20.7C37.8 20.4667 37.8 20.2333 37.8 20C37.8667 18.1333 38.1333 16.4167 38.6 14.85C39.4333 11.9167 40.95 9.7 43.15 8.2C45.5167 6.6 48.6667 5.8 52.6 5.8H59V3H50.35C45.35 3.16667 41.5667 4.56667 39 7.2C37.5333 8.73333 36.4667 10.6667 35.8 13C35.3333 14.7 35.0667 16.5667 35 18.6V27H37.75Z" fill="#9D9E9E"/>
<path d="M35.0938 27L35.15 19.9125C35.15 19.65 35.15 19.3875 35.15 19.125C35.225 17.025 35.525 15.0938 36.05 13.3313C36.9875 10.0312 38.6938 7.5375 41.1687 5.85C43.8312 4.05 47.375 3.15 51.8 3.15H59V0H49.2688C43.6438 0.1875 39.3875 1.7625 36.5 4.725C34.85 6.45 33.65 8.625 32.9 11.25C32.375 13.1625 32.075 15.2625 32 17.55V27H35.0938Z" fill="black"/>
<g clip-path="url(#clip2)">
<path d="M37.75 27H36.4L43.45 31.7H60.3V5.80001H52.6C48.6667 5.80001 45.5167 6.60001 43.15 8.20001C40.95 9.70001 39.4334 11.9167 38.6 14.85C38.1334 16.4167 37.8667 18.1333 37.8 20C37.8 20.2333 37.8 20.4667 37.8 20.7L37.75 27Z" fill="black"/>
</g>
</g>
<g opacity="0.75">
<g clip-path="url(#clip3)">
<path d="M35 24.3L37.75 25.8V95.4C37.75 96.1 37.75 96.75 37.75 97.35C37.75 98.65 37.7667 99.8 37.8 100.8L35 100.2C35 100.1 35 99.65 35 98.85V24.3Z" fill="#9D9E9E"/>
</g>
<g clip-path="url(#clip4)">
<path d="M31.9999 24.3L35.0937 25.8V95.4C35.0937 96.1 35.0937 96.75 35.0937 97.35C35.0937 98.65 35.1124 99.8 35.1499 100.8L31.9999 100.2C31.9999 100.1 31.9999 99.65 31.9999 98.85V24.3Z" fill="black"/>
</g>
<g clip-path="url(#clip5)">
<path d="M37.75 99C37.75 98.8547 37.75 98.3047 37.75 97.35C37.75 96.75 37.75 96.1 37.75 95.4V25.8H59.15V99H37.75Z" fill="black"/>
</g>
</g>
<g opacity="0.75">
<path d="M152.25 99L152.2 105.3C152.2 105.533 152.2 105.767 152.2 106C152.133 107.867 151.867 109.583 151.4 111.15C150.567 114.083 149.05 116.3 146.85 117.8C144.483 119.4 141.333 120.2 137.4 120.2H131V123H139.65C144.65 122.833 148.433 121.433 151 118.8C152.467 117.267 153.533 115.333 154.2 113C154.667 111.3 154.933 109.433 155 107.4V99H152.25Z" fill="#9D9E9E"/>
<path d="M154.906 99L154.85 106.088C154.85 106.35 154.85 106.613 154.85 106.875C154.775 108.975 154.475 110.906 153.95 112.669C153.012 115.969 151.306 118.462 148.831 120.15C146.169 121.95 142.625 122.85 138.2 122.85H131V126H140.731C146.356 125.812 150.612 124.237 153.5 121.275C155.15 119.55 156.35 117.375 157.1 114.75C157.625 112.837 157.925 110.737 158 108.45V99H154.906Z" fill="black"/>
<g clip-path="url(#clip6)">
<path d="M152.25 99H153.6L146.55 94.3H129.7V120.2H137.4C141.333 120.2 144.483 119.4 146.85 117.8C149.05 116.3 150.567 114.083 151.4 111.15C151.867 109.583 152.133 107.867 152.2 106C152.2 105.767 152.2 105.533 152.2 105.3L152.25 99Z" fill="black"/>
</g>
</g>
<g opacity="0.75">
<path d="M152.25 27L152.2 20.7C152.2 20.4667 152.2 20.2333 152.2 20C152.133 18.1333 151.867 16.4167 151.4 14.85C150.567 11.9167 149.05 9.7 146.85 8.2C144.483 6.6 141.333 5.8 137.4 5.8H131V3H139.65C144.65 3.16667 148.433 4.56667 151 7.2C152.467 8.73333 153.533 10.6667 154.2 13C154.667 14.7 154.933 16.5667 155 18.6V27H152.25Z" fill="#9D9E9E"/>
<path d="M154.906 27L154.85 19.9125C154.85 19.65 154.85 19.3875 154.85 19.125C154.775 17.025 154.475 15.0938 153.95 13.3313C153.012 10.0312 151.306 7.5375 148.831 5.85C146.169 4.05 142.625 3.15 138.2 3.15H131V0H140.731C146.356 0.1875 150.612 1.7625 153.5 4.725C155.15 6.45 156.35 8.625 157.1 11.25C157.625 13.1625 157.925 15.2625 158 17.55V27H154.906Z" fill="black"/>
<g clip-path="url(#clip7)">
<path d="M152.25 27H153.6L146.55 31.7H129.7V5.80001H137.4C141.333 5.80001 144.483 6.60001 146.85 8.20001C149.05 9.70001 150.567 11.9167 151.4 14.85C151.867 16.4167 152.133 18.1333 152.2 20C152.2 20.2333 152.2 20.4667 152.2 20.7L152.25 27Z" fill="black"/>
</g>
</g>
<g opacity="0.75">
<g clip-path="url(#clip8)">
<path d="M155 24.3L152.25 25.8V95.4C152.25 96.1 152.25 96.75 152.25 97.35C152.25 98.65 152.233 99.8 152.2 100.8L155 100.2C155 100.1 155 99.65 155 98.85V24.3Z" fill="#9D9E9E"/>
</g>
<g clip-path="url(#clip9)">
<path d="M158 24.3L154.906 25.8V95.4C154.906 96.1 154.906 96.75 154.906 97.35C154.906 98.65 154.887 99.8 154.85 100.8L158 100.2C158 100.1 158 99.65 158 98.85V24.3Z" fill="black"/>
</g>
<g clip-path="url(#clip10)">
<path d="M152.25 99C152.25 98.8547 152.25 98.3047 152.25 97.35C152.25 96.75 152.25 96.1 152.25 95.4V25.8H130.85V99H152.25Z" fill="black"/>
</g>
</g>
<g opacity="0.75">
<g clip-path="url(#clip11)">
<path d="M133.7 2.99999L132.2 5.74999L62.6 5.74999C61.9 5.74999 61.2499 5.74999 60.6499 5.74999C59.35 5.74999 58.2 5.76665 57.2 5.79998L57.8 2.99999C57.9 2.99999 58.35 2.99999 59.1499 2.99999L133.7 2.99999Z" fill="#9D9E9E"/>
</g>
<g clip-path="url(#clip12)">
<path d="M133.7 -3.8147e-06L132.2 3.09374L62.6 3.09374C61.9 3.09374 61.2499 3.09374 60.6499 3.09374C59.35 3.09374 58.2 3.11249 57.2 3.14999L57.8 -7.13239e-06C57.9 -7.12802e-06 58.35 -7.10835e-06 59.1499 -7.07338e-06L133.7 -3.8147e-06Z" fill="black"/>
</g>
<g clip-path="url(#clip13)">
<path d="M59 5.74999C59.1453 5.74999 59.6953 5.74999 60.6499 5.74999C61.2499 5.74999 61.9 5.74999 62.6 5.74999L132.2 5.74999L132.2 27.15L59 27.15L59 5.74999Z" fill="black"/>
</g>
</g>
<g opacity="0.75">
<g clip-path="url(#clip14)">
<path d="M56.3 123L57.8 120.25L127.4 120.25C128.1 120.25 128.75 120.25 129.35 120.25C130.65 120.25 131.8 120.233 132.8 120.2L132.2 123C132.1 123 131.65 123 130.85 123L56.3 123Z" fill="#9D9E9E"/>
</g>
<g clip-path="url(#clip15)">
<path d="M56.3 126L57.8 122.906L127.4 122.906C128.1 122.906 128.75 122.906 129.35 122.906C130.65 122.906 131.8 122.888 132.8 122.85L132.2 126C132.1 126 131.65 126 130.85 126L56.3 126Z" fill="black"/>
</g>
<g clip-path="url(#clip16)">
<path d="M131 120.25C130.855 120.25 130.305 120.25 129.35 120.25C128.75 120.25 128.1 120.25 127.4 120.25L57.8 120.25L57.8 98.85L131 98.85L131 120.25Z" fill="black"/>
</g>
</g>
<g clip-path="url(#clip17)">
<path d="M38.7251 79L38.7251 76.9L30.2001 76.9L18.3251 65.6L21.0501 63.4L22.0501 64.225L20.5501 65.8L30.8001 75.525L30.8001 75.5L38.7251 75.5L38.7251 50.5L30.9501 50.5L23.6251 57.45L23.4751 57.45L22.5751 56.55L30.4251 49.1L38.7251 49.1L38.7251 47L29.5751 47L22.0501 54.475L20.0501 52.65L6.7251 63L20.0001 73.675L21.9501 71.6L29.8751 79L38.7251 79ZM19.8001 68.925L20.8251 68.4L21.6001 69.25L19.8751 70.7L10.0751 62.975L20.0001 55.225L24.8001 59.25L23.9251 60.1L19.9501 57.3L12.5501 62.95L19.8001 68.925ZM23.6001 67.775L22.6251 66.775L27.3001 63L26.1001 61.525L26.9501 60.95L29.5251 63.125L23.6001 67.775ZM28.3501 69L25.8501 66.775L26.7501 65.875L28.8001 67.425C30.0001 67.4917 30.6751 67.475 30.8251 67.375L30.8501 58.45L29.0001 58.45L24.1251 62.45L22.9751 61.7L28.5001 56.975L31.9251 56.975C31.9418 57.775 31.9584 59.15 31.9751 61.1C31.9918 63.0667 32.0084 65.7 32.0251 69L28.3501 69ZM24.6751 64.2L23.7001 64.95L18.2001 60.475L20.5751 58.175L21.5751 59.2L20.4251 60.1L24.6751 64.2Z" fill="black" fill-opacity="0.75"/>
<path d="M23.4751 57.425L23.6251 57.425L30.9501 50.475L38.7251 50.475L38.7251 49.075L30.4251 49.075L22.5751 56.525L23.4751 57.425ZM23.7001 64.925L24.6751 64.175L20.4251 60.075L21.5751 59.175L20.5751 58.15L18.2001 60.45L23.7001 64.925ZM30.8001 75.475L30.8001 75.5L20.5501 65.775L22.0501 64.2L21.0501 63.375L18.3251 65.575L30.2001 76.875L38.7251 76.875L38.7251 75.475L30.8001 75.475ZM25.8501 66.75L28.3501 68.975L32.0251 68.975C32.0084 65.675 31.9918 63.0417 31.9751 61.075C31.9584 59.125 31.9418 57.75 31.9251 56.95L28.5001 56.95L22.9751 61.675L24.1251 62.425L29.0001 58.425L30.8501 58.425L30.8251 67.35C30.6751 67.45 30.0001 67.4667 28.8001 67.4L26.7501 65.85L25.8501 66.75ZM22.6251 66.75L23.6001 67.75L29.5251 63.1L26.9501 60.925L26.1001 61.5L27.3001 62.975L22.6251 66.75ZM21.6001 69.225L20.8251 68.375L19.8001 68.9L12.5501 62.925L19.9501 57.275L23.9251 60.075L24.8001 59.225L20.0001 55.2L10.0751 62.95L19.8751 70.675L21.6001 69.225Z" fill="#9D9E9E" fill-opacity="0.75"/>
</g>
<defs>
<clipPath id="clip0">
<rect width="72" height="72" fill="white" transform="translate(59 27)"/>
</clipPath>
<clipPath id="clip1">
<rect width="24" height="24" fill="white" transform="matrix(-1 0 0 1 59 99)"/>
</clipPath>
<clipPath id="clip2">
<rect width="24" height="24" fill="white" transform="translate(59 27) rotate(-180)"/>
</clipPath>
<clipPath id="clip3">
<rect width="24" height="72" fill="white" transform="matrix(-1 0 0 1 59 27)"/>
</clipPath>
<clipPath id="clip4">
<rect width="27" height="72" fill="white" transform="matrix(-1 0 0 1 59 27)"/>
</clipPath>
<clipPath id="clip5">
<rect width="24" height="72" fill="white" transform="matrix(-1 0 0 1 59 27)"/>
</clipPath>
<clipPath id="clip6">
<rect width="24" height="24" fill="white" transform="translate(131 99)"/>
</clipPath>
<clipPath id="clip7">
<rect width="24" height="24" fill="white" transform="matrix(1 0 0 -1 131 27)"/>
</clipPath>
<clipPath id="clip8">
<rect width="24" height="72" fill="white" transform="translate(131 27)"/>
</clipPath>
<clipPath id="clip9">
<rect width="27" height="72" fill="white" transform="translate(131 27)"/>
</clipPath>
<clipPath id="clip10">
<rect width="24" height="72" fill="white" transform="translate(131 27)"/>
</clipPath>
<clipPath id="clip11">
<rect width="24" height="72" fill="white" transform="matrix(4.37114e-08 -1 -1 -4.37114e-08 131 27)"/>
</clipPath>
<clipPath id="clip12">
<rect width="27" height="72" fill="white" transform="matrix(4.37114e-08 -1 -1 -4.37114e-08 131 27)"/>
</clipPath>
<clipPath id="clip13">
<rect width="24" height="72" fill="white" transform="matrix(4.37114e-08 -1 -1 -4.37114e-08 131 27)"/>
</clipPath>
<clipPath id="clip14">
<rect width="24" height="72" fill="white" transform="matrix(-1.31134e-07 1 1 1.31134e-07 59 99)"/>
</clipPath>
<clipPath id="clip15">
<rect width="27" height="72" fill="white" transform="matrix(-1.31134e-07 1 1 1.31134e-07 59 99)"/>
</clipPath>
<clipPath id="clip16">
<rect width="24" height="72" fill="white" transform="matrix(-1.31134e-07 1 1 1.31134e-07 59 99)"/>
</clipPath>
<clipPath id="clip17">
<rect width="32" height="32" fill="white" transform="translate(32 79) rotate(-180)"/>
</clipPath>
</defs>
</svg>
