<svg width="64" height="64" viewBox="0 0 64 64" fill="none" xmlns="http://www.w3.org/2000/svg">
<path d="M0.25 15.25L0 14.7V49.95L8.9 41.95C9.46667 41.3833 9.93333 41.0167 10.3 40.85L20.2 32.45L0.25 15.25ZM42.2 28.85C46.1 25.3833 52.2667 19.7833 60.7 12.05H2.7C2.7 12.4167 5.68333 15.05 11.65 19.95L31.5 37.55L31.9 37.8L37.35 32.95C37.55 32.8167 38.2 32.3 39.3 31.4C40.0333 30.7667 41 29.9167 42.2 28.85ZM47.25 40.1C45.05 37.9333 43.3667 36.4333 42.2 35.6C41.8667 35.3667 41.5667 35.1833 41.3 35.05C41.0667 34.95 40.8667 34.8833 40.7 34.85L33.4 41.5L31.9 42.35C26.3667 37.5167 23.35 35.0167 22.85 34.85L2.7 52.05H60.7L47.25 40.1ZM44.6 31.95L62.75 48.75L64 49.4V13.95L44.6 31.95Z" fill="#9D9E9E"/>
</svg>
