<svg width="64" height="64" viewBox="0 0 64 64" fill="none" xmlns="http://www.w3.org/2000/svg">
<path d="M29.6 21.25C28.8667 19.9167 28.2 18.85 27.6 18.05C24.3667 14.25 20.5667 12.35 16.2 12.35C11.6667 12.35 7.81667 14.25 4.65 18.05C1.55 21.8833 0 26.55 0 32.05C0 37.45 1.55 42.0667 4.65 45.9C6.25 47.7667 8.03333 49.2 10 50.2C11.8667 51.2 13.9333 51.7 16.2 51.7C17.2 51.7 18.2 51.5833 19.2 51.35C19.4667 51.2833 19.7167 51.2 19.95 51.1C20.7833 50.9333 21.5833 50.6333 22.35 50.2C24.25 49.2 26 47.7667 27.6 45.9C28.2 45 28.9167 43.85 29.75 42.45C32.0167 34.7833 31.9667 27.7167 29.6 21.25ZM11.3 24.05C12.8 21.7167 14.5833 20.55 16.65 20.55C18.6833 20.55 20.4667 21.7167 22 24.05C23.5 26.3833 24.25 29.1833 24.25 32.45C24.25 35.75 23.5 38.5667 22 40.9C21.3667 41.8333 20.6833 42.5833 19.95 43.15C19.7167 43.3167 19.4667 43.4833 19.2 43.65C18.3667 44.0833 17.5167 44.3 16.65 44.3C14.5833 44.3 12.8 43.1667 11.3 40.9C9.86667 38.5667 9.15 35.75 9.15 32.45C9.15 29.1833 9.86667 26.3833 11.3 24.05ZM53.9 18.75V25.95H60.95V18.75H53.9ZM64 36.75V27.35H33.3C33.7667 30.85 33.85 33.9833 33.55 36.75H64ZM49.85 20.9H42.35V25.95H49.85V20.9Z" fill="#9D9E9E"/>
</svg>
