<svg width="172" height="64" viewBox="0 0 172 64" fill="none" xmlns="http://www.w3.org/2000/svg">
<path d="M0 32.25V33.65C0.0333333 34.35 0.0666667 35.0333 0.1 35.7V30.2C0.0666667 30.8667 0.0333333 31.55 0 32.25ZM68.5 31.95C68.5 23.0833 65.3667 15.5667 59.1 9.4C52.8667 3.13333 45.35 0 36.55 0C27.65 0 20.0667 3.13333 13.8 9.4C8.23333 14.9667 5.16667 21.6 4.6 29.3V34.6C5.16667 42.3333 8.23333 48.9833 13.8 54.55C20.0667 60.85 27.65 64 36.55 64C45.35 64 52.8667 60.85 59.1 54.55C65.3667 48.35 68.5 40.8167 68.5 31.95ZM54.3 37.95C51.8333 40.4833 48.8333 41.75 45.3 41.75C41.7667 41.75 38.7333 40.4833 36.2 37.95C33.7333 35.5167 32.5 32.5167 32.5 28.95C32.5 25.4167 33.7333 22.3833 36.2 19.85C38.7333 17.4167 41.7667 16.2 45.3 16.2C48.8333 16.2 51.8333 17.4167 54.3 19.85C56.8333 22.3833 58.1 25.4167 58.1 28.95C58.1 32.5167 56.8333 35.5167 54.3 37.95ZM22.4 15.85H29V50.45H22.4V15.85ZM85.6 32.8C84.6333 31.7667 83.4667 30.9333 82.1 30.3C80.7333 29.6333 79.3 29.15 77.8 28.85V56.85H81.2V52.2C82.3 51.6333 83.35 50.9667 84.35 50.2C85.2833 49.4667 86.0667 48.6167 86.7 47.65C87.4 46.65 87.9167 45.5833 88.25 44.45C88.65 43.3167 88.85 42.1167 88.85 40.85C88.85 39.1833 88.55 37.6667 87.95 36.3C87.3833 35 86.6 33.8333 85.6 32.8ZM81.2 33.5C81.8 33.9 82.3667 34.3667 82.9 34.9C83.4333 35.4667 83.9167 36.05 84.35 36.65C84.75 37.3167 85.0667 38 85.3 38.7C85.5333 39.4 85.65 40.15 85.65 40.95C85.65 41.65 85.5167 42.3667 85.25 43.1C85.0167 43.8667 84.7167 44.6 84.35 45.3C83.9167 45.9667 83.4167 46.5833 82.85 47.15C82.3167 47.6833 81.7667 48.15 81.2 48.55V33.5ZM98.5 28.35C98.4333 28.25 98.3833 28.15 98.35 28.05C98.3167 27.95 98.2167 27.9 98.05 27.9C97.9167 27.9 97.8167 27.9333 97.75 28C97.6833 28.1 97.6333 28.2 97.6 28.3L91.15 56.85H94.35L95.75 50.8H100.2L101.6 56.85H105L98.5 28.35ZM96.3 47.95L97.95 40.75L99.6 47.95H96.3ZM96.4 12.35C96.7 11.7833 96.85 11.1667 96.85 10.5C96.85 9.7 96.65 9.01667 96.25 8.45C95.9167 7.91667 95.45 7.48333 94.85 7.15C94.3167 6.78333 93.6833 6.53333 92.95 6.4C92.25 6.23333 91.5833 6.15 90.95 6.15V21.95C91.1167 21.95 91.3333 21.95 91.6 21.95C91.9 21.9167 92.1833 21.9 92.45 21.9C92.6833 21.8667 92.9333 21.8167 93.2 21.75C93.4667 21.7167 93.7 21.65 93.9 21.55C94.3333 21.4167 94.75 21.2167 95.15 20.95C95.55 20.6833 95.8667 20.3667 96.1 20C96.4 19.6667 96.6333 19.2833 96.8 18.85C96.9667 18.3833 97.05 17.9167 97.05 17.45C97.05 16.7833 96.9 16.1333 96.6 15.5C96.2667 14.9333 95.8667 14.4167 95.4 13.95C95.8 13.45 96.1333 12.9167 96.4 12.35ZM92.8 8C93.4 8.16667 93.9 8.46667 94.3 8.9C94.6667 9.36667 94.85 9.9 94.85 10.5C94.85 11.2 94.6833 11.85 94.35 12.45C93.95 13.05 93.4833 13.5833 92.95 14.05C93.25 14.25 93.5333 14.4667 93.8 14.7C94.0667 14.9 94.2833 15.1333 94.45 15.4C94.6167 15.6333 94.7667 15.9167 94.9 16.25C95 16.5167 95.05 16.85 95.05 17.25C95.05 17.6167 95 17.95 94.9 18.25C94.8 18.5833 94.65 18.8833 94.45 19.15C94.2833 19.4167 94.0667 19.6167 93.8 19.75C93.5 19.9167 93.1667 20.0167 92.8 20.05V8ZM101.7 8.1H104.6V6.5H99.8V21.65H104.95V20.05H101.7V14.25H104.6V12.65H101.7V8.1ZM111.9 6.6C111.467 6.76667 111.083 6.96667 110.75 7.2C109.55 8.03333 108.617 9.05 107.95 10.25C107.283 11.45 106.95 12.7833 106.95 14.25C106.95 15.1833 107.117 16.0667 107.45 16.9C107.717 17.7333 108.133 18.4833 108.7 19.15C109.233 19.8167 109.883 20.4167 110.65 20.95C111.383 21.4167 112.2 21.7667 113.1 22V20.25C112.5 19.9167 111.933 19.55 111.4 19.15C110.9 18.75 110.45 18.3 110.05 17.8C109.683 17.2667 109.4 16.6833 109.2 16.05C108.967 15.4167 108.85 14.75 108.85 14.05C108.85 13.3833 108.967 12.7333 109.2 12.1C109.4 11.4667 109.7 10.8833 110.1 10.35C110.467 9.85 110.917 9.38333 111.45 8.95C111.983 8.51667 112.55 8.16667 113.15 7.9V6.1C112.717 6.23333 112.3 6.4 111.9 6.6ZM139.3 40.2C139.267 41.1667 139.25 42.05 139.25 42.85C139.25 43.7167 139.267 44.6667 139.3 45.7C139.333 46.7 139.433 47.7333 139.6 48.8C139.767 49.8667 140 50.9167 140.3 51.95C140.6 52.95 141.033 53.8333 141.6 54.6C142.1 55.4333 142.783 56.0667 143.65 56.5C144.45 57 145.417 57.25 146.55 57.25C147.683 57.25 148.633 57.0333 149.4 56.6C150.167 56.1667 150.833 55.6 151.4 54.9C151.9 54.2 152.317 53.3833 152.65 52.45C152.983 51.5167 153.233 50.55 153.4 49.55C153.567 48.5833 153.667 47.6167 153.7 46.65C153.733 45.7167 153.75 44.85 153.75 44.05C153.75 43.1833 153.733 42.2167 153.7 41.15C153.7 40.1167 153.633 39.05 153.5 37.95C153.333 36.85 153.117 35.7667 152.85 34.7C152.55 33.6333 152.133 32.7 151.6 31.9C151.033 31.1 150.35 30.4333 149.55 29.9C148.75 29.4 147.75 29.15 146.55 29.15C145.417 29.15 144.45 29.3833 143.65 29.85C142.85 30.3167 142.183 30.9167 141.65 31.65C141.083 32.4167 140.667 33.2667 140.4 34.2C140.033 35.1667 139.783 36.1667 139.65 37.2C139.483 38.2 139.367 39.2 139.3 40.2ZM143.9 34.35C144.167 33.65 144.517 33.1 144.95 32.7C145.35 32.2333 145.883 32 146.55 32C147.15 32 147.667 32.25 148.1 32.75C148.533 33.1833 148.867 33.7667 149.1 34.5C149.367 35.2333 149.567 36.05 149.7 36.95C149.833 37.85 149.917 38.7333 149.95 39.6C150.017 40.5 150.033 41.3333 150 42.1C150 42.8333 150 43.4167 150 43.85C150 44.2167 150 44.7667 150 45.5C150 46.1333 149.983 46.85 149.95 47.65C149.883 48.45 149.8 49.2333 149.7 50C149.567 50.8 149.367 51.5167 149.1 52.15C148.833 52.7833 148.5 53.3167 148.1 53.75C147.667 54.1167 147.15 54.3 146.55 54.3C145.917 54.3 145.4 54.1 145 53.7C144.567 53.2333 144.217 52.6667 143.95 52C143.717 51.3 143.533 50.5333 143.4 49.7C143.267 48.8667 143.167 48.0333 143.1 47.2C143.067 46.4 143.05 45.6333 143.05 44.9C143.05 44.2 143.05 43.6333 143.05 43.2C143.05 42.8 143.05 42.2333 143.05 41.5C143.05 40.8 143.067 40.0333 143.1 39.2C143.133 38.3667 143.217 37.5167 143.35 36.65C143.483 35.8167 143.667 35.05 143.9 34.35ZM119.8 32.45V29.5H107.9V32.45H112.15V56.85H115.55V32.45H119.8ZM134.2 36.9C133.6 35.5667 132.817 34.35 131.85 33.25C130.85 32.1833 129.7 31.2667 128.4 30.5C127.067 29.7667 125.683 29.2167 124.25 28.85V56.85H127.65V52.25L128.15 52L131.1 56.85H134.85L130.75 50.25C132.05 49.0833 133.1 47.7167 133.9 46.15C134.7 44.65 135.1 43.0167 135.1 41.25C135.1 39.7167 134.8 38.2667 134.2 36.9ZM127.65 33.75C128.25 34.2167 128.783 34.7333 129.25 35.3C129.783 35.8667 130.233 36.4833 130.6 37.15C130.967 37.8167 131.267 38.5333 131.5 39.3C131.7 40 131.8 40.7 131.8 41.4C131.8 42.1667 131.7 42.9 131.5 43.6C131.267 44.3 130.967 44.9833 130.6 45.65C130.233 46.25 129.783 46.8167 129.25 47.35C128.783 47.85 128.25 48.2833 127.65 48.65V33.75ZM127.1 21.65H128.8L129.85 13.85L131.85 20.55L133.85 13.85L134.85 21.65H136.6L134.15 5.15L131.85 13.8L129.4 5.15L127.1 21.65ZM121.9 6.7C121.433 6.43333 120.867 6.3 120.2 6.3C119.567 6.3 119.033 6.41667 118.6 6.65C118.133 6.91667 117.75 7.25 117.45 7.65C117.183 8.05 116.95 8.53333 116.75 9.1C116.583 9.63333 116.45 10.1833 116.35 10.75C116.25 11.2833 116.2 11.8333 116.2 12.4C116.167 12.9333 116.15 13.4333 116.15 13.9C116.15 14.4 116.15 14.9167 116.15 15.45C116.183 16.05 116.25 16.6333 116.35 17.2C116.417 17.8 116.55 18.3833 116.75 18.95C116.917 19.4833 117.15 19.9667 117.45 20.4C117.75 20.8667 118.133 21.2167 118.6 21.45C119.033 21.75 119.567 21.9 120.2 21.9C120.8 21.9 121.333 21.7667 121.8 21.5C122.2 21.3 122.567 21 122.9 20.6C123.2 20.1667 123.433 19.7167 123.6 19.25C123.8 18.7167 123.933 18.1833 124 17.65C124.067 17.0833 124.117 16.5333 124.15 16C124.183 15.4667 124.2 14.9833 124.2 14.55C124.2 14.0833 124.2 13.5667 124.2 13C124.167 12.4 124.117 11.8 124.05 11.2C123.983 10.5667 123.867 9.96667 123.7 9.4C123.533 8.76667 123.3 8.23333 123 7.8C122.7 7.33333 122.333 6.96667 121.9 6.7ZM121.05 8.25C121.283 8.51667 121.483 8.85 121.65 9.25C121.783 9.68333 121.9 10.1333 122 10.6C122.067 11.1333 122.1 11.6333 122.1 12.1C122.133 12.6 122.15 13.05 122.15 13.45C122.15 13.8833 122.15 14.2167 122.15 14.45C122.15 14.6833 122.15 14.9833 122.15 15.35C122.15 15.7167 122.133 16.1167 122.1 16.55C122.067 16.9833 122.017 17.4333 121.95 17.9C121.883 18.3 121.767 18.6833 121.6 19.05C121.467 19.4167 121.283 19.7 121.05 19.9C120.85 20.1333 120.567 20.25 120.2 20.25C119.867 20.25 119.583 20.1333 119.35 19.9C119.117 19.6667 118.933 19.3667 118.8 19C118.633 18.6 118.517 18.1833 118.45 17.75C118.383 17.25 118.333 16.7833 118.3 16.35C118.267 15.8833 118.25 15.45 118.25 15.05C118.25 14.65 118.25 14.3333 118.25 14.1C118.25 13.8667 118.25 13.5667 118.25 13.2C118.25 12.7667 118.267 12.3167 118.3 11.85C118.3 11.4167 118.333 10.95 118.4 10.45C118.5 9.98333 118.617 9.55 118.75 9.15C118.917 8.78333 119.1 8.48333 119.3 8.25C119.533 8.01667 119.833 7.9 120.2 7.9C120.567 7.9 120.85 8.01667 121.05 8.25ZM144.45 8.1V6.5H139.65V21.65H144.8V20.05H141.55V14.25H144.45V12.65H141.55V8.1H144.45ZM155.2 5.85C155.167 5.78333 155.15 5.71667 155.15 5.65C155.117 5.61667 155.05 5.6 154.95 5.6C154.883 5.6 154.833 5.61667 154.8 5.65C154.733 5.71667 154.7 5.78333 154.7 5.85L151.1 21.65H152.9L153.7 18.3H156.15L156.95 21.65H158.8L155.2 5.85ZM154.95 12.75L155.8 16.75H154L154.95 12.75ZM167.75 29.5V39.7L159.15 28.55V56.85H162.55V38L167.75 44.8V56.85H171.15V29.5H167.75Z" fill="#9D9E9E"/>
</svg>
