<svg width="32" height="21" viewBox="0 0 32 21" fill="none" xmlns="http://www.w3.org/2000/svg">
<path d="M0.125 1.6249L0 1.3499V18.9749L4.45 14.9749C4.73333 14.6916 4.96667 14.5082 5.15 14.4249L10.1 10.2249L0.125 1.6249ZM21.1 8.4249C23.05 6.69157 26.1333 3.89157 30.35 0.0249023H1.35C1.35 0.208236 2.84167 1.5249 5.825 3.9749L15.75 12.7749L15.95 12.8999L18.675 10.4749C18.775 10.4082 19.1 10.1499 19.65 9.6999C20.0167 9.38323 20.5 8.95824 21.1 8.4249ZM23.625 14.0499C22.525 12.9666 21.6833 12.2166 21.1 11.7999C20.9333 11.6832 20.7833 11.5916 20.65 11.5249C20.5333 11.4749 20.4333 11.4416 20.35 11.4249L16.7 14.7499L15.95 15.1749C13.1833 12.7582 11.675 11.5082 11.425 11.4249L1.35 20.0249H30.35L23.625 14.0499ZM22.3 9.9749L31.375 18.3749L32 18.6999V0.974902L22.3 9.9749Z" fill="white" fill-opacity="0.75"/>
</svg>
