<svg width="52" height="52" viewBox="0 0 52 52" fill="none" xmlns="http://www.w3.org/2000/svg">
<path d="M45.6083 41.7083H49.8333C50.6278 39.1805 51.025 36.5083 51.025 33.6916C51.025 26.7583 48.6056 20.8722 43.7667 16.0333C40.4444 12.7111 36.6528 10.5083 32.3917 9.42496C30.3694 8.9194 28.2389 8.66663 26 8.66663C24.4111 8.66663 22.8222 8.81107 21.2333 9.09996C16.3944 9.96663 12.0972 12.2777 8.34167 16.0333C3.43055 20.8722 0.974998 26.7583 0.974998 33.6916C0.974998 36.5083 1.40833 39.1805 2.275 41.7083H7.69167C10.5806 34.8472 13.1444 28.7444 15.3833 23.4C17.6222 17.9833 19.5722 13.3972 21.2333 9.64163C21.3056 9.5694 21.3778 9.53329 21.45 9.53329C21.5944 9.17218 21.6667 9.2444 21.6667 9.74996C21.5944 10.5444 21.5944 11.1583 21.6667 11.5916C21.6667 12.025 21.6667 12.2777 21.6667 12.35C21.6667 12.4222 21.8111 12.6388 22.1 13C22.3889 13.3611 22.6056 13.7944 22.75 14.3C22.8222 14.3722 22.8583 14.4444 22.8583 14.5166C22.9306 14.8777 22.9667 15.1666 22.9667 15.3833C22.9667 15.6 22.9306 15.6361 22.8583 15.4916C22.4972 14.8416 22.2083 14.4083 21.9917 14.1916C21.775 14.0472 21.5583 14.0111 21.3417 14.0833C21.0528 14.1555 20.8361 14.4444 20.6917 14.95C19.6806 18.5611 18.7056 22.2444 17.7667 26V26.1083C17.55 27.1194 17.3694 28.1305 17.225 29.1416C17.1528 29.575 17.2611 30.0083 17.55 30.4416C17.6944 30.6583 17.8389 30.8388 17.9833 30.9833C18.2 31.2 18.3806 31.3805 18.525 31.525C18.9583 31.8861 19.2833 32.2472 19.5 32.6083C19.7167 32.9694 19.8611 33.475 19.9333 34.125C19.9333 34.4861 19.825 34.5944 19.6083 34.45C19.4639 34.2333 19.3194 33.9805 19.175 33.6916C18.9583 33.3305 18.7056 33.0416 18.4167 32.825C18.2 32.5361 17.8389 32.4277 17.3333 32.5C16.7556 32.5 16.3583 32.8611 16.1417 33.5833L15.925 34.5583C15.4917 36.1472 15.0583 37.8444 14.625 39.65C14.5528 40.0833 14.6972 40.5527 15.0583 41.0583C15.275 41.4194 15.6 41.6361 16.0333 41.7083H18.4167C18.85 41.6361 19.1389 41.5638 19.2833 41.4916C19.5 41.3472 19.5722 41.0583 19.5 40.625C19.4278 40.3361 19.3556 40.0833 19.2833 39.8666C19.1389 39.5777 18.8861 39.2888 18.525 39C18.1639 38.6388 17.9111 38.4583 17.7667 38.4583C17.6944 38.3861 17.6583 38.3138 17.6583 38.2416C18.0194 38.3138 18.4167 38.3861 18.85 38.4583C19.1389 38.5305 19.4278 38.6027 19.7167 38.675C20.0056 38.8916 20.2583 39.1083 20.475 39.325C20.9806 39.6861 21.4139 40.1194 21.775 40.625C21.9917 40.8416 22.2083 41.1305 22.425 41.4916L22.3167 40.7333C22.2444 40.3722 22.1361 40.0833 21.9917 39.8666L21.6667 39.4333C21.6667 39.3611 21.6667 39.2888 21.6667 39.2166C21.9556 39.3611 22.2083 39.5055 22.425 39.65C22.7861 39.7944 23.0389 40.0111 23.1833 40.3C23.5444 40.7333 23.8333 41.2027 24.05 41.7083C24.05 41.4194 23.9778 41.0944 23.8333 40.7333C23.7611 40.3 23.6528 39.9027 23.5083 39.5416C23.3639 39.1805 23.1472 38.675 22.8583 38.025C22.425 37.0861 22.3167 36.0388 22.5333 34.8833C22.75 34.2333 23.0389 33.6555 23.4 33.15C23.6889 32.8611 23.9778 32.6083 24.2667 32.3916C24.3389 32.3194 24.4472 32.2472 24.5917 32.175C24.9528 31.9583 25.2778 31.8138 25.5667 31.7416C25.7833 31.6694 26 31.5972 26.2167 31.525C26.5056 31.4527 26.8306 31.3444 27.1917 31.2C27.625 31.0555 28.1667 30.8388 28.8167 30.55C29.9722 29.9 30.5139 29.1777 30.4417 28.3833C30.4417 27.4444 30.0806 26.65 29.3583 26C28.7083 25.35 27.8056 25.0611 26.65 25.1333C25.5667 25.1333 24.7361 25.5305 24.1583 26.325C24.0861 26.5416 23.9056 26.7944 23.6167 27.0833C23.4 27.3 23.2556 27.5527 23.1833 27.8416C23.1111 28.0583 23.1111 28.2027 23.1833 28.275C23.1833 28.3472 23.1833 28.4555 23.1833 28.6C23.1833 28.6722 23.1472 28.7083 23.075 28.7083C23.0028 28.7083 22.8944 28.6722 22.75 28.6C22.6056 28.5277 22.4611 28.4555 22.3167 28.3833C22.1 28.1666 21.9917 27.8777 21.9917 27.5166C21.775 27.0111 21.775 26.6138 21.9917 26.325L22.75 25.35C22.8222 25.1333 22.8222 24.9166 22.75 24.7L22.5333 24.05C22.6778 23.8333 22.9306 23.4361 23.2917 22.8583L23.9417 21.775C23.9417 21.3416 23.9056 20.9805 23.8333 20.6916C23.6889 20.1138 23.5806 19.5361 23.5083 18.9583C23.5083 18.5972 23.5806 18.2722 23.725 17.9833C23.9417 17.6222 24.1944 17.2611 24.4833 16.9L25.025 16.3583C25.0972 16.2861 25.1333 16.3222 25.1333 16.4666C24.9167 16.6111 24.7722 16.8277 24.7 17.1166C24.6278 17.6222 24.6278 18.0916 24.7 18.525C25.0611 19.7527 25.3861 20.7638 25.675 21.5583C26.1806 21.7027 26.7583 21.775 27.4083 21.775C28.0583 21.7027 28.6361 21.5944 29.1417 21.45C29.4306 21.3777 29.6472 21.3055 29.7917 21.2333C30.0083 21.0888 30.1528 20.9444 30.225 20.8C30.2972 20.5111 30.3694 20.1861 30.4417 19.825V19.5C30.5139 19.6444 30.5861 19.7888 30.6583 19.9333C30.7306 20.3666 30.7306 20.7277 30.6583 21.0166C30.5861 21.3055 30.3694 21.5944 30.0083 21.8833C29.7917 22.0277 29.3583 22.2444 28.7083 22.5333C28.4917 22.6055 28.3472 22.6777 28.275 22.75C27.8417 23.0388 27.5528 23.3638 27.4083 23.725C27.6972 23.725 28.0583 23.7611 28.4917 23.8333C29.5028 24.05 30.225 24.375 30.6583 24.8083C31.525 25.5305 31.9583 26.6138 31.9583 28.0583C31.8861 28.8527 31.6694 29.575 31.3083 30.225C31.0194 30.7305 30.6944 31.1638 30.3333 31.525C30.1167 31.6694 29.9 31.8138 29.6833 31.9583C29.3222 32.175 28.9611 32.3555 28.6 32.5C28.2389 32.6444 27.9861 32.7527 27.8417 32.825C27.6972 32.8972 27.3361 33.0777 26.7583 33.3666C25.9639 33.7277 25.5667 34.3777 25.5667 35.3166C25.6389 36.2555 26.1083 37.0861 26.975 37.8083C27.4806 38.1694 27.9139 38.5666 28.275 39C28.5639 39.2888 28.8167 39.6861 29.0333 40.1916L29.575 41.4916L29.6833 41.0583C29.8278 40.8416 30.0083 40.5888 30.225 40.3C30.4417 40.0833 30.7306 39.8666 31.0917 39.65C31.4528 39.5055 31.7778 39.3611 32.0667 39.2166C31.9222 39.4333 31.7417 39.65 31.525 39.8666C31.3806 40.1555 31.3083 40.4805 31.3083 40.8416C31.2361 41.2027 31.2 41.4916 31.2 41.7083C31.4167 41.275 31.6694 40.8777 31.9583 40.5166C32.1028 40.2277 32.2833 40.0111 32.5 39.8666C33.2222 39.2166 33.8361 38.7833 34.3417 38.5666C34.7028 38.4222 35.2083 38.35 35.8583 38.35L34.9917 39C34.5583 39.2888 34.2333 39.65 34.0167 40.0833C33.8 40.5888 33.7278 40.95 33.8 41.1666C33.9444 41.3833 34.1611 41.5638 34.45 41.7083H37.5917C38.6028 41.1305 39.1083 40.5166 39.1083 39.8666C39.1083 39.5777 39.0722 39.2888 39 39L37.7 33.6916C37.6278 33.1138 37.4833 32.7166 37.2667 32.5C37.1222 32.3555 36.9417 32.3194 36.725 32.3916L34.9917 32.9333C34.9917 32.8611 35.0278 32.825 35.1 32.825C35.1 32.7527 35.0639 32.7166 34.9917 32.7166C34.9917 32.6444 35.0278 32.5722 35.1 32.5C35.1 32.4277 35.0639 32.3916 34.9917 32.3916C34.9194 32.3916 34.8833 32.3555 34.8833 32.2833C34.8833 32.2111 34.8472 32.175 34.775 32.175C34.7028 32.2472 34.5944 32.2472 34.45 32.175C35.0278 31.7416 35.5333 31.2722 35.9667 30.7666C36.3278 30.4055 36.4722 30.0444 36.4 29.6833L32.7167 14.5166C32.6444 14.1555 32.4639 14.0111 32.175 14.0833C31.6694 14.3 31.3806 14.3722 31.3083 14.3C31.1639 14.1555 31.0917 13.975 31.0917 13.7583C31.0917 13.6861 31.1278 13.6138 31.2 13.5416C31.3444 13.4694 31.4889 13.3611 31.6333 13.2166C31.7778 13.0722 31.8139 12.7833 31.7417 12.35C31.7417 11.9166 31.7417 11.5194 31.7417 11.1583C31.8861 10.9416 32.0306 10.725 32.175 10.5083L32.2833 10.2916C32.5 10.3638 32.6806 10.5444 32.825 10.8333L45.6083 41.7083Z" fill="#9D9E9E" fill-opacity="0.75"/>
</svg>
